/* XPM */
static char *c634acd4bda9463da03157bacdfe24cbqv9LxT84jjISnK1Y[] = {
/* columns rows colors chars-per-pixel */
"64 64 225 2 ",
"   c #161616",
".  c #171818",
"X  c #1B1C1B",
"o  c #1E201F",
"O  c #1F2020",
"+  c #232323",
"@  c #262A28",
"#  c #2B2C2C",
"$  c #2C322E",
"%  c #2C3C2F",
"&  c #2B2F32",
"*  c #2E3435",
"=  c #343433",
"-  c #343B34",
";  c #383C35",
":  c #33393D",
">  c #3B3C3B",
",  c #403F3B",
"<  c #334A2A",
"1  c #2F4333",
"2  c #2E4C37",
"3  c #2C4638",
"4  c #2E4939",
"5  c #314D36",
"6  c #39463B",
"7  c #334C3A",
"8  c #2F5437",
"9  c #335437",
"0  c #355B37",
"q  c #3E5934",
"w  c #345339",
"e  c #39543A",
"r  c #355938",
"t  c #3B5D3B",
"y  c #396437",
"u  c #386537",
"i  c #3E6D33",
"p  c #3C6B36",
"a  c #3C6239",
"s  c #415C2E",
"d  c #44483A",
"f  c #455B39",
"g  c #44633B",
"h  c #486939",
"j  c #516C35",
"k  c #427435",
"l  c #477637",
"z  c #497D34",
"x  c #4B7B3B",
"c  c #333E40",
"v  c #344444",
"b  c #3C4343",
"n  c #364A46",
"m  c #394D48",
"M  c #3C574B",
"N  c #3B534C",
"B  c #3C5D52",
"V  c #3F6256",
"C  c #444443",
"Z  c #484945",
"A  c #464948",
"S  c #4B4C4B",
"D  c #4B5342",
"F  c #485746",
"G  c #435A44",
"H  c #4C534C",
"J  c #445B4C",
"K  c #545848",
"L  c #445B53",
"P  c #495B53",
"I  c #4D5D5A",
"U  c #545554",
"Y  c #575A56",
"T  c #5C5C5C",
"R  c #605F58",
"E  c #47624A",
"W  c #596A48",
"Q  c #577746",
"!  c #436354",
"~  c #4B6554",
"^  c #4C6A54",
"/  c #46685B",
"(  c #586857",
")  c #516B59",
"_  c #4D7259",
"`  c #577659",
"'  c #5A755B",
"]  c #61684D",
"[  c #6D7549",
"{  c #757B4C",
"}  c #62635B",
"|  c #666A59",
" . c #647959",
".. c #76765B",
"X. c #5F5F61",
"o. c #586F68",
"O. c #497464",
"+. c #557966",
"@. c #5B7A63",
"#. c #636463",
"$. c #686A66",
"%. c #6A6B6B",
"&. c #756D60",
"*. c #6D7365",
"=. c #647D65",
"-. c #787B68",
";. c #687571",
":. c #737373",
">. c #797B75",
",. c #7C7C7C",
"<. c #82725B",
"1. c #4D8234",
"2. c #58853A",
"3. c #5F9235",
"4. c #628E3B",
"5. c #71963C",
"6. c #588243",
"7. c #678B47",
"8. c #799548",
"9. c #68845D",
"0. c #778852",
"q. c #57826B",
"w. c #5B8773",
"e. c #698567",
"r. c #65826B",
"t. c #778968",
"y. c #799768",
"u. c #638D76",
"i. c #7C817F",
"p. c #6B9376",
"a. c #769575",
"s. c #7DA27A",
"d. c #88974C",
"f. c #879556",
"g. c #979D56",
"h. c #88A355",
"j. c #99A558",
"k. c #A6B05C",
"l. c #828868",
"z. c #839B6C",
"x. c #87877B",
"c. c #839C73",
"v. c #8A9778",
"b. c #919878",
"n. c #9AAA6A",
"m. c #8CA375",
"M. c #8BAA75",
"N. c #95A878",
"B. c #9EB178",
"V. c #ACB86C",
"C. c #B2CA71",
"Z. c #C0C768",
"A. c #7F8180",
"S. c #77A080",
"D. c #838383",
"F. c #888A85",
"G. c #8B8C8C",
"H. c #918C80",
"J. c #8F908F",
"K. c #9C9688",
"L. c #939494",
"P. c #979897",
"I. c #9B9C9C",
"U. c #A4998C",
"Y. c #A59C94",
"T. c #A69E99",
"R. c #87A985",
"E. c #97AA88",
"W. c #99B383",
"Q. c #9EA09F",
"!. c #A8B887",
"~. c #B1B78B",
"^. c #AAA397",
"/. c #B4A79C",
"(. c #B2B795",
"). c #9E9FA1",
"_. c #9FA1A0",
"`. c #A3A4A3",
"'. c #A7A9A8",
"]. c #ABACAC",
"[. c #B5AAA2",
"{. c #BDB2A6",
"}. c #AFB1B1",
"|. c #B3B3B3",
" X c #B6B8B8",
".X c #BBBCBC",
"XX c #C5B7A9",
"oX c #C8BCB2",
"OX c #B6C488",
"+X c #ADC693",
"@X c #B7C696",
"#X c #BECCA0",
"$X c #BCC1BC",
"%X c #C6CA99",
"&X c #C9D39A",
"*X c #C7CCA2",
"=X c #CED2AF",
"-X c #D5DAAA",
";X c #DAE1AC",
":X c #DDE5B5",
">X c #E3E8BA",
",X c #BFC1C0",
"<X c #C3C4C4",
"1X c #C6C8C7",
"2X c #C7C9C8",
"3X c #CACCCB",
"4X c #CED0CF",
"5X c #CECFD0",
"6X c #CFD1D0",
"7X c #D3D4D4",
"8X c #D6D8D7",
"9X c #D6D7D9",
"0X c #D7D9D8",
"qX c #DCDDDC",
"wX c #DEE0DF",
"eX c #EAF0CB",
"rX c #DFDFE0",
"tX c #DFE1E0",
"yX c #E3E4E4",
"uX c #E5E8E7",
"iX c #E7E9E8",
"pX c #ECECEC",
"aX c #EEF0EF",
"sX c #F3F3F3",
"dX c #F9F9F9",
/* pixels */
"l. .n v v E c.B.n.n.b.t.W.@X;X:X;X*X=X=X=X*X@X+X@X!.b.-.| } } *.%.Y ( | <.P.v.n.m.z.9.` y.a.^ ^ ` E J J m n A g r 8 8 m w w e 2 ",
"=.N n m m ^ e.c.N.~.XX*X>X>X>X>XeXeXeXeX#X(.t.~ D H X.,.P.|.1XrXyX3X|.I.G.%.H d D | ~ E y._ _ ~ ^ E ` E n m G y 8 8 8 w 7 4 w 2 ",
"' L ~ @.' ' ^ ' ~.%X-X;X>X:X>X;X=X*X-X/.| C Y D.|.0XpXdXdXdXdXdXdXdXdXdXdXpXqX.XG.X.> , ) r.@.;.`  .t.^ P Q 6.k a r 9 r w 4 5 2 ",
"~ ~ M ) e.q.` _ b.-X;X;X-X@X!.+XW. .S C i.$XiXdXdXdXdXdXdXdXdXdXdXdXdXdXdXdXdXdXsXpX<XD.S b F =._ 9.=.( 9.2.1.i p a g h 0 7 7 e ",
"N ~ M N ! M @.y.m.OX-X-X*XW.E.t.C C G.9XdXdXdXdXdXdXdXdXdXdXdXdXdXdXdXdXdXdXsXdXdXdXdXdX9XL.S = F J b  .8.1.i i k y y y a t G 6 ",
"E ) E ^ L ! r.m.N.B.(.%X+Xm.( S D.9XdXdXdXdXdXdXdXdXdXdXdXdXdXdXdXsXdXsXdXdXdXsXsXdXsXsXdXsX9XG.6 * b E 7.6.Q k k i y a 0 a E e ",
"y.t.9.y.t.@.r.a.B.!.@X(.b.d :.7XsXdXdXdXdXdXdXdXdXdXdXdXdXdXsXdXdXsXdXdXdXsXsXdXdXsXdXsXsXsXsXsX<XX.# f 2.x x 2.x k k y y h W K ",
"y.n.B.V.M.e.e.y.+X(.*X<.= ,.yXdXdXdXdXdXdXdXdXdXdXdXdXdXdXdXdXsXsXdXsXdXsXdXsXsXsXsXsXsXsXsXsXsXsXrXD.; 0 x k k k k k k j g W f ",
"Q 9.z.B.OXOXy.y.!.*X-.; T.sXdXdXdXdXdXdXdXdXdXsXsXdXsXdXsXsXsXsXdXdXsXsXsXsXsXdXsXsXsXsXsXsXsXsXsXsXaX`.> s Q x k k z 1.j y t e ",
"n M 9.z.OX&X!.z.+X-.> ].sXdXdXdXdXdXdXdXdXdXdXdXdXdXdXsXsXsXsXsXsXsXsXsXsXsXsXsXsXsXsXsXsXsXsXsXsXsXaXaX|.C s 4.2.2.2.Q h u a F ",
"v N Q 9.OX&X-X&X-., |.dXdXdXdXdXdXdXdXdXsXdXdXpX|.,XsXsXsXsXsXsXsXsXdXsXsXsXsXsXsXsXsXsXrX].1XpXaXaXsXaXsX XC s 3.3.5.l p y y t ",
"v v m ^ y.B.OXl.- ].dXdXdXdXdXdXsXdXdXsXdXsXdX'.= C 5XdXsXsXsXsXsXsXsXsXsXsXsXaXsXsXsXsXG., U rXsXsXaXaXaXaX|.6 h 5.2.l k p a 0 ",
"n n N ` y.M.l.= I.sXdXdXdXdXdXdXsXdXsXdXdXsXpXX.+ > 5XsXsXsXsXsXsXsXaXsXsXsXsXsXaXsXsX9XS # U rXaXaXsXpXaXaXpX_.6 j 1.z k p u 0 ",
"n J ~ +.a.c.; ,.pXdXdXsXdXsXdXsXdXdXdXsXsXsXoX& + %.pXsXsXsXpXsXsXaXsXsXsXaXaXsXsXpXsXT.& # D.pXaXaXpXpXpXpXpXiXx.% k 1.z i u 0 ",
"n L ~ o.t.K Y rXdXdXdXdXdXdXsXdXdXsXsXsXsXsX%.+ # ].sXsXsXsXsXsXaXsXaXsXpXaXsXaXsXsXrXT # , <XsXpXpXpXpXpXpXpXpX0XT < z z i i x ",
"N ) v.!.t.= .XsXdXdXdXdXsXsXdXsXsXdXsXsXsX5X, + S rXsXsXsXsXpXsXsXaXsXaXsXsXaXsXpXsX}.# + %.yXpXpXpXsXpXpXpXpXpXpX.X; u 1.2.x g ",
"L '  .v.d >.aXdXdXdXsXdXsXsXsXdXsXsXsXsXsXG.O + G.sXsXsXpXsXpXsXpXsXsXsXpXsXsXpXaXpX%.+ # ].aXpXpXpXpXpXpXpXpXpXpXuXD.% 4.7.Q G ",
">.x./.&.= 6XsXdXsXsXdXsXsXdXsXsXsXsXsXsX9XC X , 5XsXsXsXpXsXsXsXsXsXpXsXsXsXpXsXsX<X= + U rXpXpXaXpXpXpXiXiXiXpXpXiX4XS j 7.7.[ ",
"x.x.>X, D.sXsXdXsXsXsXsXsXsXsXsXsXsXsXsXI.+ X :.pXsXpXsXsXsXsXsXsXpXsXpXpXpXpXpXpX,.O + L.aXpXpXpXiXpXiXiXpXiXpXiXiXiXG.- 6.8.5.",
"U.U.U., 5XsXdXsXsXsXsXsXsXsXsXsXsXsXsXrXU X # .XsXpXsXsXpXsXpXpXpXsXpXsXpXsXsXpX7X, O > 5XaXpXpXpXpXiXpXpXiXiXiXiXiXiX4XZ | 2.1.",
"/.{.U :.pXsXsXdXsXsXsXsXsXsXsXsXpXsXsX|.+ X T yXsXsXpXpXpXsXpXsXpXsXpXpXpXsXpXsXL.+ O <.pXpXpXpXpXiXiXpXiXiXiXuXuXuXuXyX,.; ( t.",
"U.K., |.sXsXsXsXsXsXsXsXsXpXsXpXsXpXpX%.X + T.sXpXsXpXsXpXsXpXpXsXpXpXsXsXpXpXrXU X & ,XaXpXpXpXpXiXiXiXiXiXuXuXuXuXuXuX X; Q b.",
"<.Z C rXsXsXsXsXsXsXsXsXpXsXpXsXpXsX<X= O C 9XsXsXpXsXpXsXpXpXsXpXsXpXsXpXpXsX].+ O X.yXaXpXpXpXiXiXiXiXiXiXyXiXuXyXuXyX0XU s 3.",
"l.= :.pXsXsXsXsXpXsXpXpXsXpXsXpXsXpXA.X X D.pX|.<XpXpXsXpXpXpXpXpXpXpXpXsXpXyXX.O + `.yX].5XpXuXiXpXiXiXiXiXyXyXyXuXyXyXyXD.s y.",
"&.# '.aXpXsXsXsXsXsXpXsXpXpXpXsXpX9X>   & 5X<X& S rXpXpXpXpXpXpXsXpXpXpXpXsX.X& X Z qX].+ %.yXpXiXiXuXiXiXiXtXuXyXtXuXtXuX].6 ^.",
"Y = 3XaXsXsXpXpXpXpXpXpXpXpXpXpXsXL.X X %.pX).X # <XpXpXpXpXpXpXpXpXpXpXpXpX,.X X G.aXA.X C 7XpXiXuXuXuXtXtXuXuXuXtXtXtXtX3Xb &.",
"K Z rXaXsXpXaXpXpXpXpXpXpXpXpXpXrXU   + |.pXL.X # <XpXpXpXpXpXpXpXpXpXpXpX5X> X = 2XpX:.. d 7XuXiXuXiXuXiXtXuXtXtXtXtXtXtX8XY K ",
"K R iXaXpXsXpXpXpXpXpXpXpXpXpXpX].+   U rXpXG.X # <XpXpXpXpXpXpXpXpXpXpXpXG.X X :.iXiX%.X C 9XpXiXtXtXuXtXuXtXtXtXtXtXtXtXqX%.> ",
"# <.pXaXpXaXpXpXpXpXpXiXpXiXpXyXX.  X Y.pXpX,.  # <XpXpXpXpXyXpXpXpXpXpXrXS   # |.pXyXX.. A wXaXiXuXtXuXuXtXtXtXtXwXwXwXwXwXD.; ",
"O J.pXpXpXpXpXpXpXpXiXpXiXiXpX.X#   > 5XpXyX<.  # 5XpXpXpXyXpXpXiXiXpXpX`.+   U rXiXrXU X m 0XtXtXiXuXtXtXtXtXtXtXwXwXqXwXtXL.# ",
"X L.aXaXaXpXiXpXpXpXyXiXiXyXyX<.    ,.yXyXyX%.  = 3XyXyXyXpXyXpXpXyXpXrXX.  + T.pXiXtXH . S tXtXtXiXtXtXtXtXwXwXwXwXwXwXwXwXI.@ ",
"@ }.sXaXaXpXpXyXyXyXiXyXyXyX5X,   # .XpXyXrXX.  = 5XyXpXpXyXpXyXyXpXpX|.#   C 5XiXiX9XC . H tXtXuXtXuXtXtXwXwXwXwXwXwXqXqXwX`.@ ",
"& .XsXsXpXpXyXpXpXyXyXyXyXyXG.X   X.rXyXyXrXS   , 4XpXyXyXyXiXiXpXyXyX<.X X D.yXuXuX7X> X U qXyXyXyXwXtXwXwXwXwXwXwXwXwX0X0XQ.@ ",
"= oXsXpXpXyXpXyXrXyXyXyXrX9XS   + `.yXrXyX9XC   , 7XrXyXyXyXyXiXyXyX3X=   & .XpXyXuX3X= X U qXrXrXwXwXwXwXwX0XwXwX0X0XwXwXwXI.@ ",
"> |.sXpXpXyXyXyXyXrXrXyXyXT.O   C 7XrXrXrX9XC   , 3XrXyXyXyXyXyXyXyXG.X X X.rXyXyXyX<X= X T qXyXwXwXwXwXwXwXwX0X0X0XwX0X0XwXJ.@ ",
"S `.pXpXpXyXyXyXyXrXrXrXrXX.    G.rXrXrXrX5X=   , 5XyXrXyXyXyXrXyX7XC   + ].pXyXyXyX.X# X T qXyXwXwXwXqXwX0XwXwX0XwX0X0X0XwXi.$ ",
"X.L.pXpXpXrXrXrXrXrXrXrX|.+   = <XrXqXrXrX<X&   C 7XrXrXrXrXrXrXyXT.O X S 9XrXyXyXyX|.+ X #.qXtXqXqXwX0XqX0XwX0X0XqX0X8X0X0X;.$ ",
"&.,.sXpXpXrXrXrXrXrXrXrX:.    :.qXqXqXqXrX.X#   C 7XrXrXrXqXrXrX9XU   X L.rXrXrXqXyX`.+ X #.tXqXqXqXwX0X0XwX0XwX0X0X0X0X0X4XU 6 ",
":.%.rXpXpXrXrXrXrXrXrXoX=   # |.rXrXqXqXrXXX+   C 7XrXqXqXqXrXrX}.+   > 5XyXyXrXyXyX`.+ X #.tXqXwXqXqXqX0X0X0X0X0X0X8X0X0X<Xb 1 ",
";.U 7XpXpXrXrXrX9XrXrXD.X   # :.A.D.G.J.I.G.+   , XX<X3X7XqXqXqX%.X X > ,.D.G.L.I.`.i.O X I ,X2X4X7X0XqX0XqX0X0X0X0X8X8X0X'.= 1 ",
"r.L |.aXpXyXqXqXqX8X7XT             X X X O X   X # = , A :.5X3X>   X X X X X X O O + X O O - > A P G.8X9X9X9X9X0X8X8X8X8XA.$ 8 ",
"u.P G.iXpXyXqXqXqX8X8X<.+ O X X X   X X   X X X X         O `.7XX.+ O O X X X X X X X X O X X X X X $  X8X9X9X9X8X8X7X9X3XY % r ",
"u.+.%.8XpXiXqXqXqX8X7X3X[.T.T.L.K.G.D.<.:.U X   # Z U U T :.<XqX3X].).I.P.L.G.x.A.:.S X o = S I T X.i.3X8X9X9X7X7X7X9X9X}.- 2 r ",
"u.u.I |.pXiXqX9X8XqX7X8X9X9X9X9X9X9X7X7X9X).O   $.3X5X6X5X7X7X7X9X9X9X9X9XqXqX0XqXqXF.+ o F.7X8X7X7X8X8X8X8X7X7X7X7X7X9X,.$ w 9 ",
"u.u./ A.yXpXrX9X8X8X7X7X7X7X7X5X5X5X7X5X9X`.+ X %.7X7X7X7X7X7X7X7X9X7X9X7X7X7X9X7X0XG.o o G.8X8X8X8X7X8X9X7X7X9X7X9X9X,XA 1 9 w ",
"+.w.+.U oXpXiX9X7X7X8X7X7X6X6X7X5X5X5X5X5X`.+   %.6X6X6X6X6X7X7X7X7X7X7X7X7X7X7X7X0XP.+ o F.8X6X7X7X7X7X7X5X9X5X7X6X9XG.$ n e e ",
"O.w.w.( G.yXpXqX7X7X7X7X6X6X5X4X5X5X5X1X5X].+   } 6X4X6X6X6X6X6X5X7X7X7X7X7X7X7X7X8XI.+ o A.8X8X8X6X7X7X7X9X5X7X7X7X,XS 1 n 7 w ",
"O.+.u.a.R .XsXyX7X7X6X7X4X4X5X5X3X5X5X5X5X|.&   ( 4X4X4X6X6X4X4X5X5X5X5X7X5X5X7X7X7XI.+ o A.8X6X6X8X6X6X5X7X7X7X7X7XD.# 7 e G ) ",
"+.O.S.S.=.i.yXsXqX6X7X6X6X6X4X3X3X4X2X3X4X}.# . T 3X3X3X4X4X4X4X4X4X4X4X4X6X4X6X7X7X`.@ X i.7X7X6X6X6X6X7X5X7X7X9X}.6 F =.r.r.9.",
"S.S.S.S.+X;.'.aXiX7X6X6X6X3X4X4X3X3X3X3X4X X=   T 3X4X3X3X3X3X3X3X3X4X4X4X4X4X4X4X7X'.@ o ,.7X6X6X6X6X7X5X7X5X7X1XX.6 P..X=.g f ",
"w.p.S.R.C.n...3XsXrX6X6X4X4X3X3X3X4X3X2X2X X;   U 1X3X3X3X3X2X4X3X3X4X3X4X3X4X4X4X6X].$ o >.6X6X6X6X6X6X7X5X7X7XD.* @.E.e.0 t e ",
"q.w.S.S.B.C.f.i.rXsX7X6X4X4X3X3X3X3X3X3X3X$X>   U 1X3X3X3X3X3X3X3X4X3X3X3X4X3X4X4X6X}.& o :.6X5X4X6X4X6X5X5X7XI.c  .p.( 9 0 f 2 ",
"O.q.w.S.S.R.B.=.P.pXiX5X3X3X3X4X3X3X3X3X3X,XS   T 1X3X2X2X3X3X2X3X3X3X3X3X3X3X3X3X4X.X> X ,.5X5X4X4X6X5X5X6X'.C | a.E 9 w t e 5 ",
"V O.q.u.p.s.s.y.&.'.iXqX4X3X4X3X3X2X3X2X3X3X`.:.'.2X2X2X2X2X2X3X3X2X3X3X3X3X3X3X4X3X3XI.,. X5X5X4X4X5X6X6X}.A H  .e 9 0 0 f 5 5 ",
"V O.O.O.w.p.m.h.[ R ].rX7X4X3X3X3X3X3X2X3X2X3X2X3X2X2X2X2X2X3X3X3X3X3X3X3X3X3X4X3X3X4X4X5X5X5X5X4X5X5X6X].A * e 7 7 9 9 0 e 7 4 ",
"V / V O.O.w.y.j.&.K R T.3X5X3X3X3X2X3X3X3X2X3X2X2X2X2X2X3X2X2X2X2X2X3X2X3X3X3X3X3X3X3X3X3X5X3X3X4X6X5XI.b 6 5 w w 9 0 9 e 7 4 4 ",
"! V V V O.+.t.t.<., : S D.|.2X3X3X2X3X2X3X2X2X2X2X2X2X2X2X2X2X3X2X2X3X3X3X3X3X2X3X3X5X<X3X5X5X5X5X1XD.C 0.W 7 w w w 9 w e 7 3 2 ",
"} ( ! V / ` +.' Y = * : A %.P. X2X3X3X2X3X2X2X2X2X2X3X2X3X3X2X2X2X3X2X3X3X3X3X3X3X3X3X5X3X5X5X5X}.#.d d.k.G w e 9 9 9 e 7 3 4 3 ",
"L ^ B B V _ _ _ Y b v : c c I ,.P. X2X2X2X2X3X3X3X2X3X2X2X2X3X2X2X2X3X2X,X3X2X3X3X3X5X5X5X5X,XD.C j j.k.f.q w 9 9 9 w e 3 3 3 3 ",
"B B M B B B ^ ! M m n v b v c U #.;.G.|.2X3X2X2X3X2X2X2X2X3X2X2X3X2X2X3X3X3X3X3X3X5X5X7X.XG.L Z ..k.j.g.] 7 7 7 9 w w 7 3 3 3 3 ",
"N N N N B L L B m n m n P m b A n Y T P :.`.,X3X2X3X2X2X1X1X3X3X1X3X3X3X3X5X3X5X4X<X].<.S ; [ k.V.Z.k.g.W 4 4 7 7 4 7 3 3 3 3 3 ",
"o.I L N B ;.A.O.L L / ;.o.I I I P I A.,.S , U ,.). X<X2X3X3X3X1X3X3X3X3X3X,X X'.x.R d = d d.j.8.j.Z.g.d.F 4 4 4 4 7 e 3 3 3 3 4 ",
"D.F.F.<.H.Y.T.L.H.H.^./.^.Y.^.].Y.K.oXoX{.^.R # = c U %.,.G.L.P.I.P.G.A.:.( A Z d d K W f K ..k.f.{ [ [ e 3 4 4 3 7 7 3 3 3 3 6 ",
":.D.^.T.U.Y.T.[.Y.Y././.`./.[.XXXX{.oXoXXXoX>.c c * & & # # = & = & ; 6 ; d [ j.g.] | 0.] D *...D C f { 7 3 3 3 4 w 3 3 3 3 3 * "
};
