/* XPM */
static char *_645994659853[] = {
/* columns rows colors chars-per-pixel */
"64 64 255 2 ",
"   c #030204",
".  c #05060B",
"X  c #0C0B13",
"o  c #0E1014",
"O  c #15151B",
"+  c #331A14",
"@  c #15271B",
"#  c #0E1922",
"$  c #1B1825",
"%  c #231C2B",
"&  c #341E27",
"*  c #1C232A",
"=  c #23252A",
"-  c #362B38",
";  c #2E3036",
":  c #511B17",
">  c #601717",
",  c #51261A",
"<  c #732B19",
"1  c #513330",
"2  c #782A24",
"3  c #6E362E",
"4  c #793627",
"5  c #1A6D0F",
"6  c #1A780D",
"7  c #257B0D",
"8  c #26621B",
"9  c #2E7018",
"0  c #267918",
"q  c #564A37",
"w  c #64483A",
"e  c #734A39",
"r  c #1B3945",
"t  c #283949",
"y  c #363848",
"u  c #303652",
"i  c #5B3A4A",
"p  c #613F4B",
"a  c #364550",
"s  c #3B4856",
"d  c #364C67",
"f  c #3B6263",
"g  c #565749",
"h  c #444A57",
"j  c #514E50",
"k  c #654749",
"l  c #695846",
"z  c #795945",
"x  c #6C4D56",
"c  c #596853",
"v  c #676958",
"b  c #716652",
"n  c #65725D",
"m  c #475666",
"M  c #51556A",
"N  c #69596C",
"B  c #436366",
"V  c #6B7863",
"C  c #74736A",
"Z  c #872B18",
"A  c #992C18",
"S  c #87331D",
"D  c #9B361B",
"F  c #A92D1B",
"G  c #A4381D",
"H  c #962C23",
"J  c #863427",
"K  c #9A3827",
"L  c #8F3632",
"P  c #A83926",
"I  c #B63C2A",
"U  c #AD3731",
"Y  c #CD3B35",
"T  c #C83E36",
"R  c #E73E33",
"E  c #98462D",
"W  c #894537",
"Q  c #974739",
"!  c #AA4529",
"~  c #B7462A",
"^  c #BB5429",
"/  c #A84534",
"(  c #B84735",
")  c #AA5639",
"_  c #BA5539",
"`  c #CB501D",
"'  c #C84B2B",
"]  c #D5482C",
"[  c #CA522B",
"{  c #C84435",
"}  c #C54C33",
"|  c #CC4C34",
" . c #C54C3A",
".. c #CD4C3A",
"X. c #D34634",
"o. c #D24B35",
"O. c #DB4C34",
"+. c #D34C3A",
"@. c #D9483A",
"#. c #CB5234",
"$. c #C5543A",
"%. c #CC533B",
"&. c #C85739",
"*. c #D75539",
"=. c #D4533C",
"-. c #E34F36",
";. c #CC653C",
":. c #943E46",
">. c #E43E40",
",. c #975647",
"<. c #8B5550",
"1. c #A85746",
"2. c #B65847",
"3. c #B1544D",
"4. c #8E6858",
"5. c #B56451",
"6. c #A45B61",
"7. c #8B7066",
"8. c #AD6B66",
"9. c #C84B44",
"0. c #D64A42",
"q. c #C95647",
"w. c #CC5C43",
"e. c #D45442",
"r. c #DB5544",
"t. c #D45B44",
"y. c #DB5C44",
"u. c #D8554A",
"i. c #D45C4A",
"p. c #DB5C4B",
"a. c #CE5353",
"s. c #D75B54",
"d. c #E34B48",
"f. c #E45A49",
"g. c #E65C52",
"h. c #CB6346",
"j. c #D4634A",
"k. c #D66548",
"l. c #DB634B",
"z. c #DB6453",
"x. c #D86957",
"c. c #D06A58",
"v. c #E4644A",
"b. c #E46756",
"n. c #F36B54",
"m. c #C55161",
"M. c #C96C67",
"N. c #D96A62",
"B. c #E46C61",
"V. c #E57063",
"C. c #19840D",
"Z. c #27890D",
"A. c #2B930D",
"S. c #34960D",
"D. c #298717",
"F. c #358A18",
"G. c #2E9014",
"H. c #389618",
"J. c #3BA115",
"K. c #3D862A",
"L. c #399424",
"P. c #478D19",
"I. c #449B1A",
"U. c #4CAB11",
"Y. c #47A619",
"T. c #55B11A",
"R. c #6ABF1C",
"E. c #459B26",
"W. c #4A9334",
"Q. c #4AA526",
"!. c #55AA28",
"~. c #59B427",
"^. c #49A531",
"/. c #58AA36",
"(. c #5BB335",
"). c #65B92B",
"_. c #69B232",
"`. c #66B838",
"'. c #69C01B",
"]. c #71C538",
"[. c #55934C",
"{. c #669956",
"}. c #5CA544",
"|. c #5FA553",
" X c #73B948",
".X c #6AB050",
"XX c #75B858",
"oX c #6B896E",
"OX c #76856C",
"+X c #798774",
"@X c #7A967A",
"#X c #78A86A",
"$X c #79B667",
"%X c #7CA674",
"&X c #77C54A",
"*X c #7AC255",
"=X c #7BC062",
"-X c #84CF3F",
";X c #868C7A",
":X c #85947B",
">X c #979078",
",X c #AB8A77",
"<X c #86BC6C",
"1X c #84A97B",
"2X c #8AB679",
"3X c #84CB5A",
"4X c #8EC96D",
"5X c #7C9A85",
"6X c #7BA589",
"7X c #899884",
"8X c #92978E",
"9X c #959B89",
"0X c #A89E8B",
"qX c #8CAA8B",
"wX c #95A78B",
"eX c #9AB989",
"rX c #99A895",
"tX c #9CAB94",
"yX c #9AB596",
"uX c #9CB29B",
"iX c #A1B48C",
"pX c #A3AB98",
"aX c #A5B995",
"sX c #A5B39C",
"dX c #ABB59E",
"fX c #A4BB9D",
"gX c #ABBA9D",
"hX c #B2B59E",
"jX c #9AB3A2",
"kX c #ACB6A3",
"lX c #A5BBA3",
"zX c #ACB9A3",
"xX c #A7B7A8",
"cX c #ADB9A9",
"vX c #B2B6A3",
"bX c #B1BAA4",
"nX c #B2B1AA",
"mX c #B5B5A9",
"MX c #B2BCAA",
"NX c #CABFAE",
"BX c #9AC487",
"VX c #A2CF87",
"CX c #A8C499",
"ZX c #99C2A4",
"AX c #A7C3A6",
"SX c #B5C2AB",
"DX c #B8C4AB",
"FX c #BAC6B3",
"GX c #B6CCB3",
"HX c #C2CCB8",
"JX c #C6D1BD",
"KX c #BAD2C1",
"LX c #CBD8C6",
"PX c #D5DACB",
"IX c #D3E2CF",
/* pixels */
"L.J.^.(.G.7 E.(.H.E.(.^.J.Q.E.G.J.!.`./.^.[.|.$X X=X$XyXSXcXAXbXCXbXbXbXbXSXDXbXiX4XXX*X X(.E.Q./.]./.&X&X].].'.4X&X].(.(.(.}.!.",
"L.A.C.L.Y.Z.I./.W.`.`.Q.(.&X.X#X1XeXBXBXCXAXFXLXlXV +XAXHXFXFXDXDXSXMXDXSXbXbXMXHXwX;X7XDXCXVXBXBXVX4X*X-X`.].'.3X&X&X'.T.Q.^.7 ",
"H.D.G.D.Q.I. XeXDXAXSXAXyXoXOXMXPXLXFXFXSXMXSXMXkXV +XaXzXfXdXgXkXgXzXdXdXdXgXdXhXtXn C gXFXHXHXHXHXJXGXBX4X*X&X3X&X].(.3X&X^.F.",
"H.D.C.D.L.2XFXPXJXHXHXPXcXn j rXMXxXcXkXxXxXcXcXsXn +XsXzXzXzXgXzXzXcXgXkXsXdXkXdXwXn +XgXzXdXcXbXCXSXHX:XV dXDXVX4X&X~.&X~.3X_.",
"A.J.Q.G.}.JXHXvXdXhXkXcXcX;Xg +XkXkXcXcXkXkXcXcXsXV +XxXkXkXbXcXcXkXzXzXzXsXtXkXzX:Xn :XpXkXkXkXzXbXgXwXv ;XDXLXDXFXaX4X&XY._.`.",
"J.^.H.Z.$XJXbXkXzXzXxXkXcXwXc C kXbXvXkXlXlXfXzXpXv @XxXdXvXzXcXnXvXzXzXvXhXpXpXpX;Xn 7XuXlXkXnXcXbXpXn n wXSXkXbXbXHXSX XY.`. X",
"6 H.Q.G.BXFXkXzXzXzXdXkXcXlXV c tXcXhXhXfXfXlXZXyXc OXxXgXfXfXfXkXxXfXfXlXCXfXwXqXOXV 7XyXuXdXhXhXpX+Xg +XsXkXzXbXkXMXFX#XF.*X4X",
"H.Z.7 G.BXkXkXkXzXzXkXdXcXcX9Xc :XlXgXfXgXcXMXmXpXv 7.jXlXZXfXgXdXvXzXzXzXcXzXsX9XV +XqXlXcXhXvXdX7Xc n 9XkXcXcXkXcXbXFX2X`.].&X",
"U.H.I.`.eXkXvXgXzXzXvXkXkXxXsXn V sXcXcXmXmXMXnXrXj C rXrXwX8XrXwX8XpXpXyXuXtXsX:Xg 7XjXlXlXkXcXjXoXn wXlXdXzXzXzXzXkXpX2XY.).'.",
"F.T.P.!.fXkXkXbXzXzXkXkXkXlXxX;Xg :XuXjXsX9X7.b k , 3 l g z <.<.<.7.6.4.<.e <.e 3 , w V ;X9X9XwXoXV rXzXkXcXkXzXkXcXpXpX<X/.).-X",
"9 S.Q.G.BXdXkXdXdXkXkXpXpXaXpX;X1 k 7.b z 4 J / !  . .U < I >.9.m.3.{ +.G G w.$.{ } ! Z E Q ,.4 w 9XcXzXcXbXzXcXzXzXdXrX4X/.T.).",
"G.C.E.D.$X7X7XrXpXkXmXcXsXV e 4 H L a.+.+.I P 0.4.v / 0.F I  .2.l 8 I [ Z I &.8.v Q ] G { o.0.u.a.1.,XkXZXxXbXzXhXdXpXwX$XE.P.F.",
"Y.Z.H.H.2X7XOXV C 5X7XpX7X, / h.0.5.8.i.y.~ K ] 3.q Q u.F I +.@.a.<.9.X.< Y y.8.x L ] K } ] ) 7.Q ( 2.,XjXjXrX9X>XwX7XwX^.W.!._.",
"Y.H.).H.#XPXLXMXjX7X5X+Xk 2 d.=.{ <.g ,.g.} S ] d.0.e.q.A ( | *.n.q.X.' < ( #.c.9.R Y K ( R 1.q 4 } >.,.v 0XpXcXGXLXIXgX.X/.`.).",
"^.L.!.Z.{.PXSXFXFXFXAXjXv H f.=.0.5.4 _ g.{ K ` u.u.-.q.D ( [ ;.h. .+.^ 4 9.+.b.u.] o.U  .} p.9. .' O.H ;XPXIXLXLXKXLXAX&X.X`.Y.",
"Y.H.D.D.#XLXbXkXkXxXmXcXC J i.&.u.B.0.*.f.Y K ] i.h.*.2.H Y X.l.l.0.@.~ Z @.O.b.&.` ^ I X.[ h.%.X.' | J :XMXMXbXmXkXDXSX&X(.^.G.",
"5 Z.Z.Z.1XHXhXgXkXzXmXlX+XK z.&.i.f.@.^ h...U o.s.p.-.%.A Y X.y.0.T { ! S T ! 2.3.h._ U o.' h.2.} [ ] J :XcXbXzXvXbXbXDX*X(.L.Q.",
"9 F.H.Z.1XHXhXgXgXzXhXlX@XU v.=.z.9.| ^ h. .K ;.5.,.,.<.x M M N M M M B f M B m M x ..U ..' v.0.o.] @.J :XvXzXgXbXbXzXSXXXL.A.Y.",
"!.!.7 E.1XHXhXgXzXbXdXAX;XL g.@.v...| ^ =.9.K [ k m d m d m M m h s h m B s a s d p ~ G X.%.l.+...' 0.W 7XbXbXdXzXdXbXgX4X^.H.J.",
"F.I.H.(.2XFXgXgXzXbXhXgX>XL s.e.y.o.y.$.%.9.G ' k s O # $ s m ; X X * h d $ . O d p ~ D X.$.l.X.| | r.W 7XmXkXdXzXbXbXgXXX(.J.J.",
"0 D.H.G.2XMXhXgXzXzXbXfX>Xz 8.3.h.o.k.h.=.q.K ' i u     X a j *     $ s s O   o u i ~ D X.$.l.o.| } p.W 7XMXzXgXzXbXzXgX.X/.H.E.",
"C.5 G.D.wXbXbXgXzXxXlXlX8Xj x v 6. .e.k.t.q.P ' i t .   X i h =     O a a O   o t i ~ D X.&.j.o.| #.p.J 7XMXzXzXlXgXbXgX3X X!.`.",
"C.0 6 H.eXkXhXgXkXxXxXcXpXM d d e  .p.x.r.a.K ' p u .   X y a =     O a y O   o t 1 ~ D o.%.k.+.| &.r.W 7XMXkXgXlXdXzXfX=X}.*X!.",
"5 5 Z.0 1XkXgXzXkXkXxXmX0Xj d a 3 X.b.x.y.a.H ' p t X . X ; i = .   o y y O   X t 1 ^ D X.$.k.X.| w.e.W qXcXxXzXlXzXfXCX=X].&XQ.",
"0 D.A.D.1XsXkXgXkXvXzXhX0Xj u u 3 | N.b.*.2.D O.3 t o . . ; y = . . O - ; O   o r 1 U P o.%.k.o...=.+.W qXzXzXgXlXvXdXtX3X!.!./.",
"Z.6 6 D.1XsXgXzXkXkXcXaXrXs t u 1 &.V.u.;._ S @.3 r X . . ; ; @     X ; ; % . O ; 1 P U o.o.k.X.+.h.+.W wXcXgXgXgXbXdXtX4X&X~.(.",
"A.C.G.0 1XsXzXgXkXbXxXxXrXd - ; 1 x.b.+.*._ J @.J r O O # ; ; * O % = t - % O % & : U ~ o...k.X.=.h.o.Q wXcXgXgXzXbXdXsX4X(.!.(.",
"5 A.Y.H.%XsXfXzXkXkXcXcXrX1 & : 4 x.*.{ f.&.4 +.L $ $ $ % % * % = = = @ + + @ + + 3  ._ =.o.;.+.=.;.{ W wXcXzXgXlXvXkXzX=X XQ.J.",
"C.A.F.F.%XsXzXgXzXvXhXhXwXw L L ! &.} %.n.q.< [ h.3 : > , > 3 < 4 4 J > U Q 3. .9.z._ _ +.| j.=.r.h.X.Q rXlXzXgXzXvXkXfX=X~.~.Y.",
"F.C.F.K.2XsXfXzXkXkXhXbXeX3 { %.#.#.&.z.b.( 4 ' h.M.o...I *.y.=.g.=.( < u.q.l.@.o.{ ( ( f.| k.0.r.w.| Q wXAXfXgXlXvXbXsX4XT.!.~.",
"F.A.I.8 #XsXkXgXkXkXbXvXqXe T | o.} j.N.p.( 4 ] [ j. .} G #.&.#.l.%./ < r.w.t.=.' ..( ( -.$.5.q.p.h.X.Q rXcXgXgXzXvXcXaX|.J.~.J.",
"H.Z.7 Z.{.sXzXdXkXzXvXmXjXw I | ] t.n.z.0.! 2 X.#.w.r. .P ..&.=.p...Q < -.q.y.%.' { ( T -.1.N x 3.h.{ ,.tXcXzXzXzXkXzXfXW.A.T.J.",
"Y.D.0 G.{.sXgXzXkXkXvXmXxXw I ' =.v.*.9...! < ] k.&.f.9.K e.&.*.p.../ < O.q.r.=.' #.! 9.o.1.M 1 2 w.X.,.tXcXxXzXzXbXkXsX}.H.S.H.",
"F.0 0 9 #XsXzXgXzXkXbXmXsXw I o.y.l.[ 9...( 2 X.*.&.*.u./ l.$.*.e.=.Q < *.q.i.%.' | ~ ( ] 2.N y L h.{ ,.yXcXzXzXzXbXkXaXXXH.H.A.",
"5 7 D.H.XXpXgXzXkXvXkXkXsXw U o.l.y.'  .0.h.2 o.#.j.O.{ / i.$.v.i.i.K < -.a.r.%.' o.~ 9.] q.N 1 Q p.@.,.uXxXzXgXzXbXzXaX3X(.!.^.",
"F.H.J.Y..XsXzXgXzXvXkXxXsXw I @.k.=.| 9.x.h.2 X.#.w.X.( E 0.&.v.p.f.Q 2 *.i.+.%.' @.I ( ] i.N - K y.@.,.uXcXzXzXzXzXhXfX=X~.Q.!.",
"C.F.U.!.}.dXgXzXdXvXzXlXpXw U -.c.*.[ e.n.h.2 X.} j.o.~ E 9.k.*.b.b.L 2 -.i.| %.[ O.I ( ] i.j ; Q l.+.,.uXcXzXzXxXvXkXaX}.~.T.~.",
"G.Q.H.W.XXlXzXgXzXvXzXdXxXq ! =.V.&.X.c.b.( Z { #.t.o.U D -.k.s.V.v.K A v.h.| %.t...I } R 5.; @ U g.e.,.tXcXzXhXzXkXkXaX`.~. X`.",
"7 W.~.^. XkXzXgXzXbXbXdXlXw P r.B.#.| N.j.' H { | i.o./ E f.e.N.V.v.G A f.h.X.| y.e.! } @.L @ @ 2 h.&.,.uXcXcXzXcXzXkXaX*X~./.Y.",
"D.L.!.K.}.lXzXgXvXdXbXhXlXw ! r.b.#.+.N.%.' K ..[ t.o./ ) O. .N.V.y.K P r.j.|  .=.l.P [ o.q.1 , 4 ;.=.,.uXcXzXzXzXbXkXCXXXY.(.I.",
"H.I.L.5 W.gXgXgXbXkXvXaXlXw G *.N.=.e.x.$.' K +.#.i.o.P E ] t.x.B.*.K I y.j.+.%.%.b.~ ' O.f.9.9.9.;.y.,.uXcXzXhXlXzXzXaX/.A.!. X",
"P.F.G.F.c yXzXgXkXkXcXhXxXw P O.x.| %.x...X./ +.$.j.+.P K O.i.s.x.#.D ~ y.j.X.t...w.! ..&.y.@.g.=.k.u.,.uXcXzXkXxXkXbXgX XI.H.).",
"T.D.H.C.K.fXzXgXzXvXvXaXxXw G =.B.%.%.N...X.3.X.#.j.+.P K O.y.N.z...G I y.j.o.e.r._ ) @.q.2.[ y.&.j.e.,.uXcXkXgXzXbXbXBX_.(.T.).",
"Q.Q.Z.F./.sXzXzXkXvXgXhXxXk K =.b...%.N.#.X.U +.%.j.o.P E ] k.b.i.+.G ~ *.z...} y.#.I >.p.$.| y.} j.=.,.uXcXzXgXlXzXbXeX_.H.Y.T.",
"5 E.6 H./.fXcXzXkXcXaXvXnXw K &.b.e.%.x.e.T ! %.0.j...D P =.h.b.w.X.P } $.b...} =.t.P i.v.%.=.t.} k.o.,.sXcXdXgXzXkXvXiX!.T.U.).",
"5 D.H.H.W.sXzXzXkXkXlXxXsXw G O.k.%.%.c.e.I ~  .e.l.+.G ! *.k.z.w.X.F 9.%.l.%.%...k._ x.q...y.#.%.k.| ,.uXvXgXhXzXvXkX4XR.&XP.Y.",
"Y.Z.L.Y.^.aXzXzXcXMXmXvXyXw P O.v.&.e.x.r.I ! ..i.z...G P *.w.l.$.+.F { e.p.t.} ..t.$.&.} p.e...i.;.{ Q uXMXzXhXlXkXvXVXR. X_.E.",
"Z.6 Y.I.}.sXsXlXcXmXmXmX2X1 U i.v.[ %.x.u.I P  .p.l.+.D P O.w.l.w.+.P U t.t.y.| | k.( ( %.l.#.=.y.} %.W rXcXkXbXcXkXdX2X!.!._.W.",
"6 Z.!.H.^.qX7X9X9XwXrX9XC j <.6.c.o.&.x.l.I !  .g.j...D P X.i.w.t.@.P P t.e.p.%.| l.( _ l.=...l.%.} r.W C 8X8X7X7X;X:X.XH.U.P.9 ",
"Z.Y.~.L.[.AXsXwX8X@X+XOX+XB M N 5.o...x.p.I P } f.j.+.K D +.k.%.w.@.U P %.%.l.%.| i.! q.l...t.y.} &.i.,.7X5X+X:X7XrXpX2X).T.!.!.",
"7 H.!.L.eXJXDXSXkXxXxXgXrXM d d ,.] ..z.i.I P | z.j.@./ D X.h.+.*.o./ F =.$.z.e.] c.P i.l...z.*.$.*.( ,XLXLXJXGXHXFXFXMXeX_._._.",
"T.U.A.$XJXzXgXzXxXkXxXzX0Xj d u ,.o.+.v.i.~ P | x.p.v.) J -.5.r.[ %.( H =.e.z.w.] s.D i.l.#.v.#.e.+.P 7.xXcXvXgXkXkXkXxXyX_.R.).",
"!.F.H.XXbXcXzXzXxXcXkXgX9Xj u y <.+.Y b.z.' / | x.i.g._ S X.w.s.[ +.( H =.w.x.t.*.c.A w.j.=.p.| i.o.K 4.yXlXvXzXzXcXdXpXeX_.I.S.",
"A.7 F..XsXzXzXzXcXcXkXfX:Xh y - e q.X.p.x.~ U #.x.p.f._ S { w.z.[ +. .H *.=.N.y.*.a.A q.l.*.u.[ l.o.G z jXxXkXfXfXcXzXdXBXY.6 S.",
"C.Z.Y..XeXsXsXsXsXsXpXyX7X- & & W $...i.x.} K =.N.i.p.$.4 ' +.x.#.+.} J y.+.N.*.y.9.A q.i.y.t.&.p.o.P l uXjXpXsXtXpX0XwX2X9 S.Y.",
"J..XXX.X.X:XV V C +X;X@XV & + , 2.@.+.y.b.} P =.b.q.v.w.S ~ @.z.*.u.} H t.=.N.*.t.( D q.i.y.e.*.z.| G 1 oX+XC +XV V ;X{. X{.3XW.",
".XcXHXSXaXtXwXtXcXDXNXdX;X& < 1.j.=...q.V...K i.N.#.z.h.S I X.x.l.z.q.H | *.x.*.q.( D q.p.p.e.*.f.*.K q jXrX7X>XtXxXzXCXSXDXDXeX",
"#XGXLXFXFXFXFXFXFXDXDXAXyXl 2 ..b.k.] i.V._ H c.b.*.z.t.F P #.l.n.i.z.A ~ [ f.f.y.^ D _ z.y.*.+.*.*.E :XAXKXMXmXLXLXHXSXDXFXLXaX",
"$XlXbXcXkXxXzXkXlXdXfXcXaXC < Y g.c.2.0.n.2.Z 0.b.2.m.z.D P O.j.M.a.d.! / u.s.5.i.X.F o.i.q.c.2.h.[ 1.iXxXxXMXHXAXxXzXzXgXbXkXwX",
"$XuXzXzXcXzXkXkXkXxXcXmXnXC : T p.4.g / n.N.H I 8.C j m.L F d.,.c z w.K U m.4.k 3.9.K ] f.1.7.p 2.+.,.pXnXxXkXbXlXxXxXgXdXkXdXtX",
"|.uXcXcXcXzXkXzXcXlXZXnXnXC + K 2.6.L P 2.5.< < 3.:.:.g.< Z | ) 4 q.*.F Y d.,.e h.X.< I *.( <.W r.X.z rXmXnXcXgXcXkXcXgXdXdXpXwX",
"{.uXcXxXzXzXzXcXzXgXdXnXpX+Xq z z b b N b l g g x <.4.<.l v 4.7.7.8.,.l z 4.4.x z <.e e e z b <.,.W q qXmXcXvXhXzXvXzXgXdXbXdXwX",
"[.rXsXdXsXdXsXgXsXdXiXsX8X+X+X7X:X:X@X8X9X{.{.@X7X1X5X5X7X8X7X7X5X5X6X5X%X:X7X8X7X@X:X7X7X5X:X%XoX;XV 6XmXMXgXgXzXvXbXhXdXdXgXeX",
"D.{.1X2X2XqX2X1X1X1X2X6X%XK.D./.5 Z.Y.Q.P.P.G.G.E.I.E.!.Y.Y.H.(.Y.K.Q.9 L.Y.`.^.U.7 ~.).!.}.4X`.H.U.L.2X2XCXCXiXeXBXeXwX2XeXeX X"
};
