/* XPM */
static char *_646082100590[] = {
/* columns rows colors chars-per-pixel */
"64 64 256 2 ",
"   c #111317",
".  c #1C3014",
"X  c #28390C",
"o  c #2B3315",
"O  c #2A3A19",
"+  c #0B192C",
"@  c #0F2D35",
"#  c #3B2624",
"$  c #3D2926",
"%  c #392A28",
"&  c #2C3B29",
"*  c #353925",
"=  c #38313A",
"-  c #552E1D",
";  c #432A26",
":  c #4A2D28",
">  c #532826",
",  c #4A312B",
"<  c #54332A",
"1  c #5B352B",
"2  c #59372B",
"3  c #482D36",
"4  c #463836",
"5  c #563B36",
"6  c #60372C",
"7  c #643A2D",
"8  c #6B3D2E",
"9  c #713F2F",
"0  c #683D34",
"q  c #324512",
"w  c #374919",
"e  c #3D541A",
"r  c #2D4124",
"t  c #3A4727",
"y  c #3E5325",
"u  c #3A4637",
"i  c #424C1E",
"p  c #42581A",
"a  c #464B2B",
"s  c #455527",
"d  c #464A37",
"f  c #5C473A",
"g  c #4B5735",
"h  c #585638",
"j  c #6E402F",
"k  c #73412F",
"l  c #684638",
"z  c #744231",
"x  c #7B4632",
"c  c #7D4934",
"v  c #764A3B",
"b  c #67533C",
"n  c #76523E",
"m  c #7B643D",
"M  c #13354B",
"N  c #33384A",
"B  c #0C386A",
"V  c #493846",
"C  c #653D44",
"Z  c #344A52",
"A  c #1A4C60",
"S  c #164C6B",
"D  c #184977",
"F  c #1A5679",
"G  c #31526B",
"H  c #26597A",
"J  c #29647B",
"K  c #3A687B",
"L  c #4E4F4E",
"P  c #574746",
"I  c #595658",
"U  c #654A46",
"Y  c #685549",
"T  c #775546",
"R  c #715456",
"E  c #566354",
"W  c #656458",
"Q  c #746752",
"!  c #4E556C",
"~  c #6B5769",
"^  c #576269",
"/  c #49677A",
"(  c #566776",
")  c #487071",
"_  c #79686A",
"`  c #6D7172",
"'  c #834B34",
"]  c #824D37",
"[  c #8A4D35",
"{  c #8C5136",
"}  c #88533B",
"|  c #935436",
" . c #94573A",
".. c #9B5B3B",
"X. c #A25E3B",
"o. c #9F603E",
"O. c #A8623E",
"+. c #B0683F",
"@. c #865847",
"#. c #8C5B4D",
"$. c #886747",
"%. c #9A6445",
"&. c #906856",
"*. c #A86844",
"=. c #B36C44",
"-. c #B86E44",
";. c #BB7549",
":. c #BA754A",
">. c #AF7456",
",. c #935B6F",
"<. c #8E7371",
"1. c #AA796D",
"2. c #C37B4B",
"3. c #C4794A",
"4. c #C27E50",
"5. c #5E857B",
"6. c #7A8578",
"7. c #8F8675",
"8. c #A39F67",
"9. c #AF8C73",
"0. c #CB824E",
"q. c #C58253",
"w. c #CB8553",
"e. c #CD8B58",
"r. c #D18A55",
"t. c #D28E59",
"y. c #D4925D",
"u. c #D9975E",
"i. c #D59661",
"p. c #DA9B64",
"a. c #D99C67",
"s. c #CD8F70",
"d. c #C6897D",
"f. c #E6927C",
"g. c #DDA36C",
"h. c #DEA772",
"j. c #C5B77E",
"k. c #E1AC77",
"l. c #E2B17D",
"z. c #D7C07F",
"x. c #1C5B84",
"c. c #1C5988",
"v. c #195E90",
"b. c #235B83",
"n. c #265B88",
"m. c #335C88",
"M. c #1C6593",
"N. c #286687",
"B. c #23628D",
"V. c #2B638D",
"C. c #356789",
"Z. c #3B738C",
"A. c #246593",
"S. c #2B6493",
"D. c #296A98",
"F. c #356A95",
"G. c #2D729A",
"H. c #377499",
"J. c #2F74A7",
"K. c #3474A4",
"L. c #387BA7",
"P. c #486C88",
"I. c #487289",
"U. c #557387",
"Y. c #526A92",
"T. c #477898",
"R. c #567B96",
"E. c #687886",
"W. c #6D738B",
"Q. c #447BA6",
"!. c #557DA6",
"~. c #767BA3",
"^. c #90738D",
"/. c #997296",
"(. c #3C8198",
"). c #3B82AA",
"_. c #3C85B4",
"`. c #4B8398",
"'. c #56859A",
"]. c #70878F",
"[. c #678699",
"{. c #788A99",
"}. c #4684A9",
"|. c #5788A8",
" X c #5A92AB",
".X c #448CB5",
"XX c #4989B6",
"oX c #438CBC",
"OX c #578CB5",
"+X c #4793B8",
"@X c #4C93BC",
"#X c #5796BA",
"$X c #648AA8",
"%X c #6C91AE",
"&X c #7596A9",
"*X c #6497B9",
"=X c #6AA1BF",
"-X c #3F8EC5",
";X c #4D8CC1",
":X c #4C93C2",
">X c #4998C6",
",X c #4D9CCC",
"<X c #5595C6",
"1X c #549BC4",
"2X c #5C9CC4",
"3X c #539DCC",
"4X c #5B9DCC",
"5X c #469FD1",
"6X c #4D9ED2",
"7X c #549DD3",
"8X c #579DD4",
"9X c #619BC6",
"0X c #609FD0",
"qX c #49A3CA",
"wX c #4DA2CC",
"eX c #56A2C3",
"rX c #53A1CC",
"tX c #5BA2CC",
"yX c #46A3D6",
"uX c #4CA2D3",
"iX c #52A2D2",
"pX c #56A3D7",
"aX c #63A2CB",
"sX c #4DA3E0",
"dX c #868787",
"fX c #919293",
"gX c #AF8F8F",
"hX c #B3AB9D",
"jX c #8697A6",
"kX c #8B96AF",
"lX c #959CA7",
"zX c #97A3AA",
"xX c #92A9B7",
"cX c #B0AFB0",
"vX c #C89489",
"bX c #D2938D",
"nX c #D89688",
"mX c #E69788",
"MX c #E9958A",
"NX c #E3B582",
"BX c #E6BB8B",
"VX c #C4A7A3",
"CX c #B7C0BF",
"ZX c #C6C4BE",
"AX c #9CBBCA",
"SX c #B2BBC6",
"DX c #B7C8CF",
"FX c #BBD7E6",
"GX c #CCCED0",
"HX c #D7DAD9",
"JX c #E2DCD6",
"KX c #CDDBE2",
"LX c #DBE5E8",
"PX c #CEE6F1",
"IX c #EEF0ED",
"UX c #F6FBF8",
/* pixels */
"NXk.u.k.NXg.a.NXNXp.k.BXNXa.k.BXl.a.l.BXh.a.NXBXh.p.NXBXh.p.NXBXg.g.NXNXg.u.l.NXg.y.k.l.g.r.k.l.a.r.h.l.u.r.g.k.u.w.g.h.u.0.u.g.",
"k.g.r.h.l.i.y.NXh.y.a.NXk.r.h.BXh.t.h.BXg.t.h.BXg.t.h.NXa.t.h.NXp.r.k.l.u.r.k.l.y.w.g.l.u.0.g.h.u.0.g.h.t.0.a.g.r.0.u.g.e.q.u.p.",
"h.i.2.a.h.t.4.h.f.t.t.k.g.w.a.k.g.q.h.h.a.0.g.h.p.w.h.h.i.2.h.h.t.q.g.h.r.2.g.k.y.0.g.g.e.;.g.g.e.0.u.g.t.q.y.g.w.+.p.p.e.+.e.u.",
"a.t.3.i.g.r.4.g.g.2.e.g.a.;.y.h.i.;.i.g.t.;.a.h.e.:.a.h.e.q.a.h.w.2.a.g.w.3.a.g.q.;.y.g.q.;.y.g.q.+.y.u.q.O.y.u.q.+.t.y.q.O.w.y.",
"i.r.=.e.i.4.-.i.i.;.4.a.i.=.e.g.t.=.t.g.e.=.y.s.9.1.9.9.7.<.9.9.9.>.u.p.;.=.y.a.q.+.y.g.q.O.y.u.q.O.e.u.q...0.y.:...q.y.:. .q.r.",
"y.q.o.e.y.;.*.i.y.*.;.i.e.O.;.a.q.o.e.g.q.%._ ` ].{.jXjXjXjXjXjX` I Q 9.>.O.y.u.=.O.e.y.=...e.y.=. .q.y.+.| q.r.-.| q.r.+.} q.0.",
"r.2.| ;.t.=.%.t.t.%.*.i.w...>.a.q.| q.s.7.].].( ( {.jXkXjXjXjXjXjXW.! ^ <.&.e.y.*...w.e.*.} q.r.+.{ q.r.O.{ q.w.O.c q.0.O.c +.0.",
"w.;.] ;.r.o.[ 4.w. .*.t.4.} -.u.q.] >.7.fXjXjX{.{.jXjX&X{.{.].^ L ` I ! ` ].<.9.%.{ q.w.O.m q.w.%.c q.0.%.c :.0.%.c +.0.%.j +.0.",
"q.-.x =.2.%.] q.q.} %.w.;.c *.t.;.m <.jXjXjXkXjX` ^ E.^ ` G L &   . r Z Z E L E T } 2.w.%.Y 9.q.%.n =.0.%.j ;.2. .j =.2. .8 *.2.",
"3.*.9 *.2.| x 2.2.c  .w.;.x *.r.>.` &XjX{.].W.^ u . & & u r r e q q q q O r r q s h $.$.h y g m b b *.0.| 8 =.2.{ j +.0.} j +.;.",
"3.*.7 *.2. .j :.3.x } 2.;.0 %.2.7.6.6.].E r t e y y w * s e e p e p e y w t y e p s s p e w y y h n =.q.} l %.;.} j O.;.{ 2 O.-.",
";.O.2 *.;.{ 8 :.3.k ] 2.=.0  .&.E u Z g y w e e q e e q e e p p q w w e y w y s p p p p p p e e s h m T b P $.;.] 2 O.+.] < O.+.",
"-...2 @.%.n 0 :.+.j c 0.=.j b a s t O a e w p g g y E g w X e t * t d r t w s q w e q e e e p e p e y a u Y %.-.' 2 O.+.c < o.+.",
"=...2  .$.b l %.=.l b >.$.g s s s i * s a y g 7.W u ` L L t L W P ].fXE u P ` 6.r r . q q q e e e e q X o t E &.c < ..+.c < ..O.",
"*. .< | =.v d d h s g s y p w q a h d W 6.d W 7.E 7.fX6.cX5.cXzXfXHXLXDX].fXfXGXcX6.E u E w r q O O q X X . d &.c < ..O.x 2  .O.",
"X.[ < } =.] P a w s y y s y . q d h L 7.6.I ZXGXhXJXZXZXHXGXHXDXCXDXcXcXlXzXlXSXDXDXDXfXzX7.W $.2 . O O X * } O.c 2 ..O.x 2 | ..",
"X.} 5 T Q b a s p i q i p q . O b 5 Y fXSXcXJXJXJXGXGXcXzXzX{.[.|.%X X|.|.!.|.|.|.$X%X{.xXZXcX1.v % . X X a %.X.x 6 | X.k 1 | ..",
"..' , T T h i e i p q w w O & a b : } gXJXJXHXDXjXE.^ G G C.T.<XrXoX.XL.L.L.J.L.L.T.Y.G Y.$X&XdXR P r X X r b %.x 1 | ..9 : [ | ",
"| ' ; x ..n s q i q X X O * P Y c ; ' >.cXzX{.].I.I.T.F.D.Q.D.H.}.C.B.b.c.n.b.B.D.F.C.S Z.#X:XOX'.( Z O X t f T U , } ..7 : ' | ",
"[ ' ; 9  .n a w O X X X o * n  .] 4 R W.|.$X#X=X*X*X9X@X).tX<XG.H C.Z.C.C.S.F.Q.Q.F.m.F F G.;X<XeX#XR.A & d } ..0 : ' | 7 ; ' | ",
"[ z ; k } b d X . o O O O = l #.I ! |.OX9X4X1X#X X*X X`.T.9XeXeXG.x.x.B.N.A.D.D.n.H.OXOX!.m.Q.;XpXiX4XR.@ u Y @.7 ; ' | 7 : ' [ ",
"' z ; 0 @.f P & . O f b 4 P I ! J m.@XtXtX#X*XAXKXPXFXxX'.'.1XpX@XL.A.N.J N.N.F.Q.XX!.Y.Y.m.T.;XiXuXwX XZ u T } 6 ; x [ 7 : ' ' ",
"' 9 $ 8 ] l a o . o f @.L ( Y.C.J V.@X0X#X*XPXUXUXUXUXIXKX&XT.@XwX3X@X(.(.#X2X2XOXm.! W.W.W.! Y.<X8X8X%X! P T ' 1 ; z [ 1 ; 9 ' ",
"x 8 $ 7 ' l d & o * 5 T ^ }.XXD.V.D.1X9XOXFXUXUXUXDXcXIXUXKXI.).wXiX@XA M }.tX9XY.Y.^././.^.^.W.Y.*X9X$XP * l ' 1 $ 9 ' 1 # 9 ' ",
"x 0 $ 7 ' 0 P d o , Y ` OX8XoXD.c.D.6X<XR.FXUXUXIXzX7.IXUXIX&X}.3X4XH.@ + P.4XOXY./.,.~ R ~ <.W.! Y.*XW.5 # 9 ' < $ 9 x < $ k x ",
"x 0 $ 7 x 1 4 P 4 Z U.OXtXiX:XM.M.;X8X<X|.xXHXJXJXHXLXUXUXLX&X#XQ.#XG + + K 2XQ.Y.^.,.gX/.R ,.,.~ P.$XW.2 $ 8 ' < $ 9 ' < ; 8 x ",
"z 0 # 6 x < 3 T Y Z '.rXrXiX1X)..X,X3X3XOX'.xXDXAXDXDXKXLXAX'.OXQ. XM +   N OX|.W.~ ^.VXgX^.~ ^.^.Y.*XW.5 % 9 z < $ 7 x < $ 8 z ",
"9 7 $ 2 z > ; U ^ H `.1XoX,XeX1X:X3XiX7X1X`.) &XxXxXxX&X&XR.F.H.}.T.@     M |. XW.~ R R ,.^./././.Y.<X$XP $ 9 9 < # 8 9 < ; 8 z ",
"z 7 # 1 z < 4 E.#X@XT.H.L.8XuXrXtXrXiX>X}.Z.I.I.P.T.T.'.Q.F.A.F.`.K +     M !.9X!.~./.^./././.W.Y.OX<X2X( ; 0 x < # 8 z : $ 7 9 ",
"9 7 # 1 z < I $X8X1X+X}.;X8XrX>X>XiX6X,X>XH.C.H.H.F.C.G.F.G.}.N.H.A       + T.aX4X!.Y.W.W.W.U.! OX,XwX8XR.3 7 9 - # 8 z < # 8 9 ",
"9 7 # 1 9 < I $X,XL.L.@X3XpX3XJ.-XiX6X,XoX_.}.+X,XoX_._.+XeX+Xx.Z.M       + Z.pX8X3X#XOX|.$XQ.V.@XuXyXuX|.L 7 k : # 7 k < # 7 9 ",
"9 6 # 1 0 5 ^ |.>XL.+XL.>XpX:XG.>XuX6XrX_.>XiXuXyXyXuXwXrXrX.Xx.Z.M     + + I.tX8XiXuXwX3X4X;XD..X8X7X8X*X^ k k : # 7 9 > # 7 9 ",
"8 7 # 1 9 W R.#X,XG.H m._.pX;XK.3XrXpX@XL.6XuXyXuXuXuXuXwXwX_.L.}.M M / G M T.4XuXuXyXuX7X8X3XK.S.;X<X4X|.I U T : # 8 9 > # 7 9 ",
"9 1 # < z ^  XwXL.G A D ).pXXXG.tX#XXXL.oXuXpX6XuX7XiX6X3XrXwX1XeXXX}.1X#XB.H.1XqXqXuXuX6X7X7X1X.XS.OX9X'.f 8 #.Y ; 7 8 < # 8 9 ",
"8 7 # 1 9 U U.#XF.S H H ).qX.XB.}.L.L.XXpXuX5XqXrXrXtX,X6X6X6X,XrXwXuXyXqXqX@XqXqXqXwXuXuXuXuXuXuX}.!.!.$X_ @.] _ R v 0 : # 7 k ",
"9 7 # 1 v ~ '.#XH.D H N.+XqX.Xn.b.L.<X8X7X6XyXwXrXwXuX7XyX6XyX6XrXrXwXuXuXiXuXqXwXwXuXqXuXuXuXyXpXXXH G xXGXGX^._ _ &.T > # 8 k ",
"9 7 # 1 R '.#XeX@Xx.b.F H.>X1XK.B.n.A.L.3X7X5XyXyXyXyXuXyX6X6X6X7X7X6X7XiXpX8XyXyXyXyXyXuXiXwXuXiX}.S / FXLXLXHXlX_ &.@.f % 0 9 ",
"9 7 # 6 T E.'.}.wX).F H H H.4X:XK.S.n.n.Q.4XiXuXyXyXyXiX3X4X4XtXwXtX3X<XtXeXrXtX3X3XqXuXuXuXuXwX3XH.G [.SXGXHXHXcX~ T n Q P 9 z ",
"z 7 $ 1 x C L ` +XeXH.H n.n.:X7X,X).G.V.n.F.#X<XtXrX1X#XOXOX!.*XT.I.P./ / P./ P.R.$X#X1XtXiX7X7XXXH G {.lXlXzXcX^.~ #.x Y ~ v z ",
"z 7 # 6 9 < ; Y E.'.|.Z.F x.:XiX7XuX>X;XQ.S G / P.U.%X&XG N fXGXfX= V 5 3 , = 3 V L {.&XP.H.!.K.C.K ( jXlXlXlXlX( ~ dX&.U I #.x ",
"z 9 $ 6 x < ; x T E.'.#XXXK.+XeX3XyXsXyXtXP.= = = ` KXJX~ % ,.GXgX3 > > > > > > 3 C GXGXL N N N C.U.( zXlXlXkX^.~ W.lXzX]._ #.x ",
"z 8 $ 7 x 1 ; 9 x P '.9X9XL._.wXwXiXuXyXwX|.N 3 = <.IXIX<.5 T ,.V , ; > 0 v v 0 > V fX/.5 , = K |.P./ jXlXkXkX~ ! /.xXjX` W v x ",
"' 8 ; 7 ] 2 ; x x 5 ! R.H.G..X>X,X3XwXyXyX#X! % V <.VXVX9.vXvX1./.#.0 &.1.bXnXd.<.U 3 > - * ! #XeX XP.{.zXlXW.C _ jXdX&.P $ z x ",
"x 9 $ 7 ' 1 ; x ' < ! H F }..XL.,X3X3XyXyX3XY.V 1.vXd.s.mXmXnXMXMXbX1.#.1.4.mXmXMXgX#.> > N |.<XtX9X|.[.zXW.I ! ( ~ n ' 1 ; 9 ' ",
"' z ; 7 ' 6 ; ' ' 5 Z m.J |.L.v.:X8X7X5X5XrX|.! gXnXMXMXMXmXMXMXf.MXnX=.*.MXMXf.MXnXnX#.> N !.8X8X3X|.I.` L P R Z L x [ 1 # z ' ",
"' z $ j [ 6 : ' [ C ! n.J #XL.F K.8XpX6XqXwXtXR.^.bXMXMXMXMXmXf.f.mXnXmXf.MXMXf.f.mXmXd.C Z %X;XoX_. XG P , '  .I L } { 1 ; z [ ",
"[ z ; j { 7 : ] [ P K N.x.+X).x.F XX8X:XL..X3X#XW.fXvXvX9.gXnXnXnXgXd.nXMXMXMXf.s.nXnXgXP G *XQ..XK.'.L C ; [ | C G R { 6 $ ' [ ",
"{ x ; z | 7 : [ { R m.S.x.).@XA.S B.3XtX}.F.XX8X<X].7.<.cXVX9.nX1.9.gXvXbXMXbX/.VX1.vXgXZ Y.Q.XX}.Q.R.V C 3 [ ..C N ~ ..7 ; ' [ ",
"| ' : k | j : {  .I V.G.B.A.}.XXN.F ).3XeX.XL.:X3X*X[.( SXSX<.dX<.GXZXgXgXgX1.fXGX<.^.W.Q.<XL.XXH.R.W.R C < [ ..j N ! #.0 # ' | ",
"| ' : x ..j < | %.^ D.D.S.S.K.L.}.).G.oXwXeXK.L.eX2X9X#X$XR.P.P.I.$XE.U.E.W.` ].{.E.R.9X7X,XK.F.!.( #.@.C 5 { X.z 4 Z ,.9 > [ | ",
"..[ < x ..k 1 ..&.R.Q.M.A.G.<X}.J (.@X+XwXuXJ.M.+XeXeXeX1XeX3X3X1X1X1X#X<X2X2X<X1X#X2X4X8XXXT.@X!.I O.@.C 2 | X.z 4 ! R 9 : [ X.",
"O.{ < { *.n U &.<.#X:XD.M.L.7X7XN.F L.>XpXuXoXn.G.#XeXeXrXiXsXpXiXiXuXwXiXrXqXyXpX7XiX3X<XF.|.XXK C %.C v 2 | +.x 5 ! R v > | X.",
"O.$.Y _ 6.'. X XT.;X6XJ.M.L.8X8X).S F L.uXtX XK G J (.@XeX1X>X1X@X+X+X+X+X+X>X1X7XtX#X`.Z.Z.}.H G R U T n < X.+.x 5 I ~ v > ..O.",
"{.[.$X*X#X#XwX1XL.;XsX-XK.oX7X7X>XB.J v.L.eX'.5.` L Z J V.B.n.N.J x.F J x.b.B.V.H.C.Z E L ) n.J G Z N R @.7 O.+.] 1 ! R ] > ..+.",
"1XqXqXwXiXiXpX6XK.<X6X6XL.Q.6X7XpXK.H V.A.T.5.8.l.8.r A N.A.G.G.L.)._.)._.K.D.N.J @ W j.8.t G N.m.C.Y.R.E.^ <.>.@.C ! &.{ 1 O.+.",
"qX5XqXyXuXiXpX7XK.<X7X7X-XoX6X7XpXoXF n.S.H 5.6.8.6.G Z.).oX>XwXrXrX3XtXtX7X_.G.J r 6.j.7.u G C.H.Q.4X8X3X<X%X{.W.N G >.| 8 O.-.",
"yXuXuXuX>X>XoX:XH.#X3XiX>X6X>XyXiX1XG.b.S.N.J `.5.'.#X6XiXuX1XrXwXrXrXrX,X3X3X,XoX'.].E L G G H.H.}.tX3X6X8X8X;Xm.B F.^.&.v *.2.",
"wXrXuX-XJ.J.L.@XH.<X3X3X6XuXiX6XyXrX}.b.S.S.M.x.+XpX6XyXyXqXqXqXuXuXuXuXuXiX6X5XuX8XOXm.K F H H.L.}.tX<X<X;XK.D B K.8X4X%X$XE.1.",
"3X.XJ.M.D._.3X>XG.>XrXuX6X>XoXiXyXrX<XS.S.A.M.v.M.-XsXsXyXyXqXqXyXuXyXuXuXuX6XuXqXiXL.x.V.F n.Q.}.}.9XOXF.D B D J.7X7X6XpXrX2X*X",
"H.c.v.M._.6XpX,X).>XwXyXuX:XJ.+XiX7X8XL.n.A.M.D.n.n.L.6XpXuXwXuXqXuXwXuXuX3X7X8XtX).F J J D m.Q.Q.C.H B B D F.oX8X6X6X7XiXrX3XrX",
"F x.A._.rXuX6X5X>X,XuXuX8X;XD.L.#X3X7X3XG.F A.A.C.H b.A.K.Q.:X,X1X>X3X,X:XXXXXQ.S.H H J S F V.}.C.B B n.K.;X0X,XwXrXiXrX3X3X2XeX",
"V.S.H.@XrXuXyXqXqXqX,XiXiX:XG.S.XX8X7XwX_.N.b.S.N.N.V.V.n.b.n.n.A.S.A.n.b.c.c.b.n.V.N.H F M.D..XH.L.XX<X8X6X>X;X;XoX@X1XiXrXaXfX",
"A.G.>X,X,XuXuXyXuXuXuXuX7X:XG.S.C._.rXwXqX+XA.b.N.B.B.D.D.S.S.n.B.A.M.B.B.A.A.D.G.F.n.D x.M.J.+XL.#X3X3X6X6X>X_.G.n.F b.G..X&XfX",
"D.L.3XrXuXiXiXiXuXuXyXuXiX:XG.S.J x.qXpXiXtX@XS.H S.A.D.D.D.D.D.D.A.A.M.A.J._.oX>XL.D H V.D.oX>X(.>X7X6X6X7X6XtX@XL.C.D A F I.[."
};
