/* XPM */
static char *_646084076309[] = {
/* columns rows colors chars-per-pixel */
"64 64 227 2 ",
"   c #010000",
".  c #0B0001",
"X  c #00000C",
"o  c #0C070B",
"O  c #130101",
"+  c #1B0101",
"@  c #140B0D",
"#  c #1B090A",
"$  c #000013",
"%  c #0C0C12",
"&  c #01001B",
"*  c #180D13",
"=  c #181419",
"-  c #230201",
";  c #2A0402",
":  c #280908",
">  c #330A04",
",  c #360D09",
"<  c #2B100E",
"1  c #36110D",
"2  c #3B120B",
"3  c #2B0D10",
"4  c #271518",
"5  c #381717",
"6  c #070423",
"7  c #1B1824",
"8  c #171231",
"9  c #271B24",
"0  c #331B26",
"q  c #282227",
"w  c #37282C",
"e  c #2B2638",
"r  c #352936",
"t  c #39353D",
"y  c #46150D",
"u  c #491C15",
"i  c #5F002D",
"p  c #6F0238",
"a  c #462629",
"s  c #442F35",
"d  c #44363B",
"f  c #543938",
"g  c #3C3243",
"h  c #3C3943",
"j  c #35344D",
"k  c #7B0542",
"l  c #453A48",
"z  c #503F42",
"x  c #453E54",
"c  c #65314E",
"v  c #4D484E",
"b  c #574548",
"n  c #4B4554",
"m  c #45435C",
"M  c #4B455C",
"N  c #544A56",
"B  c #575459",
"V  c #614646",
"C  c #604E59",
"Z  c #494662",
"A  c #4C4A65",
"S  c #4C4D6B",
"D  c #534C64",
"F  c #5A4E64",
"G  c #534E6A",
"H  c #5A4F68",
"J  c #4E506F",
"K  c #53516D",
"L  c #5A5368",
"P  c #4E5170",
"I  c #545574",
"U  c #595775",
"Y  c #5A5A76",
"T  c #565778",
"R  c #57597B",
"E  c #5B5B7C",
"W  c #7A4C66",
"Q  c #675666",
"!  c #655469",
"~  c #6B5A6C",
"^  c #735C6D",
"/  c #655E77",
"(  c #735E71",
")  c #5F607E",
"_  c #6B656B",
"`  c #77686D",
"'  c #6C6776",
"]  c #63627C",
"[  c #756174",
"{  c #7B6376",
"}  c #796977",
"|  c #7F6678",
" . c #77737B",
".. c #850549",
"X. c #8C1554",
"o. c #8D1952",
"O. c #952658",
"+. c #973B6C",
"@. c #934F74",
"#. c #AA526C",
"$. c #806779",
"%. c #826B7C",
"&. c #87757B",
"*. c #917B7E",
"=. c #C87971",
"-. c #D28574",
";. c #5D5E81",
":. c #5E6082",
">. c #636384",
",. c #696A85",
"<. c #686886",
"1. c #6B6C8B",
"2. c #736D86",
"3. c #6F718B",
"4. c #777588",
"5. c #6E7190",
"6. c #727492",
"7. c #767894",
"8. c #797B95",
"9. c #7B7D9A",
"0. c #866F80",
"q. c #877786",
"w. c #8B7385",
"e. c #997087",
"r. c #927C8B",
"t. c #8F7F91",
"y. c #7D819A",
"u. c #89848B",
"i. c #968789",
"p. c #898595",
"a. c #82859D",
"s. c #988996",
"d. c #8F9098",
"f. c #9A9497",
"g. c #95949B",
"h. c #A38B9B",
"j. c #AF9192",
"k. c #A5939B",
"l. c #A9A08F",
"z. c #888BA5",
"x. c #8A8DA4",
"c. c #8E92A9",
"v. c #999AA5",
"b. c #9295AC",
"n. c #989BB3",
"m. c #B58CA1",
"M. c #A998A4",
"N. c #B29CA9",
"B. c #9CA0AF",
"V. c #9DA2B6",
"C. c #A7A4AB",
"Z. c #B4A2AB",
"A. c #BBA5AC",
"S. c #A4A7B9",
"D. c #A5A9BC",
"F. c #AAAEBC",
"G. c #BCA9B4",
"H. c #AEB2BC",
"J. c #B3B3BA",
"K. c #D5AF95",
"L. c #C6A9B7",
"P. c #C6B3BB",
"I. c #CBB5BC",
"U. c #D2CCAF",
"Y. c #E2DAB1",
"T. c #A8ACC2",
"R. c #ADB2C4",
"E. c #AFB4C8",
"W. c #B1B6C5",
"Q. c #B6BAC9",
"!. c #B5BACC",
"~. c #B7BCD1",
"^. c #B9BDD1",
"/. c #CCB9C3",
"(. c #D1BBC3",
"). c #D8BFC2",
"_. c #BCC1CD",
"`. c #BDC2D3",
"'. c #C2C3CA",
"]. c #D7C5C6",
"[. c #DBC5CB",
"{. c #DDCACC",
"}. c #C1C6D2",
"|. c #C5CAD5",
" X c #C5C9D8",
".X c #C5CBDA",
"XX c #C9CEDA",
"oX c #D9CAD1",
"OX c #CDD1D2",
"+X c #CCD2DC",
"@X c #D9D5D7",
"#X c #D1D5DE",
"$X c #E2CFC2",
"%X c #E2CCCD",
"&X c #E2D3CE",
"*X c #E4CED2",
"=X c #E5D1D3",
"-X c #E9D3D6",
";X c #ECD6DA",
":X c #E6D9DB",
">X c #EED9DC",
",X c #F0D7D9",
"<X c #F1DBDE",
"1X c #EBE0DB",
"2X c #CED4E2",
"3X c #D1D6E1",
"4X c #D5DAE5",
"5X c #D8DDE7",
"6X c #D6DCEA",
"7X c #D9DEE9",
"8X c #E9DDE2",
"9X c #F4DEE1",
"0X c #DCE2ED",
"qX c #DEE5F1",
"wX c #E6E4E9",
"eX c #F6E1E2",
"rX c #F8E5E7",
"tX c #F1EBEB",
"yX c #E1E6F2",
"uX c #E5EAF5",
"iX c #E8EDF7",
"pX c #E7ECF8",
"aX c #E9EEF9",
"sX c #F3EFF1",
"dX c #EBF0FB",
"fX c #F9F5F6",
"gX c #FAF6F6",
/* pixels */
"        . w U.;X).r.$.$.( $.$.%.i.Y.U.@XiXdXpX3X#XqXuX4X+X7X6XqXB.y.+XqX3X+XqXuXuX3X`.qX0XOX'.U.Y.U.l.` %.%.$.$.%.i.*X;X*XC .   ",
"          5 I.;X-Xh.$.^ $.( $.%.&.l.J.uXuXqXOX#XqXpXqXXXqX+X0X0Xy.y.V.qXuX4X XqXuXuX0X`.7X4X+XU.Y.U.*. .$.{ { { %.N.;X,X%Xb     ",
"          = L.,X,XG.0.$.( ( $.$. .v.0XuX0X|.+X0XuXuX#X0XqX+XuX7XB.`.V._.qXuX6XXX0XpXaXqXOX6XuXOXK.i.` &.{ { { { e.(.,X,X%Xb     ",
"          . j.,X9X).e.2.$.( $.$.d.3XuX4X'.|.+XqXuX4X3XyX4X`.uX0XV.+X6XW.|.qXuXqXOX0XaXaXqX+X7XqXJ.&.&.` { ( { %.h.*X,X>X).w     ",
"          . &.-X>X;XA.0.$.$.%.t.OXqX4X+X`.3XuXqXqX+XqX6XB.`.uXqXV._.qXuX6X+X0XuX0XOXuXuXiXyX3XqXOXu.| } { { $.w.L.<X<X,XA.4 .   ",
"            b $X9X9X*XM.w.0.t./.yX#X+X`.0XpXuX0X+X4XqX_.y.+XuXuX_.n.6XuXuXuX4X4XuX+XqXaXiXaXyX`.qX_.q.&.| | 0.k.*X<X<X;X*.# . . ",
"            w I.;X9X9X*XL.k.W.yX0X+X+XOXuXiX0X+X+XyX7Xb.c.+XuXpXqXV._.qXuXuXuX+XqX4X7XuX0XiXaX7XOXqXH.4.&.w.h.[.<X9X,X$Xb O . O ",
"            # i.,X9X9X9XoXXXqX0X+X0X`.uXiXiX#X#X+XuX`.F.`.+XuXpXuXqXH.`.pXuXuX4X7X7X7XuXOX3XaXaX5XOX0XC.p.N.{.<X9X9X,XN.4 . . O ",
"            O z ).9X9XoX#XuXyXXX0X|.0XiXaXqXOX4X4XpX`.XXyX#X3XyXuXuX4XF.qXpXpX4X4X0X7XuXuXOX7XdXaX3X+X0XQ.].>XeX9X<X{.b O . . . ",
"            O d G.*XoX#XuXuX#X7X0X+XuXaXdX#X4X0X7XuX+X0XaXiX7X3X0XuXuX_.4XpXpX4X4X3X0XdXaXyX`.uXaXaX3X+XyX+XoX>X9X-X*.* . . . . ",
"            4 B.XXJ.4XiXiX4X#XuXXX0XaXaXdX#XqX0X5XiX4XyXaXaXaXyX4X0XuX`.0XuX0X+X4X3XuXdXdXaX0X+XiXaXaX3X4XaX0X].;XP.d .       . ",
"          @  .4XXX7XaXaXuXXXyXyX#XaXaXaXuX#XuXuX3XyX#XyXiXaXaXaX0X+XuX4XqXpX+XOX3X0XaXdXqXaXuXOX0XaXaXiX+XyXaXyX'.'.d.*         ",
"          B +XXXyXaXdXaX5X#XaX5X0XaXaXaX0X+XaXdX4X+X+X4XaXaXaXaXqX+XqX3XuX0X`.`.0XuXaXaX4X0XaX0X+XaXaXaX0X4XaXaX0X+X4X_ .   .   ",
"        q H.+X4XaXdXdXaX#X5XaX#X0XaXaXiX2X`.iXpXuX^.|.|.yXaXaXaX0X+X3XqXqX_.+XOXuXdXaXdXqX3XiXiX+XyXaXaX0X#XaXdXdX4X4X_.w .     ",
"        ` 0X+XaXdXdXdXaXXXyXuX+XyXaXiXyXR.E.aXpXuX3X4X+XyXaXaXaX+X`.qXaXaXuXuX+XuXaXdXaXaX3XuXaX0X4XaXaXuX4XdXdXdXyX+X0X .@     ",
"    . q Q.5X3XdXdXdXaXuX|.uXiX+XuXaXuX0Xb.S.yXyXuX4X}.wXpXaXaX7X_.0XuXaXuXaXuXOX0XuXuXuXuX3XqXuX0X+XuXaXuX4XaXdXdXdX+X0XH.4     ",
"  . : Q 0X#X0XiXdXdXdXuX+XuXuX|.yXaXuX2Xy.z.!.~. XE.t.^.yXpXaX4X6XpXpXiXuX6X!.F.2X2X0X6X+X^.6XyX0XQ.0XiX0X4XaXdXdXiX+X0X|.q     ",
"  O < u.qX0X4XiXaXaXaXuX+XpXaX}.+XyX6XT.1.>.1.<.1.<./ t.+XuXpXyXpXuXuX6X!.z.1.7.z.7.z.z.7.5.b.T.R.n.4XiX0X5XaXdXaXiX+XyX}.q     ",
". O 4 C.qX0X4XiXaXaXaXuX+XuXaX Xn.4X~.7.>.U D E ;.T U ( v.7X4X~.~.~.T.z.5.>.G L ;.;.>.>.E I >.>.>.6.2XuX4X0XaXaXiXyX|.yXJ.=     ",
"+ - 5 C.uX0X#XiXaXaXaXaX+XyXuX2Xa.W.b.>.;.G ! H U ;.G ! 0.Q.n.6.3.1.1.>.:.R M G ;.;.E Y A K E ;.I 1.2XuX3X0XaXdXdX0X+XyXv.o     ",
"+ > 5 C.uXuXOXuXaXaXaXyX XuXpX2Xy.y.9.;.I F ( ~ K / G ( 2.t.6.>.;.;.;.;.E G F G T T K H ! K R I S 1.^.pX6X6XaXdXaX#X0XuXd.o     ",
"+ < u u.qXuX+X0XaXaXaXqX2XpXpX`.5.U ] T M Q Q Q F U F ( $.~ ;.;.;.;.;.T U H H I T Z N ~ ! K I A A <.n.qXyX2XyXpXpX#XqXpXC.%     ",
"O < a f.0XiX0X#XaXaXuX|.3XpXqXT.] M K A l l l z x M ! 0.( ~ U T P T T T F ~ L Y m l l l n A N Q L / 7.`.uXqX2XiXqX#XaXaXXXv     ",
"- 2 ` _.4XiX0X#XaXaXXXR.yXuX2X9.I h m m l B Q N r l F ( ( ! I S I ;.R S ~ ~ A A l N B g r t l ~ ! Y <.b.6XpX7X4XqX#XaXaXqXC.=   ",
"< b }.0X#XaX0X0XuX0XS.+XpXqXD.>.j e g K u.f.W c B v l N ( ! T S ;.R U ~ ( ! l D  .^ ^ _ _ h w v ~ K :.5._.pXuX#XyX#XyXdXaXqXd.9 ",
"5 g.wX5X4XaX+XyXuXQ.Q.uXqX.X7.R g = v  .Z.m.X.k @.u.v b ( ~ G I E E ( t.0.F N  .@.X...e.C.u.t t Q F :.1.V.qXpX#XqX0X#XdXdXaXqXg.",
"b XXiX4X0X4X3XpX0XS.0XyXqXT.<.m = w g.0XoX@.....O.G.g.v ( ( G I ;./ N.(.} N C./.O.....#.1X'._ 9 l N :.5.~.uXpX#XyXiX#XyXdXdXyX0X",
" .0XqX+X0XXXuXuX Xb.0XuXqXc.>.x = B OXfXeX+.p p X.L.@Xi.N.s.( ! ;.w.-X*Xk.i.wX(.o.p ..+.wXsXC.t r Z :.y.2XuXqX+XaXdX0X#XdXiXyX0X",
"d.qX3X4X4X4XpXiX`.y. XuXqXn.1.L _ g.sXgXwX+.p p X.L.fX8X8X(.p.2.] s.>X9X9XeXfXL.o.i k +.8XfX8X4.! / 1.D.qXaX0X0XaXaXqX`.yXaXyX+X",
"g.qX+X0X+XqXpXuX`.y.V.qXuX!.6.] G.:XfXfXtX@...p X./.fXrX9X9X(.h.0.q.{.eX9XtXfXL.O.p ..#.wXfXsX).2.<.z.2XuXqXOXqXaXaXuXF.XXuXqXv.",
"u.0X+X0X_.qXaXuX2Xy.8. XyX6Xz.3.P.9XfXfXgXm.O.o.#.*XfXtX9X9X9X-X(.G.{.9XeXtXgX$X#.O.O.m.sXfXtXG.5.6.R.qXqX+X0XaXaXiXuXD.D.qXqX .",
"B 3XXX4XF.3XiXiX0Xn.6.b.qXqX!.7.M.8XrXsXgX=X=.=.K.8XrX9XrX9X9X9X9X9XeXeXrX>XtX>XK.=.-.%XfXsX8Xs.5.z.6XuX#X_.uXiXaXiXqXB.c.0XqX .",
"= H.0X+XR.D.yXuXpX`.7.7.`.qX6Xb.t.oX>X].:XtX$XK.&X:X{.eXeXeXeX9X9X9XrXeXrX<X].oX].U.$XeX1X].oXp.6.E.yXyXT.`.uXpXpXpX0Xy.y.2XqXB.",
"  B #X`.!.a.`.qXqX6Xn.5.b.qXqXW.7./.9X-X&XoX&X{.oX=X<XeXeXeX9X&X;XeXeXeX9XrX<X*X=X=X,X%X=X9X-Xp.7.^.pX2Xc.`.uXpXpXyX_.] y.XXyX0X",
"  = H..X`.z.y..XqXpX`.9.y.6XqX`.7.J.9XeXeX1XeXeXeXeXeXeXeXeX,XZ.{.9X9XeX<XrXrXrXeXrXeXrXeXeX>Xv.6.~.yX/.y.`.uXpXpX3Xy.Y 6. XiXiX",
"  o p.+X2XF.5.z.6XqX6Xc.y.3XqX`.6.P.9XeXeXrXeXrXeXeXeXeXeXeX;XM.I.9X9XeXeXeXeXeXeXeXeXeXeXeX<XG.5.T.qX~.9.E.qXpXyXD.>.I 1.!.uXdX",
"  @ d.|.qX~.5.5.b.0XqXT.z.3XqXT.] N.8X9XeXeXeXeXeXrXeXeXeXeXeX].%XeX9XeXeXeXrXeXeXeXeXeXeX9X<XZ.>.z.7XQ.5.c.6XqX+X6.>.I ;.n.qXpX",
"  h H.qXqXE.1.>.1.R.qX~.z.4X6Xy.E t.-X9XeXeXeXrXeXrXeXeXeXeX9XeX<XeXeX9XeXeXeXeXeXeXeXeXeX9X-Xg.Y 7.+XW.1.5.V.qXW.) :.R I 1.~.qX",
"B H.qXuXqXb.>.) ) 2.6X`.c.4X`.1./ <./.9XeXeXeXeXeXeXeXeX9X<X>X9X9X<X<X9XeXeXeXeXeXeXeX9X9X9X/.2.Y 5. XE.) >.5.~.S.D Y R T I 3.W.",
"4XuXuXyX`.6.:.Y K ! 2X2Xb.3XQ.) R >.p.*X,XeXeXeXeXeX%X{.{.{.*X<X9X=X%X$X%X-X%X<XeXeXeX9X9X>Xs.Y E 6.2XQ.Y ) >.y.S.t m I R R :.<.",
"yXyX0X`.9.>.R I l [ 4X+Xz. XE.) R >.<.Z.<X9X9X9XeX9X9X>X>XeXeXeX9XrX9X<X;X-X>XeXeX9XeX9X9XG.<.Y R a.0XD.T I ;.1.V.N = e m P E :.",
"qXXXn.3.R K Z r a s.yX.X9.D.`.] T ;.>.<./.>X9XeXeXeXeXeXeXeX=X(.I.I.).<XeXeX9XeXeXeX<X<X/.4.>.I Y D.4Xz.:.J R :.v.y.o   o 7 Z R ",
"V.7.D h r 0 1 5 f H.qX/.6.6.T.7.G R ;.I 2./.>X9XeXeXeXeXeXeX>X].A.L.[.9XeXeX9X9XeX9X;XZ.<.>.:.E 4.2XW.<.:.I J ;.z.v.@       7 A ",
":.h 4 - - ; > 2 b  XpXE.1.<.<.3.A S P P E 2.M.[.>X9X9XeXeXeXeXeX9X9X9X9XeX9X9X9X>X(.s.] T :.:.>.F.H.<.:.R R J ;.c.C.=       . e ",
"g 3 - - ; ; > y V +XyXT.>.;.;.P S A Z S E ;.<.2.M.[.>X9X9XeXeXeX9X9XeX9X9X9X>X).s.2.>.T I T S >.7.) h m R R I E V.g.: .   . . * ",
"4 - + - ; ; > y V #XyXR.1.;.;.;.T Z e S E ;.E R Y 2.M.{.<X9X9XeX9XeX9X9X<X*XM.0.~ E ;.P T T P T R A 0 0 A I I / R.Q < O . . . O ",
"4 + + + - ; > 2 f '.qX~.1.;.;.I m 0 0 Z T T E I S T ! w.N.[.<X9X9X9X9X*XG.r.0.%.F R T S T T T ;.J w < 5 g R I 7.g.a : - O O O # ",
"w # O + - ; ; > 0 n.qX`.5.;.T Z 0 : 3 g S I I A j e g { %.r.N.%X;X-XP.s.&.0.$.( l j Z P T ;.T Z w : : : t I I u.d , - + + O + 4 ",
"' 4 . O + + - - : _ 0X2Xy.:.T e : - ; 1 0 r q % X   9 ( $.%.w.r.h.h.w.0.0.$.( ^ 9 X 8 m T T x a y ; + 3 m J K s : + O O O + < ' ",
"r q . . . O O O + w J.0XD.1.T 9 - - - ; > +         9 ( $.$.$.%.%.0.%.$.$.$.$.~ =     = S G a u u y # g A r 4 : - O O O O q  .H.",
"    .   . .   . O # N +X3Xz.E r # - - - - o X       9 ( { $.$.$.$.$.$.$.$.$.| ~ %       j Z a u y 5 0 j 9 - - - O O . . @ t v 4 ",
"                  . # B ^.}.a.S 4 + + + + o X       q [ { $.$.$.$.$.{ $.$.$.| ^ =     X 8 l u y 2 1 1 - + + - - O . . O O . .   ",
"                    . . w ' 4.~ q .   . . X $       v *.| | $.{ $.$.{ $.0.0.0.h.r     $ o 5 , , , y , - O O . O . . . . .       ",
"                      . O O # # . .       X $ X     Q L.w.%.$.$.{ $.| $.0.w.Z.*XB   X $ o 1 y ; ; ; - O . . . . . . .           ",
"                      . . . . . . .     X $ $     7 i.=XN.w.%.$.| $.$.%.w.N.-X-X~ & $ $ X - > ; - + O . .                       ",
"                            . . . .     $ $ $ X r M.%X,X{.s.&.$.| $.%.w.M.*X>XP.e $ $ $ X . + + O O O                           ",
"                              . . .   X X $ $ & | <X<X<X<X(.r.&.%.%.w.M.*X>X*X~ 6 & $ $ X . . .   . . .                         ",
"                                . .   $ $ $ & & ~ ,XeXeX9X<XI.s.w.r.N.*X<X,Xs.8 & $ $ $ $ X   .                                 ",
"                                    X $ $ $ $ & B -X<XrX9X9X<X].A.P.-X>X>XZ.g & $ $ $ $ $ X $ X                               o ",
"                                X X $ $ $ $ $ & l %X<XeX<XrX9X9X<X<X<X>XI.x 6 $ $ $ $ $ $ $ $ & $ X                           t ",
"                        .   X X $ X $ $ $ $ $ & e I.9X9X9X9X9X9XeX<X<XI.M 6 & $ $ X $ $ $ $ $ & & $ $ X                     = g.",
"O . .     .     . . . . X $ & $ X $ X   X X $ $ 8 N.<X9XeXeX9X9X<X,XP.x 6 $ X $ $ $ $ X X $ $ & $ & & $ $ X                 v #X",
"- + O . O O . . . . X X $ $ $ $ X $       X $ $ 6 u.;X9XeXeXeXeX<XI.n 6 $ $ X $ $ X $ X X $ $ $ $ & $ & & $ $ X           % v.0X",
"- - + + O . .   X $ & $ & & $ X $ $         o $ & [ ;X<XeXeX<X,X[.L 6 $     X X $ X $ X X X $ $ $ $ $ $ $ $ $ & $ $ X X   7 g.|."
};
