/* XPM */
static char *_cfd009853f240bcfd1e3429c93b1f7bJeff26QxrsTdOauc[] = {
/* columns rows colors chars-per-pixel */
"64 64 256 2 ",
"   c #131219",
".  c #0E0B11",
"X  c #1A1626",
"o  c #241C36",
"O  c #29182F",
"+  c #31263A",
"@  c #581C2A",
"#  c #372E4A",
"$  c #311555",
"%  c #4D114D",
"&  c #691B54",
"*  c #4D3452",
"=  c #673856",
"-  c #703053",
";  c #4B0D74",
":  c #50346B",
">  c #762966",
",  c #673665",
"<  c #783669",
"1  c #793C73",
"2  c #6C336F",
"3  c #710E78",
"4  c #53425A",
"5  c #6B485D",
"6  c #4E4367",
"7  c #554973",
"8  c #594E69",
"9  c #694666",
"0  c #784769",
"q  c #784877",
"w  c #725675",
"e  c #7A657C",
"r  c #AF1734",
"t  c #972C33",
"y  c #AC2E32",
"u  c #8E162C",
"i  c #C71E3C",
"p  c #99673C",
"a  c #94274B",
"s  c #872857",
"d  c #9A2C54",
"f  c #8E3051",
"g  c #B2334F",
"h  c #993967",
"j  c #863976",
"k  c #8C336D",
"l  c #A93864",
"z  c #AF346C",
"x  c #911D48",
"c  c #CA2B4F",
"v  c #DA2A66",
"b  c #854568",
"n  c #874979",
"m  c #984679",
"M  c #84557B",
"N  c #955678",
"B  c #905269",
"V  c #A74578",
"C  c #AD5070",
"Z  c #926978",
"A  c #AE6C75",
"S  c #9D4857",
"D  c #CC4E6D",
"F  c #D36971",
"G  c #E2506B",
"H  c #CC9F5E",
"J  c #EAC962",
"K  c #3C01A1",
"L  c #510D93",
"P  c #691197",
"I  c #6E2F8F",
"U  c #6E15AB",
"Y  c #722EB1",
"T  c #5512AE",
"R  c #704E8B",
"E  c #7B6B91",
"W  c #7757A8",
"Q  c #7B64A5",
"!  c #7F4ECD",
"~  c #7C24C4",
"^  c #8F3B8A",
"/  c #8E2FAF",
"(  c #A930B3",
")  c #9524A4",
"_  c #D23A9D",
"`  c #964986",
"'  c #8A5885",
"]  c #975888",
"[  c #9B5991",
"{  c #8B4C8E",
"}  c #A75888",
"|  c #A75B97",
" . c #B0508A",
".. c #8B6787",
"X. c #96668A",
"o. c #97758A",
"O. c #896B96",
"+. c #986896",
"@. c #88759A",
"#. c #987798",
"$. c #8B748A",
"%. c #A87786",
"&. c #B97788",
"*. c #A76699",
"=. c #B6679A",
"-. c #A8779A",
";. c #B16B8E",
":. c #904DB5",
">. c #B254A7",
",. c #866AA8",
"<. c #9A6AA6",
"1. c #8976A6",
"2. c #9978A4",
"3. c #906EB3",
"4. c #AB6BA2",
"5. c #B66AA5",
"6. c #A879A5",
"7. c #B679A9",
"8. c #BA78B2",
"9. c #A976B7",
"0. c #CE5589",
"q. c #D76987",
"w. c #CC7293",
"e. c #F26D8D",
"r. c #C577AA",
"t. c #C77BB4",
"y. c #CC70AB",
"u. c #EE75A7",
"i. c #DF529F",
"p. c #893AD0",
"a. c #904FC7",
"s. c #9C68CF",
"d. c #B06ED1",
"f. c #B86AE7",
"g. c #A757DC",
"h. c #CC71CC",
"j. c #D870DE",
"k. c #7C8FAF",
"l. c #98859B",
"z. c #8B8297",
"x. c #A7869A",
"c. c #B8879A",
"v. c #B7949A",
"b. c #B58C89",
"n. c #9986A7",
"m. c #8E8DB1",
"M. c #A687A7",
"N. c #B786AA",
"B. c #AA94A9",
"V. c #B796AB",
"C. c #A889B3",
"Z. c #B988B3",
"A. c #A997B5",
"S. c #BC9DBC",
"D. c #B798B6",
"F. c #9EADBC",
"G. c #BDA3BC",
"H. c #B9A8BA",
"J. c #AEAEB3",
"K. c #CB8B98",
"L. c #ED889B",
"P. c #C58AA6",
"I. c #C696A7",
"U. c #D897A9",
"Y. c #C589B9",
"T. c #C597BB",
"R. c #D79AB7",
"E. c #D988B1",
"W. c #E68AA5",
"Q. c #F293B0",
"!. c #C2A3BD",
"~. c #C6A8BC",
"^. c #DAA8B8",
"/. c #C8B4BB",
"(. c #CFAFAD",
"). c #E9A8B9",
"_. c #FBA9BC",
"`. c #F1ACB2",
"'. c #D7A798",
"]. c #F2D4B4",
"[. c #EAD7A6",
"{. c #B88FCF",
"}. c #BBA9C3",
"|. c #B9B5C8",
" X c #B1B4CB",
".X c #B987EA",
"XX c #C89AC5",
"oX c #D597C6",
"OX c #CB8DCD",
"+X c #EA97CB",
"@X c #C4A4C2",
"#X c #C4ACC2",
"$X c #CAAAC7",
"%X c #D7A8C9",
"&X c #C5B2C5",
"*X c #CBB5CB",
"=X c #C9B7C8",
"-X c #D7B7C9",
";X c #D8A9D4",
":X c #C7BBD4",
">X c #D7B9D5",
",X c #C9A7D9",
"<X c #E8AAC7",
"1X c #FBAAC8",
"2X c #E7B8C8",
"3X c #F7B7C8",
"4X c #E5A8D6",
"5X c #E6B9DA",
"6X c #F7BAD8",
"7X c #F8A9D8",
"8X c #D38EEF",
"9X c #D7B1E8",
"0X c #E6B7E5",
"qX c #F8BBE5",
"wX c #ECAFEE",
"eX c #D9C5D8",
"rX c #D3C7CD",
"tX c #E7C7CC",
"yX c #F7C3CD",
"uX c #E8C8D7",
"iX c #FECCDB",
"pX c #FAC7D6",
"aX c #FCD7DA",
"sX c #F1D5D0",
"dX c #FDEBD0",
"fX c #DBC6E4",
"gX c #D4C9E2",
"hX c #E7CAE6",
"jX c #FECCE4",
"kX c #F7C9E8",
"lX c #EAD5E7",
"zX c #FFD3E4",
"xX c #FBD8E8",
"cX c #FECAF8",
"vX c #EADAF5",
"bX c #FFDCFE",
"nX c #FBD7F7",
"mX c #E8C9F3",
"MX c #EAE8EA",
"NX c #FEE4E5",
"BX c #FEE5EB",
"VX c #FEEAEC",
"CX c #F6E5EA",
"ZX c #F9F5EB",
"AX c #EBE2F5",
"SX c #FFECF3",
"DX c #FEE4FD",
"FX c #FEECFF",
"GX c #FAE4F6",
"HX c #FEF3F4",
"JX c #FDFCF4",
"KX c #FFF3FF",
"LX c #FDFCFD",
"PX c #F5F8F8",
"IX c #EAF3F6",
"UX c #AAC1C9",
/* pixels */
"d d d x a a a d x x a f x s h m h s k h k f m V k k > k [ ` 4.5.| & @ % - - - - - - - = = - = = = = * * 4 + +       . . . . . . ",
"l a d x d l t a x f d h f s l ;.} } > > } } k V j 5.5.y.>.y.oX7XkXcXT.< - - 0 S - 0 - - 5 5 0 0 = = 5 5 5 4 @ + +             . ",
"z z d d g l x d t f h d x s h w.+X+XE.} > s m } =.5.^ j j > & & ] Z.qX6X%.k b - B N B < - - < 0 9 = 9 * @ + + # + X             ",
"g D x z C l l l h h V h h V V j E.oX4XR.} ] *.n =.+Xy.=.5.y.y.5.& , ] <XbXR.N Z %XqXjXkXI.Z 0 9 9 9 5 5 4 4 * # + X X         X ",
"z z z z V 0.z l V h h w.=.k k } =.%X2X4X7X;XP.7.-.r.} *.P.+X7X7XnXN.] 7.5XDXqXX.X.-.Y.%X;XXXT.T.o.#.w = * + 4 + # + o o X X X + ",
"z z z z z 1XV k V V h f } E.E.} j X.P.;XkXkXkXbXcXqXoXoX7X7XcXqXoX;XM.w 7.nXDXFXT.-.%.+.-.-.#.#.D.>XeX&X$.+ + 4 # o o o + o o o ",
"_ z  .z V qXu.h V m } r.;.N r.cXcX-.N ] q o.$X-XuXFXFX<XN B } 0 N.$X5XD.0 M XXkXKXFXFXFXFXDXlX;X..$.eXDXfXl.# * # # o # # o o o ",
"V u.z  .z 7XcXy.} } m ] *.-.X.b oX<X5XkX>X-.o.~.#XV.uXFX%X0 Z P.~.>XhXlX/...w Z -.!.$XS.#XmXFXKXeX* E H.KXAX8 8 6 6 6 # # # o o ",
" . . . . .y.cX7X<X7.;XqX5X0XZ...b } P.T.%XnXB.#.GXDXhXxXFX-Xo.o.!.rXV.lXFX>XV...w l.o.B.&XG.eXvXKX#.$.E :XKX8 8 6 8 6 6 + 7 # # ",
"=.w. .=.} m t.oXoX0XT.Y.%XkXFX%X-.] N.pXkXDXFX#.5 B.lXlXlXFXSXlXlX/././.rXFXGX&X~.B.V.x.M.#X~.hXDXnXe >Xz.AXz.4 4 # 8 6 8 6 7 6 ",
"=.y.=.=.| ] ` n -.N.,X>X@X$XhXKX6XP.R.%.I.kXKXKX$Xl.$.l.x.M.A.G.rXrXCX=XG.BXFXnXhXN.-XLXlX*Xx.D.eXbX>X}.eXl.|.w 8 8 4 6 6 7 7 6 ",
"y.y.y.} r.7.' n q ] Z.Z.;X>X@XnXDXc.T.N.X.-.I.-XGXKXDXuXvXFXGXFXlXtXl./.eXx.-XFXlX~.#.$XDXFXlXo.6.hXnX$XvXD.B.H.F.z.8 6 $ 7 6 : ",
"t.t.y.=.r.5.[ oXXXq ' @XM.T.KXlXDX~.X./.2Xx.N.-.5XcXnXFXKXKXDXDXKXGXKXN.-.-XX.T.4XT.M 6.bXFXFX0XO.>X5XbX$XFX$.&X:X:XA.E E # 7 7 ",
"E.y.=.=.r.r.*.OXcX4X' ' T.M.D.KXKXKXx.o.~.kX2XkX-.I.kX5XT.lXKXKXKXFXDXjXM.n n n 8.+.{ { X.] 6.bX6.7.0XmXhXGX>Xe eXAX}.|.gXk.6 R ",
"t.E.r.| r.Y.| [ cXbX5XM -.%X-.!.HXPXFXD.Z V.~.P.<XX.*.R.Z.Z.$X,X5X~.4.-.] n *.j ` *.>.| j 4.{ [ *.' Z.hXcXnXLXe A.MXz.gXAXvX7 7 ",
"+XE.r.t.7.| ` *.8.cXFX5X..Z !.B.H.gXMXKX>X= b n P.7.7.*.4.7.6.8.=.7.*.*.5.] n ` ` | 2 5.> 5.| ` q 2 ] qXnXbXKXV.w fXz.{.PXIXk.7 ",
"oX7XOX` oX7.-.M Y.T.KXKXhXM.A.l.x.&XV.-XKX5XN.-.M [ 7.*.5.4.t.4.5.>.[ 4.5.*.] | k  .^ ^ ^ ` t. .` > ` 4.wXnXFX%X' +.C.w mXfXn.6 ",
"oXOXZ.*.] Y.-.N.-.T.lXDXLXSXrXH.V.#.T.D.M.FX;XT.*.[ *.` | | >.` >.| ` ` } ] m ] k ` | j ^ ^ y.j  .> k [ 4.oXcXwXq +.[ * ,X,XA.: ",
"Z.6.Z.Z.n 6.Y.%X..x.lXDXKXLXGXGXrX#X..M.M.-.cX4XXX| | ` [ *.8.4.{ ` ^ z } C h s k % j ` ` j 5.t. .k > | ` 4.8.Y.> ' n , <.A.}.# ",
"8.Z.T.XXXXX.%X%X!.M T.lXlXKXLXFXFX*X>XM M 6.Y.;XoX8.4.4.[ | h.t.>. .h s h V C  .=.=.] 1 & ` | =. .k & *.| 4.` ` > j 1 n q M.{.7 ",
"D.Z.T.%XkX#.$X5XnX..#.-XeXxXFXKXKXDX-XXX0 M -.r.oXt.5.4.' { 4.5.+Xy. .0.i.e.u.1X6XbXkX7.0 0 k w.>.k > ` >.r.4.` 1 j 1 j % {.6.w ",
"@XC.D.V.>X;X-.kXDX~.Z G.eX>X>XFXKXFXhX>XN.< b Y.E.t.4.4.[ [ { 4. .z  .u.Q.e.q.+XjXDXDXnX6XX.b ;. .^ k ^ | 5.5.` & 1 > 1 , ;X2.: ",
"@XV.M.l.S.vX#.>XKXkXe o.$X-X$X*XfXFXKX!.XX*.n *.r.t.| *.4.4.' *.4.V 0.u.u.e.q._.jXjXeXxXDXjXE.-  .k j  .| | 5.> > 2 2 2 1 C.<.R ",
"S.@XM.M.T.GXV.V.FXFXM.#.X.x.-X~.*XfXnXDXT.-.} ` | Y.5.4.4.+.n +.4. .y.u.Q.0.D W.R.-X#XCXV.5XjX+Xm & > | *.4.4.2 1 ^ , & R 2 C.,X",
"G.#XG.B.lXnXeX#.xXDX5X$.N...M.$X@X}.T.;X5XP.] } 5.r.4.4.7.' 4.R +.+.=.w.Q.u.q.h %.Z $.lX>XN.U.bX7X< < [ +.OX1 2 j 2 2 2 1 $ ,X,X",
"&X#XD.M.eXKXDX#.M.DXbXM.o.T.X.M M.T.T.N.Y.oX4.< ` *.Y.-.4.6.' ' ' ] | f u.q.w.C %.V.$.>XFX6XK.r.DX4XX.' X.-.q q 2 % { R : : {.R ",
"*XG.H.M.B.hXFX>X..XXbX5XX.q %X6.w ..6.N.N.Y.7.n [ 7.OXr.4.+.q 2.R #.] B ;.C B w.I.;XFX!.~.%XkX=.<XFX5X-.o.= , , q 2 2 % : Q Q R ",
"-X~.&XD.n.C.>XKX@X..}.Z.,X*.' 6.XX] w +.-.7.6.*.n +.oXY.] +.1 4.#.q n m ).C S B &.Z o.>X%.x.jX^.%.jXpX>XbX$XXX.., q 7 R ,.Q Q Q ",
">X#X#X@X#XC.M.DXDX}.q 6.N.Z.XX[ n 7.Z.N , X.Y.-.] M 4X;X+.Y.1 0 7.[ N ;.V C K.zXGXFXB b.V.o.2XBX%.v.I.^.KXKXFX@X, q E d.O.R Q W ",
">X>X$XG.$X!.#.0XDXqX{.q +.Z.8.4XZ.b < *.-.' M #.+.' [ ;XOX*.*.j n n r.K.U.Q.xXzX6XFXiXw 2X-XtXNX2Xv.V.I.xXGXFXkXR ' 2 R I R 3.Q ",
"%X>X>XT.S.S.#.@XnX;X,XZ.9.1 6.[ oXoX7.M q ' ..' ...., 7.Y.n 8.=.k r.E.Q.w._.iXzXFX3X2XZ %.aX/.aXNXI.Z b.uXpXbXkXq n I 2 3.3.W W ",
"$XD.$X%XS.XX..2.0X{.XX;X8.+.| 9.] t.Y.7.*.M q M Y.%XqXX.-.Y.n ;.+X1X1XQ._.6XpXyXK.&.A b.5 v.sX(.ZXdXI.v.^.V.kXnXn * [ <.,.,.3.Q ",
"!.@X@X!.@XS.M.' N.{.Z.Z.4XOX' 7.6.X.X.5.R.} - 1XW.0.3XbXw %.-.5XjX6XW.F <X3XiXpX^.3XaXsXuXB.x.-X).HXaXZ I.I.x.kX' , ,.1.R ,.,.Q ",
"G.G.G.S.@X@XZ.-.X.6.Z.7.Z.Z.[ { Y.6.n *.7.r.r.y.q.g C iX`.= 2XbXzX3X3XW.N iX2XK.I.U.V.H.J.rX%.%.-XtXI.%.%.%X%X@XS.O.1.m.E ,.3.,.",
"G.G.S.S.T.$XXXS.+.+.*.6.8.XXOX< +.;X*.] X.] &.W.q.g t F FXI.zXpX<XyXU.&.B c.I.K.b.= Z /.z.Z A C U.yX%.K.2X6XKXDX>X1.O.@.E Q Q 1.",
"~.$X$XG.S.@X@XXX6.' 0 +.6.{.;X6.0 7.Y.o...0 c.1XD G c u K.NXaX2X^.yXU.).I.A I.3XU.^.JXZXZX/.K.A A K.Z P.6XX.xXhXfXn.E ,.Q 3.m.3.",
"$X$X$X#XG.T.G.T.*XC.q q 0 q 6.S.7.' 6.7.O.0 zXW.D G G r S pXaX2XA zXyXaXVXVXB yXpX).rXJ.H.tX3Xq.A - b.R.I.A ^.V.:XA.@.1.1.m.3.1.",
"!.#X$X#X@XG.S.}.V.$X@X@X{.2.w 9 Z.N.-.+.$.= zXU.g G r r `.aXNX'.C _.iXHXVXJX(.Z 3XpX^.rXrX^.A W.L.S _.w.@ o.4 @.A.m.@.1.Q z.m.,.",
"D.D.!.~.@XG.G.S.S.}.,X$X$X*XS.n.R 8.7.] #.q V.iXl e.c d pXaXaX^.C L._.yXJXZXZXv.A K.).^.v./.`.3Xq.S _.&.0 -X..lXn.n.1.n.1.1.C.3.",
"V.V.D.G.G.G.S.G.S.A.>X>XD.}.G.{.M.+.oX7.7.-.= ).6Xg L.g K.NXNXyXF c W.aXsXJXZXJXyXU.3XiXHXsX/.yXQ.S W.).&.tXG.}.n.l.E n.2.E 2.n.",
"B.B.A.~.#X#X#XG.G.&X*X}.$X}.A.}.C.6.r.+X{ 4.Z.N W.L.q.C A VXNXaXq.z D L.NXZXZXZXHXBXzXiXyXtXsXtX_.C q.).2XuXz.l.n.n.n.1.@.@.@.2.",
"G.H.H.~.#X#X#XG.#X*X*X*X*X}.H.}.}.O.| h.5.` *.N.N 3X_.C A NXNXBX`.q.D F yXaXZXJXVXCXGXzX2XrXMXVXQ.q.U.<XI./.z.m.l.m.2.1.@.O.@.@.",
"D.H.~.#X#X&X&X&X#X=X*X*X:X&X}.}. XM.| y.h.n X.N.N C pXBXNXVXJXKXaXu.D D Q.pXZXJXJXCXaXiXaXHXHXaXK.Q.K.^.x./.l.A.n.n.2.2.#.O.O.E ",
"H.~.&X&X#X#X$X&XG.&X&X*X*X*XH.A. XC.5.| y.m X.x.B A q.w.).aXaXCXCX).F D Q.6XBXZXZXSXSXNXNXCXuXI.W.VXzX).!.vX|.E n.n.2.2.<.1.1.E ",
"-X:XrX=X&XG.H.H.H.&X&X/.-X&XH.H.B.#.} =.;.b 0 5 ).L.F u f yXVXHXHX3Xq.F Q.6XxXVXMXVXHXSXSXKX2Xo.K.U.).SXGXH.n.{.n.9.<.#.2.2.@.E ",
":X*X*X=XH.H.H.G.H.=X=X*X=X&XG.~.l.$.b b B Y.lXiX_.q.G D t `.aXNXHXaXW.C Q.pXxXSXKXVXBXVXLXKXtX%.f A b.V.#XA.A.z.C.2.4.<.<.2.z.1.",
"&X&X}.H.H.&X=X=X~.=X-X*X>X=X~./.J.tX<X7X6XFXKXuXQ.L.G c g `.sXHXVXxX).w.1XiXzXaXBXxXxXxX-X/.^.2XU.U.^.&XH.F.C.n.2.2.<.<.<.2.n.1.",
"=X&XH.H.H.&X=X-X}.*XrX-X-X=X~.-XlXsX2XzXKXSXCXVX3XG G i i `.aXaXVXHXyXI.iXzX-X~.P.%.Z v.x.v.tXKX3XiXKXDXH.A.m.n.9.2.<.+.+.1.n.n.",
"|.rXJ.|.lXrXJ.H.|.H.eXeX~.%XkXkXjXjXjXPXLXLXBXaXQ.e.v i c F sXdXVXVXVX2XpXnXoXY.6.^.tXaX].(.^.yXBXxXV.$XA.l.A.@.#.2.6.+.O.1.2.2.",
"|.H.rXrXJ./.rXB.=X/.=XeX@XV.XX4XwXwXwXmXvXvXDXbX1Xe.c i g G L.aXpXaXNXVXiX-XoXXXT.pXI.'.b.b.b.Z N.uXV.B.x.n.C.O.<.2.2.+.+.<.6.2.",
"|.&XrXrX/.(.'.rX/.ZXZX=X,XZ.[ :.Y Y Y Y W W d.{.j.u.D v v y y F _.pXyXNXNXuXuX#.@XFX3XaXNXNXGX3XN.DX~.V.C.D.A.2.O.+.+.+.+.2.#.O.",
"/.rX(.rXdXsX[.ZXZXsXv.D.9X{.I L T T K L L L P / ( ( (  .e.G y i D L.].yXdXtXrX$.kXjXF A A A <XDXzXGX!.D.B.n.n.n.O.+.O.O.O.#.@.O.",
"(.(.].dX].dXdX].b.(.DXcX<.; L L K K K L P P P U U ) / / _ y.i.c r y F '.dXsX(.B.xXjXU.w.C S V 7XFX>Xx.}.B.2.M.n.2.2.<.#.+.#.@.$.",
"[.[.dXdXdXdX].v.tXbX,XR ; P Y W ! ! a.a./ ) U P ~ U U ~ ( _ _ _ c i y y `.dXtXB.DXFXzX].).3X).nXFX$Xn.*XD.A.{.n.M.2.-.#.@.@.@.@.",
"J [.J ].].'.v.%XnX{.: ; a.s.a.s.W 3.3.9.d.h.h.f.p.Y T Y p.( ( i.v c i u t A yXV.MXLXPXHXJXLXFXKXhXG.M.,XA.A.n.#.M.6.2.#.l.@.@.@.",
"J J H H H A R.wX.XI Y s.:.s.d.:.C.{.Z.N.5.8.d.d.f.f.! Y Y / ( j._ v i y t t pXV.GXLXIXPXIXLXFXAXD.D.n.}.A.C.#.M.C.M.2.M.M.n.z.z.",
"J p H S B OX8X8X:.! a.s.{.9X9X9XhXfXhX0X>X,XXX{.3.C.3.d.:.U / ( j._ 0.w.W.K.iXD.MXLXLXPXPXLXAX&X}.A.S.gXB.2.n.2.6.M.Z.A.A.A.n.k.",
"p @ @ b t.OXj.d.Y s..X8X9XmXbXbXKXKXKXKXDXDXGXbXeXD.A.C.d.a.U a.( >.h.P.c.I.BX~.>XvXKXLXLXLXMX X}.A.A.eXn.l.l.#.2.#.M.M.n.m.m.E ",
"% % % >.j.d.f./ :..X9X9XhXSXHXKXKXFXFXFXKXLXLXLXLXCXlX!.9.s.~ Y ) :.OX}.B.B.FX=XD.>XlXBXPXIXgXF.|.A.m.fXn.n.M.#.-.#.2.n.n.z.m.m.",
"; % a.j.f.f.s.:..X,X0XhXxXZXZXZXFXFXPXPXLXLXPXPXJXJXLXFX,Xs.s.T L P d.}.J.B.PXeXS.$X-X-XrXrXUXF. XA.B.vXB.n.B.#.l.#.6.n.m.m.F.k.",
"K L f.f.f.f.:.:.9X>XeXAXHXJXZXZXJXLXLXLXLXLXLXPXJXZXHXKXbXd.s.! K ; W A.J.J.IXgX*X;X$X~.}.{. X X|.}.}.IX XM.A.#.M.#.2.C.n.m.m.k.",
"K p.g.g.j.:.^ OX,X9XlXKXLXPXZXJXZXPXPXLXLXLXPXJXLXJXPXFXFXmXW :.L L R @.=X/.MXMX>X*X$X~.}. X X:X:X:X|.FXeXB.A.x.6.#.2.n.m.m.k.k.",
"U g.g.f.d./ :.wX,X9XvXKXLXIXPXPXMXZXJXLXLXLXLXLXPXLXLXMXKXFX7.R Y 3 I } ^.J./.MX X|.|.J. X|.:XgX|.gX|.vXlXn.D.x.M.#.2.n.m.k.k.k.",
"U p.f.f./ :.OX9X0XmXDXPXPXLXIXAXMXMXLXJXJXJXJXLXPXPXLXLXFXDXpX< / 3 > ;.`.A b.NXB.F. XF.F. X:X:X|.:XJ.gXlXl.B.M.M.#.n.m.m.m.k.k."
};
