/* XPM */
static char *_220085f3eeb4660abead934fb69bacf21yBcpGw1T5GEWgp[] = {
/* columns rows colors chars-per-pixel */
"64 64 253 2 ",
"   c #010203",
".  c #070406",
"X  c #030A0C",
"o  c #0B0A0C",
"O  c #170907",
"+  c #140C0C",
"@  c #1A110D",
"#  c #030D12",
"$  c #0B0E11",
"%  c #180D15",
"&  c #0C1215",
"*  c #061419",
"=  c #0C151B",
"-  c #0D191D",
";  c #141314",
":  c #1A1414",
">  c #13151A",
",  c #1A161A",
"<  c #141B1D",
"1  c #1C1B1D",
"2  c #2B0D0E",
"3  c #261919",
"4  c #331B19",
"5  c #1B201E",
"6  c #30221B",
"7  c #0D1C23",
"8  c #081C24",
"9  c #141D24",
"0  c #1B1D23",
"q  c #131F28",
"w  c #1B1F2A",
"e  c #261B23",
"r  c #371C29",
"t  c #0E2127",
"y  c #152125",
"u  c #1B2226",
"i  c #15232B",
"p  c #1A252C",
"a  c #16292E",
"s  c #1D292D",
"d  c #1B2730",
"f  c #1C2A32",
"g  c #192B35",
"h  c #1E3137",
"j  c #272326",
"k  c #23252A",
"l  c #222A2D",
"z  c #2C2A2C",
"x  c #362A29",
"c  c #3A312D",
"v  c #222C33",
"b  c #262C36",
"n  c #382A33",
"m  c #283437",
"M  c #24333B",
"N  c #2A333B",
"B  c #383638",
"V  c #480E0E",
"C  c #521213",
"Z  c #661717",
"A  c #711512",
"S  c #78231C",
"D  c #721C22",
"F  c #4F2F31",
"G  c #453937",
"H  c #6F2F30",
"J  c #50433A",
"K  c #67523D",
"L  c #2C3B43",
"P  c #2A3844",
"I  c #333B44",
"U  c #393C44",
"Y  c #483B44",
"T  c #563A46",
"R  c #603C46",
"E  c #2E4148",
"W  c #34444C",
"Q  c #38444A",
"!  c #3B4C53",
"~  c #3E5057",
"^  c #4B4342",
"/  c #47474A",
"(  c #584747",
")  c #444D54",
"_  c #574E52",
"`  c #46545A",
"'  c #595657",
"]  c #654A49",
"[  c #754849",
"{  c #6B5150",
"}  c #695A58",
"|  c #755957",
" . c #6F615E",
".. c #4B5C63",
"X. c #555E65",
"o. c #715A62",
"O. c #4D6168",
"+. c #53646B",
"@. c #58666A",
"#. c #596B74",
"$. c #5C7178",
"%. c #696566",
"&. c #786766",
"*. c #726D71",
"=. c #66767B",
"-. c #63747C",
";. c #7A7578",
":. c #881C1A",
">. c #86221C",
",. c #95231C",
"<. c #851D23",
"1. c #8B292D",
"2. c #992624",
"3. c #9D3535",
"4. c #A52927",
"5. c #B42C26",
"6. c #AC342B",
"7. c #B7332D",
"8. c #A73738",
"9. c #B53836",
"0. c #C43930",
"q. c #AF473C",
"w. c #BA4639",
"e. c #C94E3A",
"r. c #9A3841",
"t. c #915055",
"y. c #AB4747",
"u. c #B54648",
"i. c #B75449",
"p. c #B75A55",
"a. c #88645C",
"s. c #BE6353",
"d. c #94596B",
"f. c #B05968",
"g. c #876868",
"h. c #8F6C6D",
"j. c #8A736B",
"k. c #867877",
"l. c #967874",
"z. c #A76B68",
"x. c #B1716F",
"c. c #C74F46",
"v. c #C85845",
"b. c #D45745",
"n. c #CB6958",
"m. c #D06850",
"M. c #D76A55",
"N. c #DA7558",
"B. c #E17459",
"V. c #D36E66",
"C. c #C9726E",
"Z. c #D77B65",
"A. c #92827B",
"S. c #B38677",
"D. c #DA8568",
"F. c #C98779",
"G. c #D88A75",
"H. c #DD9478",
"J. c #E28769",
"K. c #E38B68",
"L. c #E39778",
"P. c #6A7C84",
"I. c #747D85",
"U. c #8B7984",
"Y. c #AC7287",
"T. c #D67E84",
"R. c #73848B",
"E. c #72858D",
"W. c #798B94",
"Q. c #8A8788",
"!. c #998A88",
"~. c #918E96",
"^. c #9A9696",
"/. c #A78C86",
"(. c #A9938C",
"). c #B4958C",
"_. c #B38794",
"`. c #A79A98",
"'. c #B59A96",
"]. c #ADA19B",
"[. c #B9A29D",
"{. c #959FA5",
"}. c #B39AAA",
"|. c #B8A8A7",
" X c #B2ADB0",
".X c #CB898E",
"XX c #DB9B86",
"oX c #CA9696",
"OX c #D99B9A",
"+X c #E39988",
"@X c #CDA596",
"#X c #E6A688",
"$X c #EBB18D",
"%X c #E6AA98",
"&X c #EBB598",
"*X c #C698A5",
"=X c #CC9CAA",
"-X c #C6A9A7",
";X c #D8A7A6",
":X c #C9B3AB",
">X c #D4B4AB",
",X c #C7A7B9",
"<X c #D5AAB3",
"1X c #CAB8B5",
"2X c #D7B9B7",
"3X c #E4A9A7",
"4X c #E9B4AB",
"5X c #EAB8A8",
"6X c #E7BAB7",
"7X c #D8C1AF",
"8X c #DCC4BA",
"9X c #EEC2A8",
"0X c #F2C7A9",
"qX c #EAC5B9",
"wX c #F2CBB7",
"eX c #F6D4B9",
"rX c #BCBEC5",
"tX c #CCB4C7",
"yX c #E6BFC3",
"uX c #C8C4C7",
"iX c #D9C8C5",
"pX c #D8C8D9",
"aX c #D9D2D1",
"sX c #E6C7C5",
"dX c #E4CCC4",
"fX c #EBCCC4",
"gX c #ECCDCA",
"hX c #F1CCC5",
"jX c #E9D5C9",
"kX c #ECD3CC",
"lX c #F1D2C5",
"zX c #F3D4CB",
"xX c #F4DACD",
"cX c #F9D8CA",
"vX c #F1CDD5",
"bX c #EAD9D5",
"nX c #F4DBD4",
"mX c #FBDBD3",
"MX c #F8D9D4",
"NX c #F4DDD9",
"BX c #ECE1DB",
"VX c #F9E5D2",
"CX c #FDE3D5",
"ZX c #F5E4DA",
"AX c #FCE3DC",
"SX c #DFDDE5",
"DX c #E3D6E4",
"FX c #ECE9EB",
"GX c #F9E7E5",
"HX c #FCEBE4",
"JX c #FEF3E8",
"KX c #FBF7F6",
"LX c #FEFEFD",
/* pixels */
"eXeXeX0X0X0XeXwXqX&X&X#X5XhXqX4XqXNXGXFXbXgXqX>X>X>X5XqXdXqXqXqXeXnXZXBX XW.R.Q.{.aXZXZXVXjXjXBXVXZXzX0X6XwXhX6X+Xc.8.2.:.>.S >.",
"eXeX0X0X0X&X$X$X#XH.L.L.+X5X4X3X3XqXiX}.X.N v l l m Q ' ~.>X%X5XuX~.) l t t 5 < l u m @. XjXVXZXNXnXlX5X5XcXcX4XZ.b.9.4.2.<.>.>.",
"eXeXeX0X9X$X#X#XL.H.D.N.V.Z.+X+X!._ = $ u v l < u s s < < m ` @.- & - 5 l l a l u y 9 & # u ^.jXcXwX5X$X&XeX6X#XZ.M.0.4.2.<.>.>.",
"eXeX0X&X&X#X#X#XXXH.Z.m.b.V.l.w 9 u s l y < u m u s u u u u 0 > h s s s l a s l l p l N m < & s (.0X&X$X$X5X5X$XB.b.9.4.2.2.2.2.",
"eXeX0X&X$X#XH.H.G.G.N.n.f.k X v v i 0 v N v p p s s p v v b v i p w i p l s y < w 9 p v l p p v , &.&X#XL.#X#X#Xe.e.5.4.2.4.2.2.",
"eXwX5X%X#XL.G.G.D.Z.C.] * p b i d w i p p v d d i s v v i q f N d l N l y y f m f d i q d v p i 5 & J #XK.J.B.B.e.5.5.4.4.4.6.4.",
"0X9X&X#XL.G.Z.n.n.z.x 9 0 i p i d d d d p d p q b p 9 i v b d q i w i p f v a u w d d p p d f f l l l ; K.B.b.e.0.5.5.5.5.6.6.8.",
"5X5X3X#XG.Z.V.n.z.k = N p i M 9 i d v p i d g d i p g f p i d d f f g p i a a f f d i d d p i s v y u s x N.e.e.0.0.0.7.7.9.7.8.",
"wX6XqX4X3XG.n.x.< s p 9 v a i f y a a y M a M i i P i d f i g i i h f 7 a v a i f f 7 f h y v s v - s s 5 K b.e.b.b.e.0.0.e.e.7.",
"hXhXqXqX5XOX.Xn a u i L I i d 7 a a m M * a v i q f i a i f p f f q M q M a i g i f f M t a f 8 a a s a v 5 a.D.B.B.b.e.e.m.m.v.",
"6X6XqX6X6X4X} p a M ` ! P g M W ~ 8 a - P i d M g i s p g g p f i M q g a y h t v * f i a h a E a M t f y ! 5 H.B.B.B.B.D.G.G.D.",
"4X6X6X6X6X`.N ) Q +.R.P ..h $.#.M h M m 8 M a 8 g i g a M 7 h t i d i f t y h a i M g i W * a M #.` +.7 y m @.J B.B.B.K.H.XXH.G.",
"3X3X6X6XyXY U.! P.W.P P.+.P.W...` ~ E a ! t a a i a t M M t M t P # m t h a a h i 8 a t ! @.m * -.E.E.#.~ Q $.c D.N.N.K.H.#XXXH.",
"3X3XOX3X~.%.~.#.{.E O.P.W.P.W.#.=.~ t ~ ` h a m E Q M ` a a a a a W a M t t h - L * h L a R.@.` $.O.E.-.R.=.W.` K N.N.N.L.L.H.G.",
"OX3XOX3XY ~.P.E.#.g P.P.O.P.P.W.` a @.@.L h @.a O.O.@.` t a a M * +.M ! M y ` h h +.~ =.E h R.R.E.$.M ..E R.R.` * D.e.m.D.D.D.s.",
"OXOXOX_.` P.P.~ P P.P.g ~ P.E.P.$.=.@.E ` O.~ P.@.~ W.E y i h ! a t #.E P.h ..=.g ` P.O.W.P.@.@.O.E.h E h Q ` / X A.e.e.e.s.i.q.",
"3XOXOXU.w ;.U M f I g P ~ O.W.P.I.P.g P.P.P.P.P.g X.P.7 f d 9 ) m t O.h ` R.m @.-.7 $.W W ~.W...a W ! a 9 h M i 9 ] e.e.v.v.q.q.",
".XOX;X/ p ) b d d g g P P I...P P.E O.P...W.! g i ~ X.* p d q I m * ~ h a ! a h ` ) i i i f I.-.g h h a i i p s 9 J m.i.q.i.q.q.",
"n.x.T.= b b q i f q v g I P.g i P g P.~ P P.g 8 9 L I = q v 9 s h 5 m y * h * 7 s L = M g * P Q v u t h v i i v p z n.v.i.i.i.q.",
"y.y.z.X N w d g g i g g ` I i g 8 g O.8 ~ P q q i m v k w v 0 9 t a s y a u y y g - g b i g 9 p l s a u s f f s s = x.m.s.s.s.s.",
"3.y.d.; v p b p g f y i E y a a 7 L M 7 I 8 w d p s N / u k u 0 m * 5 s l s m * l s 9 7 u 9 b 0 y l s u y f f p v X S.C.D.S.s.s.",
"3.8.a., k 0 f i i v i i s a y y 9 v y v q q w = u < ) @.u u k N 5 5 a 5 U Q 5 < = z 0 = v 9 y 9 s y a a a a p s l o @XG.S.D.F.S.",
"3.3.g.$ l p p i a s a y a s 5 t u 9 9 v - k w w u > %.;.e 0 B / & E m o ) *.; l b k l k k k & z s s y l s p p s s - 2X%XXXOX@X.X",
"3.r.d.. B p w f a a 7 5 m X m 5 k p < < B k N / k = ;.;.1 , B ' ; J G 5 N Q.1 z ' 0 u ' u u 0 u y l f a a f f p p u sXlX>X@X;X@X",
"q.q.z.$ k d q f p p q i z ; m J 1 Q B o ' / z *.5 @ Q.Q.@ : J %.+ ' ' ; G ].l ; %.z 0 @.G u u 1 y v f i p d i i s u dXnXgX>X<X;X",
"q.q.x.* v l p d g w 9 0 5 5 ' ' . ' J o ' 5 B %.3 1 ;.].x 1 ^ Q.@  .&.@ 5 k.c + %.1 . } ' ; : j y s s s v d g b p z gXMXnXyX<X<X",
"u.p.F.0 v d g d d 9 u k 5 5 ;.G @ *.B ; `.U ' ;.: 6 A.uXJ @ ( ^.+ &.A.; G  X;.o ^.%.; ' *.@ e 5 y u y p f p w g y B gXvXvXvX<X<X",
"v.C.F.n l i f p i 9 u k ; x ^.6 6  X_ j  XJ / 7Xc @ !.BX .O ( [.@ &. X@ ( BX`.. ].k.+ k.uXj x z y a p p g d w d y ) hXgXgXyXOX=X",
"C.C..X_ u i i i f i < e + ^ 8XJ z BX .c aX;.J aX&.. !.BX!.O } 1X4 j.gXO } ZX].3 iX X@ !.GXc J ( < s s s d g d w w o.yXyXyX3XOX.X",
"C..X.Xj.7 b i p p w > z 3  .VX{ ^ BXA.G |.A.c BX:XO A.bX1X2 } dXG !.bX@ A.KX].x |.`.3 `.KX_ B *.& y s a d d d P w d.3X3X3X.XT.C.",
".X.XoX!.y ! 9 g p w 1 Y 6 k.BXj.A. X' 6 &. .c !.7XJ j.ZXkXG | kX{ -XkX4 [.8X&.3 G c @ !.KXQ.c |.- y i f g w g U P o.T.OXT.f.f.f.",
".X.XoX`.s ..i g b i > ^ c l.AX-XB J (  .&.J 3 K ^.&.j.GXNX} j.ZX&.tXbX_ '.J 4 ( &.k.J @  .]. .aXa u s N b q b _ U o.V.V.u.u.u.u.",
".XoX*X,XU I.w p 0 b $ ' / (.JXA.N  XrXI.Y _ I.% ;.|.2XkXVX[.S.mX@XeXqX:X( z ].;.X.U.FX}.. e (.NX' U & ..E t h | Y } 8.8.9.r.8.r.",
"}.*X*X}./ I.Q p w P X } %. .(.6 SXLX}.k Y Y G _.F dXHXsXlXBXqXVXxXqXjXkXc ].;.B Y w _ KX-X% A.NXA./ < Q ! t P } b _ 2.4.u.8.8.1.",
"*X=X=X}.) *.#.I I P   U BX*.X |.KXuXKXU.Y T n *.tXbXNXMXqXCXlXqXlXVXjXjXGXaXLXI.w _ Y U.KXk.3 ,X7X@.; @.W.E E t.G G 3.3.4.8.r.<.",
"}.,XtX`.P ..E.+.X.P l / FX7X@ 7X Xn _ n , n r T ,XiXNXNXnXxXlXVXjXVXHXBX`.x %.% w r w Y `.%.Y bXBX .5 I.W.O.E t.Y k 8.4.4.r.1.<.",
",XtXtXI.f ! W.P.P.U 0 %.*.G @ 6 n r e % % % r % 4 O ] '.xXAXCXxXnX].J 4 O e e % % r b e ^ n 3 x *.c 6 $.=.P.$.{ p 7 r.2.<.<.<.D ",
",XpXDXP t E #.$.I.I w ; } A.6 :XGXT T R 2 % { R |.|.] O | >X:X8X' O } |.!.e T r % T _ T KX,Xn |.J X 5 ! R.R.W.O.9 q ] :.<.<.D C ",
"tXDXtX8 i g L -.=.f   %.KXBX} |.KXT *.o.F _ _ T GXGXmX(.2 6 4 2 @ A.KXGXtXT o.Y r &.T o.KXk.&.LX].z & y $...$.#.i l 9 t.D Z C C ",
"DXDX+.* M q 7 R.Q < , x 7XJXA.S.KXd._ d.d.o.| d.GXgXMX1X4 '.fX(.6 VXdXNX2XY d.t.&.d.F _.KXR [.bX].G + & X.! ! ` - N T 0 H Z V r ",
"DXtXX I tXq g X.b > o o.`.HX8X-XKXvXR g.g.h.T =XGXsXGX1XF bXHXiXJ eXjXeXAX[ [ d.h.t.T vXJX2XNX8X!.G : 0 i ..g P f - t.[ c ] C V ",
"pX= I pXrX= P I > 0 e &./.nXfXAXyXtXg.4 T 2 ] vXkXZXNX/.| JXkXkXK 7XjXjXcX/.F H F F t.vXmXkXHX[.k.%.. 0 g P M g v s 5 H Z [ H V ",
"k U.pXpX) w > w b % j !.&.2XmXzXyXY._.l.a.h.iXgXkXqXHXA.'.:X2XnXK 7XVXcXmXhX'.x.l.d._.lXqXmXeXA.U.`.3 p b 8 M 8 a * u z H Z C C ",
"tXtXpXrXb = w w b % x  Xg.|.AXfXvXGXbXNXNXGXgXMXCXwXVX| :XF >XJXj.@XcXVXqXmXGXhXAXmXmXcXVXVX8XS.1Xk.: 7 P g 8 g / l.z & : t.A C ",
"}.tXtXb $ P b e u e ; k.].[.ZXnXBXjXVXBXkXjXnXqXeXAX-X| cX{ >XHX>Xa.mXlXlXkXmXzXhXAXxXkXxXkX>XA.].6 o 9 h i 8 P = l.p.| c c [ H ",
"Y.Y.Y > ,XI $ q m < X 3  .&.bXjXBXjXjX8XnXkXZXxXxXxXA.>XHX<XfXvXeXj.2XmXJX8XbXbXkXbXdXBXbXZX).J c   : 9 i 8 t 8 v # x.>.S H K H ",
"Y.o.I.Y.~.$ b q s & 5   1 &.BXZXjXZXVXjXjXeX8XxXVX).S.CXlXMXmXmXxX8X/.AXjXbXjXBXGXbXaXbXjXjX( . O + o $ d h ' i l s ; 1.C Z C C ",
"d.Y.d.Y._ I.f g 7 * X + ^ KXKXJXJXZXHXVXJXJXJXVX).j.AXMXcXmXgXMXCXxX1X/.HXKXJXGXBXJXZXBXGXaX3 @ O ; ; # q * g.z.z 5 ; j H V Z 2 ",
"r.t.d.U.}.I.% b I.o & 0 $ B ~.SXLXFXLXJXLXbXdX/.).lXmXqXqX2X:X8X6XcXmX<X(.:XbXKXKXKXLXLXLXKX@.  < X 5 X } a.  y.y.t.J : G F C V ",
"H t.d.Y.Y.) $ ~.tX0 $ $ $   & p ) Q.~.Q.k.`.[.8XmXcXcX-X/.7XAX:X;XhXzXMXnX7X(. X|. X X^.*.k ; > # & X < < q.a.F 3.>.A D [ ] V V ",
"r.r.d.Y.U.# Y.,X}.  X # u ; & $ & Q Q.tXbXBXjXAXqXcXmXqX2X:X-X-XmXhXmXmXkXnXAX8X|.A.^     X > X * 5 & &   t.8.t.] >.A A A C C V ",
"d.r.Y.Y.= }.tX,X}.$ %.& X I /   &   l %.|.jXAXxXmXlXlXcX7X).).2XyXMXcXhXkXnXbX:X^.J + o 0 ; ; X & 5 X & X ] 2.4.y.t.2.S A A A C ",
"d.f.Y.o.,X,XtX,X}.k }..   (.oX. 9 >   + 3 { [.MXMXcXcXcXAXAXMXmXmXcXcXcXmX2Xj.c X . : 5 o $ ; N 5 a.n # $   f.6.6.6.2.>.:.:.A A ",
"Y.Y.Y..X*X,X,X,X,X%.2X$ & -XOX> . U B   O x g.h.>XzXcXlXhXhXlXkXcXhXhX<Xj.&.G O @   &.J e ] o y.J ] w.G >   n n.e.e.q.4.:.:.:.:.",
"<X.XT._.*X=X,X<X1X`.<X;.$ ;XgX;.  X.DXe O G -X'.l.l.4XAXlXzXAXfXeXqX/.l.(.:XG O . / S z k d.X u.5.G i.7.z.^ X ] m.m.w.6.4.,.:.,.",
"<X=X_.*X*X=X,X<XtX1XyX1X0 6XLXzXU u rX_   x [.|.-X/.a.g.>XqX>X>X).a.j.oX[.:Xx + + &.1.1 _ t.b 5.7.u.z.u.0.e.Z.z.S.n.e.w.7.5.5.,.",
"6X*X.XoX*X<X<X2XsXvXkXkXQ.gXbXMX%.= $ o % e |.<X-X-X-Xl.| K { { A.).:X|.7X7XB ; > o e X d.d.h.4.7.9.u.w.OXV.M.N.D.Z.m.e.e.w.6.,.",
"2XOXoX;X;X<XyXsXbXBXGXGXbXbXNXQ.w d w 0 e % k.U.].-X:X:X:X-X-X-X:X|.(.A.&.%.; o e e B w %.z.u.8.9.fXKXKXKXLXLXLXK.K.B.b.b.e.w.6.",
"<X;X;X2X6XiXqXkXNXGXFXGXGXGXGX&.w Y b e % . , % r x c G G x c x 3 3 @ O % : o k e b b w z x.8.C.KXKXLXLXLXLXLXLX#XL.K.J.N.v.e.6.",
">X4XsXgXgXgXkXjXNXFXHXGXHXHXHXbXb b b b b e 0 % % % @ O O @ @ + @ 3 @ 5 : ; > b b P n w %.LXKXKXLXLXLXLXLXLXLXLXwX&X#XL.D.m.e.e.",
"4X6XfXjXjXxXxXzXBXZXHXHXHXHXHXHX-.w U b b r w e > % , 0 1 , , , ; 0 > > 0 w b N P w U Y p.LXKXLXLXLXLXLXLXLXLX0XwXxX9X&XL.D.m.e.",
"%XqXfXlXjXjXkXlXxXVXZXVXZXKXKXLXuXf P d w P b k 0 0 0 0 < > > > $ % 7 = p d P b P w w ^.OXKXLXLXLXLXLXLXLXLXLXAXHXKXLXLXVXL.N.m.",
"$X5XwXlXjXeXwXeXeXVXVXxXKXKXLXJXKX%.w P P I P k w 9 = = = = < y - 9 b w P P P b P P g FXLXKXLXLXLXLXLXLXLXLXLXLXLXLXLXLXLXXXD.D.",
"$X$X9XqXqX0XqXeXeXeXxXxXLXLXKXHXGX Xw I w w b b P b w w p 9 7 9 v y P d P d g P P g P SXLXKXLXLXLXLXLXLXLXLXLXLXLXLXLXLXJX9XH.G."
};
