/* XPM */
static char *_646085433123[] = {
/* columns rows colors chars-per-pixel */
"64 64 243 2 ",
"   c #3F2233",
".  c #5A0E39",
"X  c #4C1033",
"o  c #58153A",
"O  c #650D3C",
"+  c #681437",
"@  c #77153D",
"#  c #7B143C",
"$  c #4F263B",
"%  c #702739",
"&  c #5C1D42",
"*  c #690D44",
"=  c #6D0E45",
"-  c #720E45",
";  c #7B0F46",
":  c #740D4A",
">  c #7B0E4D",
",  c #681647",
"<  c #751143",
"1  c #7A1149",
"2  c #7D0E51",
"3  c #771650",
"4  c #592742",
"5  c #5D2943",
"6  c #56364C",
"7  c #652A49",
"8  c #66344D",
"9  c #742D51",
"0  c #6C3954",
"q  c #743254",
"w  c #7C345A",
"e  c #74385A",
"r  c #524656",
"t  c #684659",
"y  c #76435B",
"u  c #645157",
"i  c #52596A",
"p  c #784863",
"a  c #7A556A",
"s  c #735869",
"d  c #52697A",
"f  c #73656D",
"g  c #7C6573",
"h  c #786F76",
"j  c #871739",
"k  c #8D193C",
"l  c #93173E",
"z  c #931A3B",
"x  c #9B1B3E",
"c  c #A21C3F",
"v  c #810F4E",
"b  c #831343",
"n  c #8D1744",
"m  c #84124D",
"M  c #8C134B",
"N  c #961747",
"B  c #9B1A43",
"V  c #830D55",
"C  c #8B0E55",
"Z  c #8B0D5A",
"A  c #920F56",
"S  c #920F59",
"D  c #8B1152",
"F  c #941154",
"G  c #9C1354",
"H  c #A41C43",
"J  c #AB1C44",
"K  c #A3184C",
"L  c #AB1A4C",
"P  c #B31D46",
"I  c #BB1B47",
"U  c #B41B4C",
"Y  c #BC1D4B",
"T  c #A41553",
"R  c #AB1751",
"E  c #AD1851",
"W  c #B31A51",
"Q  c #BA1B50",
"!  c #902D49",
"~  c #8B3C54",
"^  c #82365D",
"/  c #843B62",
"(  c #993D7A",
")  c #C21E4C",
"_  c #C1204B",
"`  c #87486A",
"'  c #875469",
"]  c #8B5574",
"[  c #96577A",
"{  c #87657A",
"}  c #8B6B7E",
"|  c #906D76",
" . c #88727D",
".. c #53857B",
"X. c #60857F",
"o. c #8B8578",
"O. c #567285",
"+. c #59768A",
"@. c #667E8E",
"#. c #A35685",
"$. c #8D6D81",
"%. c #946B83",
"&. c #8B7281",
"*. c #8B7C84",
"=. c #9B738C",
"-. c #957889",
";. c #9E7C92",
":. c #A76E91",
">. c #AB6C90",
",. c #A37B94",
"<. c #A57995",
"1. c #B4759B",
"2. c #6E8993",
"3. c #65989D",
"4. c #6894A9",
"5. c #759DB2",
"6. c #36AFE6",
"7. c #39AFE6",
"8. c #33AFE8",
"9. c #3BB0E7",
"0. c #3BB1E8",
"q. c #40B2E7",
"w. c #4BB2E7",
"e. c #43B3E8",
"r. c #4CB3E9",
"t. c #53B5E9",
"y. c #5BB7EA",
"u. c #57B8EB",
"i. c #5CB9EB",
"p. c #60B7EA",
"a. c #63BAEA",
"s. c #6CBDEB",
"d. c #72BEEB",
"f. c #74C1EC",
"g. c #7BC3ED",
"h. c #7ECAED",
"j. c #8C8589",
"k. c #94858B",
"l. c #998893",
"z. c #869398",
"x. c #9B989B",
"c. c #A18088",
"v. c #A7889B",
"b. c #B1829F",
"n. c #A5949D",
"m. c #929FA3",
"M. c #B585A3",
"N. c #B886A5",
"B. c #B88BA7",
"V. c #A99AA4",
"C. c #B797AB",
"Z. c #BE9AB1",
"A. c #83A7B9",
"S. c #97AAB4",
"D. c #A5A3A5",
"F. c #AAA5A9",
"G. c #ACAAAC",
"H. c #B2A6AB",
"J. c #B4ADB2",
"K. c #BBA8B4",
"L. c #AEB0B1",
"P. c #B6B3B6",
"I. c #BCB5B9",
"U. c #BDB9BC",
"Y. c #C39CB4",
"T. c #C6A6BB",
"R. c #C2B8BE",
"E. c #8BB1C3",
"W. c #98B8C8",
"Q. c #BEBEC1",
"!. c #CCADC1",
"~. c #C4BDC2",
"^. c #CBB9C5",
"/. c #D5B9CB",
"(. c #A1C1CF",
"). c #A2C2D1",
"_. c #A8C5D4",
"`. c #83C6EE",
"'. c #85C8ED",
"]. c #8BC9EE",
"[. c #94CBEE",
"{. c #9BCEEE",
"}. c #8DD0EF",
"|. c #9DD0EF",
" X c #9AD2F0",
".X c #A2CFEE",
"XX c #A3D2EF",
"oX c #ADD4EE",
"OX c #B3D6EE",
"+X c #BBD8EE",
"@X c #A3D3F0",
"#X c #AAD9F1",
"$X c #B8DBF1",
"%X c #BCE1F4",
"&X c #C6C2C5",
"*X c #C9C3C6",
"=X c #CBC5C9",
"-X c #CDC9CC",
";X c #D3C6CE",
":X c #DCC7D5",
">X c #D4CDD2",
",X c #CFD0D0",
"<X c #D5D2D4",
"1X c #D9D2D6",
"2X c #DBD5D9",
"3X c #DDDBDD",
"4X c #E2CCDA",
"5X c #E2D7DE",
"6X c #E0E0DF",
"7X c #C7DBED",
"8X c #D1DEEA",
"9X c #E8D7E2",
"0X c #E4DDE2",
"qX c #EADCE5",
"wX c #F0DDE9",
"eX c #CCE0EF",
"rX c #DFE2E2",
"tX c #D4E1EE",
"yX c #DBE4EE",
"uX c #C7E7F6",
"iX c #CCE4F4",
"pX c #D7E9F5",
"aX c #DDEEF8",
"sX c #E5E3E4",
"dX c #E8E2E6",
"fX c #E3E7EE",
"gX c #ECE4EA",
"hX c #EDEAEC",
"jX c #F1E5ED",
"kX c #F1EAEE",
"lX c #EFF0EF",
"zX c #E5EBF2",
"xX c #F4EDF2",
"cX c #F8EEF4",
"vX c #EBF1F3",
"bX c #E5F2F9",
"nX c #EBF4FA",
"mX c #F6F2F4",
"MX c #F9F3F7",
"NX c #F2F6F9",
"BX c #FBF5F9",
"VX c #F5F9FC",
"CX c #FEFEFE",
/* pixels */
"9.0.9.7.0.0.8.8.8.8.8.8.8.8.6.6.6.6.6.6.7.7.7.7.7.7.7.7.6.6.6.f.VXCXG.sXCXuXt.e.w.w.w.w.w.w.w.w.w.w.w.e.w.w.w.w.w.w.r.r.e.r.e.w.",
"0.0.0.0.0.0.0.0.0.7.0.8.6.0.7.7.6.7.7.7.7.7.9.9.9.9.7.7.0.u.h.pXCXNXu I.CXCXpX|.r.w.r.r.r.r.r.w.w.w.w.w.w.t.w.w.w.w.r.w.e.r.r.w.",
"q.q.0.q.0.e.0.0.7.0.0.0.0.7.7.7.9.7.9.9.9.9.9.9.9.7.9.q.}.nXCXCXCXI.o o.CXVXCXCX|.r.w.r.r.r.w.w.w.w.r.r.w.t.w.w.w.w.w.w.w.r.w.r.",
"q.q.q.q.0.e.e.0.0.0.0.0.0.7.0.0.9.9.9.9.9.9.9.9.9.q.u.#XVXCXhXrX&Xq - q sXG.sXCXVX%X].a.t.t.t.w.t.w.t.t.w.w.w.t.w.w.w.r.r.w.r.r.",
"e.e.e.e.e.e.e.0.0.0.0.0.0.0.0.0.9.9.0.9.9.9.9.u.h.#XaXCXCXlX .t w D 1 z k.o. .MXCXCXCXbX|.a.t.t.t.t.t.t.w.t.t.w.r.r.r.r.r.r.r.r.",
"r.r.e.e.e.e.e.0.e.e.e.0.0.e.0.e.e.0.9.e.u.f.h.uXVXCXCXCX,X] . O G Z j Y H t j | rX<XVXCXCXaX|.s.t.t.t.t.t.t.t.t.y.t.t.t.r.r.r.y.",
"e.r.e.e.e.e.r.e.e.e.e.e.e.e.e.e.e.e.0.'.nXVXCXCXCX<X<Xl.9 - - R G D k P P z x B p u o.5XCXCXCXbX.Xp.t.y.t.t.t.t.r.t.t.t.t.t.y.t.",
"r.r.r.r.e.r.r.r.r.r.r.e.r.e.r.e.e.r.r.uXCXlXsXCX<X6 $ m C * K U C m H J J Y k U A X + ~ c.,XCXCXCXiXs.t.t.y.t.t.t.p.t.t.y.t.t.y.",
"r.r.r.r.r.r.r.r.r.r.e.r.e.e.t.e.r.e.u.uXCXD.8 l.{ O : G < M Y N D n H J c _ z J K > . M K ! -.5XCXCXaX|.f.y.y.y.p.p.p.y.y.y.y.y.",
"u.u.r.r.u.r.r.r.r.t.u.e.u.r.e.u.r.r.r.%XCXsXe - o = V M = W Y # C l J Y z _ J z K V @ # m W c ~ R.CXCXCXbXd.p.p.p.p.p.p.y.p.y.y.",
"r.u.r.u.u.r.u.u.u.u.t.u.t.r.u.r.u.r.r.}.CXCX{ V : = M < M ) P @ F z J ) z P I j R V n P j m U I ~ 6X,XmXCXOXa.a.p.p.p.p.p.p.y.y.",
"u.u.u.u.u.u.u.u.u.r.u.r.t.t.u.u.r.u.r.h.VXCX} v : = N O T ) J - G J k ) J z _ z G V j _ Y k M Y J  .f 6XCXVX%Xf.p.p.p.p.p.p.p.p.",
"u.u.u.u.u.u.u.u.u.u.u.u.u.u.u.u.u.t.r. XCXVX' V = 1 n = T _ J 1 G ) z x Y k I z K v k _ ) _ j G _ % & | hXCXCXbX`.p.s.p.p.p.p.p.",
"i.i.i.i.u.u.u.u.u.u.u.u.u.u.u.u.i.u.a.pXCXsXe : : > n < G _ P < F ) I j J J c j L 2 B _ Y _ l M _ c m H ' =XCXCXjX`.s.p.p.d.p.d.",
"i.a.i.i.u.u.u.u.i.i.i.i.i.i.u.i.i.u. XCXCXF.: : V > B < F Y I < G ) ) J z _ z j E > B _ ) Y J # E _ N G P ! H.BXBXoXp.d.p.d.d.s.",
"a.a.a.a.f.i.i.f.i.i.i.i.i.i.i.i.i.'.bXCXsXe V = Z 1 H @ V R _ ; Z Y ) Y j J j z W 2 n _ ) J _ x b _ J m W I ! >XBXiXd.d.d.d.d.p.",
"f.i.i.a.a.f.i.i.u.i.i.i.i.a.i.a.%XNXCXCXv.1 2 : S v K n - F Y k > E _ _ j z l j U V j _ _ l Y _ j K _ n T ) x J.CXaXf.d.d.s.d.s.",
"a.f.f.a.a.i.i.f.f.i.a.a.a.a.i.f.NXBXlXdX0 C > : A F F E * 2 E H 1 N _ I j j L @ J S 1 J Y # U _ H n _ B G ) x H.CXVX{.d.d.d.d.d.",
"f.i.f.a.i.f.f.i.a.a.a.i.f.a.a.h.NXNXh f , Z V * Z R S T M = R P < A I J j z W ; B T 2 k _ j F _ H j ) H N ) j s mXCXaX`.d.d.d.d.",
"f.f.f.a.f.i.f.f.f.i.f.f.a.a.f.f.nXCXn.o * Z Z : 2 R T G M = E P < F I c z z Y D @ U F < Y l b ) B m Q J B Y b n K.CXCXiX`.d.f.d.",
"f.f.f.f.f.f.i.f.a.f.a.i.s.s.s.f.bXCX=X& = Z Z 2 : T R F < m Y x 1 G _ J J z ) T < J E > J P ; Q j C Y H P J v W ~ 1XCXCXoXd.d.f.",
"f.f.f.f.f.f.f.f.f.f.f.f.f.f.s.}.nXCX=X& : Z Z 3 2 T Q F = G P k A K I U P j I L 2 k Y D R P j J < F Y c _ H m Q c ' sXCXpX`.g.d.",
"f.f.f.f.f.f.f.f.f.f.f.f.f.a.].nXCXCXl.* 2 Z 2 : Z Q U A > U x B K x P Q Y # L W C @ U F R J b B - S P H ) B m Q ) P n.CXNX[.d.`.",
"f.f.f.f.f.f.f.f.f.f.f.f.f.g.pXCXCXJ.3 * Z Z : 2 G _ Y S A J B Y J x W R ) j F R S 1 J A R B n z > S K J ) B M P ) c ' mXCXoXd.`.",
"f.f.f.f.g.g.g.g.g.d.g.d.f.#XCXCXI.3 2 : Z Z = 2 G J H v F n J ) J H W A W M F G A > B A E k G H V Z n Y _ B n c ) c y lXCXXX`.`.",
"f.h.g.h.g.g.d.g.g.g.g.g.].nXCXsXe V 2 , 3 3 p %.,.v.v.a M j K W U Y E Z D D Z S S > N S J b Q P D V ; P _ B B x ) c o.CXCX|.g.`.",
"g.g.g.h.g.g.g.g.g.g.g.g.iXCXCXl., q %.C.s n.hXmXcXwXZ.e F m F G U Q T Z = C 2 V Z 1 M T n N ) P C V : K Y x H H ) ! 3XCXNX[.`.`.",
"`.`.g.g.g.`.g.g.g.g.`.uXCXCX>Xh H.3XsXU.Q.BXwXK.;.` 7 - 3 : 3 3 N ! D V , C = V C - G H m U P 1 > V < L n J x P c 8 6XCXVX.X`.`.",
"`.`.`.`.`.h.`.g.`.g.$XCXCX3Xx.3XCXJ.h >XMXBXC., . * ` V.I.K.K.C.v.$.3 : : V = V > > R n G Y b 2 : : > n n B B U # X { mXCXiX'.'.",
"`.`.`.`.`.`.`.`.`.].bXCX3XD.dXBX1Xt H.BXBX4Xp : 0 V.0X:X/./.Z.;.a 7 2 * V = 2 V > C L m L l = = . = 2 < M b B m + . o I.CXbX[.].",
"`.`.`.`.`.`.`.`.`.[.VXCXF.3XBX=X0 t dXBX9X{ 7 %.2XxX!.,.s 0 8 , . * Z * 2 = Z 2 V G B ; ~ ' v.F.*.9 = = 1 F 1 : @ < . k.CXnX[.].",
"].].].].].`.].`.`. XVXVXD.xXBX=X, V.BXgX;.f ^.xXwXT.1.g *.*.p 7 & . : * > = 2 : 3 ~ [ F.1XmXBXVXBX&X8 : Z = 2 < K = + k.CXvX{.].",
"].].[.`.].].].].].XXVXCXF.hXMXdX*.hXMX:X-.0X4X!.B.=.-.J.*X=XQ.G.z.x.-.a g { &.V.R.5XMXCXMXMXMXMXMXBXn.> > : ; B G * + n.CXvX{.].",
"].].].[.[.[.[.[.[.OXCXVXD.hXMX5XK.BXMXK.V./.M.=.-.H.6XxXMXmXdXMX0X^.mXcXxXcXmXBXBXBXMXMXMXMXMXMXMXCXH.: = 2 # U 1 * % R.CXbX[.[.",
"[.{.{..XoXoXoXOXOXpXCXhXD.gX~.v.U.MX9X;.~.Y.<.a v.Y.Y.T.T.T.v.gXBX1X1XBXBXMXMXMXMXMXmXCXcXjXmXBXMXCXl.: - : n C = O y 6XCXpX[.[.",
".XoX+X7X7X7X7X+X7XnXCX=X~.BXqX2X~.!.B.n./.B.{ <.M.a { } } } s C.cXxX-XcXcXMXMXMXMXBXMX2XI.U.I.>XxXmX{ = V O - = O 7 R.CXCX+X[.{.",
"7X7XtXtXtXtXeX7XOXNXCXG.5XBXBXBXmXwX/.U.T.$.} N.b.{ T.5X5XqX;X| K.xX0XqXBXmXBXBXCXdXU.R.gXMXhX=XI.5X .= : . : * : &.VXCXaX|.{.{.",
"8X8XtXtXeX8X7X+XoXNXCXG.0XNXBXmXjXMXmX^.,.{ M.M.} K.dXkXBXMXMX;X=.C.;X1XBXBXmXxXJ.j.K.qXBXBXmXBXsX&XI.7 O , e 7 7 ,XCXNXoX[.[.{.",
"tXtXyXyXtXtX8X+XiXCXCXF.dXBXMXmX4XjXBXqX-.$.Y.%.n.=X2XxXMXBXmXmX^.=.%.K.mXmXxXl.a -.R.xXMXMXgX<XmXMX0Xa X n.sXJ.n.CXCXpX{.{.{.{.",
"yXyXyXyXtX7X7X8XVXCXhXD.cXMXMXcX!.qXBXBX1XK.B.$.5X5XdXhXhXjXkXlX>Xv.N.v.gXBX9Xb.;.K.mXBXBXBXBXsXhXBXCXj.f 3XK.F.-XCXnXoX{.{.{.{.",
"tXtX7X7X7X+XoXfXCXCXG.<XMXMXMXcXY.4XMXMXcXgXI.,.>Xx.x.F.x.h o.D.j.k.M.l.xXMX/.b.J.sX>X~.R.U.U.=X1XdXBXV.F.*.C.-.~.CXbX.X{.{.|.{.",
"7X7X+XOXOXOX$XMXCX,XJ.MXmXMXMXqXb./.xXMXMXBX~.,.9XQ.F.=X1XH.D.*XD.j.K.;.3XmX:X;XD.V.I.-X<X<X,XH.x.>XcXH.h { V.C.R.CXnXXX{.|..X|.",
"oXOXoXoXoXOXbXCXNXD.dXBXBXMXBX;X=.B.B.~.xXBX^.%.wXBX5X^.BXBXBXmX>XQ.J.-.;XBXMXfXJ.0XNXBXBXBXhXlXkXMXsX@.%.%.*.-X-XCXbXXX|.{.|.XX",
".XoXoXoXoX$XBXCX&XU.BXMXMXMXBXK.;.M.B.=.l.9X/.} K.;X,.%.lXBXBX-XQ.kXkX*.!.BXMXxXmXMXBXBXMXBXx.Q.BXBX&Xf M.{ l.0X<XCXbXXXXXXX{.XX",
"oXoXoXoXoXaXCXmXD.hXMXBXMXMXxXJ.!.N.N.N.:.v.!.=.$.p ( #.-.G.sXR.cXBX>X-.Q.BXMXMXMXMXBXmXMXMXz.z.BXMXD. .M.g 1X1XsXCXaXXXXX@X@X@X",
"oXoXOXOX$XBXCX&X~.BXmXMXMXBXjX~.cX4XY.N.M.1.M.=.K.$.( ( y n.-XgXBXMXJ.M.^.cXMXBXMXMXMXmXmXcXX.2.jXdXl.-.%.P.hX~.MXCXiX@X@X@X@X@X",
"oXoXoXoXpXCXVXD.gXBXmXMXMXBXgX~.BXMXjX/.N.N.M.$.v.f =.P.=X<XdXMXBXgXJ.Z./.BXBXcXBXMXMXBXBXdX2...1X~.g } x.3XU.sXCXVXOX@XoXXX@XoX",
"oXOXoXoXbXCX3XG.BXMXBXBXmXBXqX~.BXMXxXT.B.!.1X^.Q.2XmXBXBXBXBXBXBX1XJ.N.9XBXBXcXMXMXMXMXBX>X...._.x.k.*X*XP.hXCXCXpXoXXXoXoXXXoX",
"OXOXoX7XVXCXP.,XBXMXMXMXMXBXgXR.BXMX!.Y.4XMXBXBXBXBXMXBXBXVXMXgX>XJ.K.<.:XBXBXmXBXMXMXMXBX<X....R.H.lX-XG.MXCXVXpXOXoX+XoXoXoXoX",
"oXOXuXnXCXMXD.kXMXMXMXMXMXVXgX&XBXwXY.9XBXBXMXMXMXBXxX4X>XK.v.l.V.9XV.<.~.BXBXBXMXmXBXmXNXxXL.x.;Xk.G.L.mXCXCXpXOX+XeXpXeXpX7X+X",
"+XpXVXCXCX<XG.BXMXMXMXMXMXBXsX-XBX/.:XMXBXMXMXMXMXMX!.$.=.v.T.4XcXxXn.-.2XcXmXBXMXMXMXBXBXMXBXBX,XL.lXCXCXCXVXtX7XtXzXhXzXzXzXyX",
"bXCXCXhXV.f >XCXMXMXMXMXBXBX5XsXjX:XcXBXMXMXMXMXMX/.$.v.4XkXMXBXBXcX>X*.T.Z.Z.jXBXMXMXmXBXMXBXBXG.u G.-XlXCXCXCXNXzXyXfXfXfXzXyX",
"CXCXlXj.e g kXMXBXcXcXBXBXcX5XkX4X9XBXMXMXMXMXMX:X%.%.4XMXgXmXBXBXMXMX~.-.C.Y.qXBXMXMXBXMXMXMXBX .$ @.5.z.J.hXCXCXCXNXzXyXyXfXzX",
"mXI. .[ y R.BXMXBXBXBXcXcX:X4XxXY.9XBXBXMXMXMX5X,.t v.xXcXI.=XgXgXkXcXBXqXxXMXcXcXmXmX3X0XMXBX2Xr $ d E.(.m.2.G.2XCXCXCXNXfXyXhX",
"*.t 0 1.` -XBXMXBXBXBXcX/.Y.jX:XB.9XwXwXqXxXjXB.0 t &.&XBXxX>X~.~.=X-X1X2X-X*X~.~.~.~.-XxXMX-Xf $ $ r 5.(.).(.A.z.D.6XCXCXNXtXtX",
"[ ` p 1.` H.jXjXjX9X/.Y.Y.Y.T.C.N.Y.B.B.B.Y.,.6 q p M.&.*XBXBXNXMX0XqX0X2X0XkXhXhXjXxXBXMXP.G.-.7 $ $ 2.(.(.).)._.A.2.U.CXCXaX7X",
"1.` 0 1.[ p v.;.,.=.=.=.=.<.B.N.B.B.N.1.-.t $ 4 q a C.1. .-XBXMXMX0XI.V.v.n.Z.=XgXmXMXcXV.*.hX&.7 4 4 O.W.).).).).).).2.2XCXVXeX",
"1.[ 8 :.` q a <.<.<.;.;.=.<.N.B.B.1.=.i d 6 7 5 w p !.<.=.&.2XMXMXVXmXwX9X9XgXcXMXMXmXV.f I.hX' 0 8 4 i E.).).).).).).S.m.CXCXbX",
"1.>.q e ^ ^ q 0 { <.;.{ { { ' a s d +.d O.6 7 7 ` / V.K.{ <.j.hXBXMXMXBXBXBXMXMXMXMXH.$.l.gXI.y 0 w 5 r 5._.).).).).).).z.,XCXCX",
"[ 1.` 7 7 ^ ^ ^ q q 8 y ' a 0 9 6 3.4.O.O.4 7 7 [ [ p =X&.1.=.V.MXMXMXMXMXMXMXMXBXU.$.V.Q.0Xa ` 0 ` 8 i 5._.).).).).).).S.z.mXCX",
"y >./ ^ 5 7 q ^ ^ ^ ^ w e w w 6 O.4.2.+.O.7 8 7 ] 1./ &.K.-.N.$.Q.BXBXmXMXMXMXBX-X} T.J.>X&.` ` w [ 7 i 5.).).).(.).).)._.m.L.CX",
"q ` ^ ^ ^ q 4 5 7 q q q q 7 4 O.5.E.4.4.d 8 7 q ` 1.#.w *.j.T.M.$.>XBXBXMXMXBX>X .Z.qXx. .` #.0 ` [ 7 i 5.W.).).).).).).).(.z.rX",
"/ 7 8 ^ ^ ^ ^ 9 8 7 5 5 4   i 4.W.).5.4.O.9 5 w q >.1.[ e t C./.<.&.,XxXcXkX~.&.B.gX<Xt ` >.a q #.` e d 5.5.).).).).).(.).).E.G.",
"#.` t 0 ` ` ` ] ` ` ` ` 6 d 5.(._.W.A.5.@.p 0 ` p { N.N.#.` s P.!.v.*.l.x.j.&.C.5XI.g ] 1.>.p ] b.a ' @.5.5.)._._._._._._._._.W."
};
