/* XPM */
static char *_646086685350[] = {
/* columns rows colors chars-per-pixel */
"64 64 256 2 ",
"   c #3F473A",
".  c #4B5F3D",
"X  c #525D54",
"o  c #515449",
"O  c #7A5B57",
"+  c #71564F",
"@  c #596558",
"#  c #50644D",
"$  c #6A655B",
"%  c #7C645C",
"&  c #667455",
"*  c #597768",
"=  c #537468",
"-  c #796B67",
";  c #65736A",
":  c #6A766A",
">  c #767869",
",  c #6C7B73",
"<  c #787A74",
"1  c #6B6C65",
"2  c #7F5E65",
"3  c #3C5551",
"4  c #885957",
"5  c #955759",
"6  c #864F4B",
"7  c #89695B",
"8  c #85745C",
"9  c #9E6B58",
"0  c #A4735C",
"q  c #8D5D62",
"w  c #866867",
"e  c #867469",
"r  c #987A67",
"t  c #867875",
"y  c #987975",
"u  c #946D6F",
"i  c #A57A65",
"p  c #A67A7A",
"a  c #B17B67",
"s  c #488879",
"d  c #59877A",
"f  c #548F7A",
"g  c #7A826D",
"h  c #678779",
"j  c #778778",
"k  c #6C937D",
"l  c #6F8A70",
"z  c #728F57",
"x  c #888978",
"c  c #988778",
"v  c #8A9679",
"b  c #91856E",
"n  c #B7866E",
"m  c #A98875",
"M  c #BC8A74",
"N  c #B98974",
"B  c #A6967A",
"V  c #AD8A72",
"C  c #9AB17A",
"Z  c #C28A75",
"A  c #C0866E",
"S  c #B67D86",
"D  c #897F80",
"F  c #C87E8D",
"G  c #4C8B82",
"H  c #4C9687",
"J  c #54958A",
"K  c #549B8C",
"L  c #599587",
"P  c #559D92",
"I  c #599993",
"U  c #549087",
"Y  c #678C84",
"T  c #778B82",
"R  c #659688",
"E  c #779687",
"W  c #669B92",
"Q  c #789B96",
"!  c #718F91",
"~  c #53A393",
"^  c #5DA499",
"/  c #5BAC9D",
"(  c #5BA597",
")  c #55A592",
"_  c #69A38D",
"`  c #65A599",
"'  c #77A799",
"]  c #6FAE9A",
"[  c #5EACA1",
"{  c #5CB4A3",
"}  c #62ACA1",
"|  c #6CAAA2",
" . c #76ACA6",
".. c #64B3A5",
"X. c #6CB5AA",
"o. c #65BCAD",
"O. c #6BBCAD",
"+. c #67B5A7",
"@. c #76B8AA",
"#. c #6CBDB2",
"$. c #66BDB1",
"%. c #78BAB4",
"&. c #78ADB1",
"*. c #6CC3B4",
"=. c #6DCBBB",
"-. c #6BC6B7",
";. c #73C4B4",
":. c #7AC3B5",
">. c #73C4BA",
",. c #7CC5BB",
"<. c #74CCBC",
"1. c #7BCBBD",
"2. c #75CAB6",
"3. c #76D1BD",
"4. c #6FC4B1",
"5. c #74CEC2",
"6. c #7BCDC2",
"7. c #7BC5C1",
"8. c #75D1C3",
"9. c #7BD1C3",
"0. c #76D1C8",
"q. c #6ECDC3",
"w. c #898B86",
"e. c #998A87",
"r. c #889688",
"t. c #999788",
"y. c #879A95",
"u. c #999995",
"i. c #A78888",
"p. c #B7898A",
"a. c #A99587",
"s. c #B59887",
"d. c #A79795",
"f. c #B79697",
"g. c #AD8E92",
"h. c #99A48D",
"j. c #89A599",
"k. c #98A597",
"l. c #93B19B",
"z. c #B8A58A",
"x. c #AAB687",
"c. c #A8A798",
"v. c #B7A897",
"b. c #B8B598",
"n. c #AFB28E",
"m. c #85ABA8",
"M. c #99A7A8",
"N. c #87B8AA",
"B. c #93BBAC",
"V. c #99B6A8",
"C. c #8AABB5",
"Z. c #87B8B7",
"A. c #96BBB7",
"S. c #94AFBA",
"D. c #A5ABA7",
"F. c #A9B5A9",
"G. c #B6B4A7",
"H. c #A7B8B4",
"J. c #B8BDB7",
"K. c #BBACA2",
"L. c #969FA5",
"P. c #C68A8C",
"I. c #C39C86",
"U. c #C68C92",
"Y. c #CF8E92",
"T. c #C8AA98",
"R. c #CAB69C",
"E. c #D4B39C",
"W. c #C8A78D",
"Q. c #C7B9A9",
"!. c #D8BAA7",
"~. c #C8BDB2",
"^. c #D4BEB1",
"/. c #CDAEA4",
"(. c #E4BEAC",
"). c #E5BEB3",
"_. c #B7C691",
"`. c #86C7BA",
"'. c #97C5B9",
"]. c #8CC3AF",
"[. c #A6C5B7",
"{. c #B8C4B8",
"}. c #B7C9B3",
"|. c #CBC4AC",
" X c #DEC3AD",
".X c #D9C6AA",
"XX c #C9C7B6",
"oX c #DDC4B2",
"OX c #DCCAB4",
"+X c #D6C9B8",
"@X c #D2D2BF",
"#X c #E2C4AE",
"$X c #E5C6AA",
"%X c #E3C4B2",
"&X c #E9C4B4",
"*X c #E3C9B2",
"=X c #E6C8B8",
"-X c #E1D5BD",
";X c #8CBCC1",
":X c #9ABAC3",
">X c #A4BEC5",
",X c #83CDC2",
"<X c #8BCAC4",
"1X c #9AC4C8",
"2X c #83D1C5",
"3X c #9CCBD0",
"4X c #A3C3CB",
"5X c #AAC6CD",
"6X c #A7CACC",
"7X c #B6C8CB",
"8X c #BCD5C6",
"9X c #A6CBD2",
"0X c #ABCBD3",
"qX c #A6C6D1",
"wX c #B5CDD3",
"eX c #B8D6D8",
"rX c #ACD1D6",
"tX c #BAE1DE",
"yX c #C2CAC6",
"uX c #D4C9C1",
"iX c #CBD5C8",
"pX c #D3D4CC",
"aX c #DADBC8",
"sX c #C8DAD5",
"dX c #D8DCD4",
"fX c #E3DDC5",
"gX c #E4DECB",
"hX c #EADDCB",
"jX c #E9DEC6",
"kX c #E4DDD8",
"lX c #ECD3C6",
"zX c #DDE3CC",
"xX c #D7E1CB",
"cX c #C9E2D9",
"vX c #DCE3D4",
"bX c #DDE5DC",
"nX c #D9E8D8",
"mX c #E4E1C5",
"MX c #E4E2CC",
"NX c #E9E2CC",
"BX c #E9E1C6",
"VX c #E4E4D2",
"CX c #EAE4D1",
"ZX c #E3E5DD",
"AX c #E4E9DC",
"SX c #E8E9D7",
"DX c #F2E2D2",
"FX c #CFDCE2",
"GX c #DCE4E2",
"HX c #DDEAE3",
"JX c #D7E8E8",
"KX c #D3EEE7",
"LX c #E3E5E3",
"PX c #E3EBE3",
"IX c #EAEAE6",
"UX c #ECF3EB",
/* pixels */
"BXBXjXBXBXmXmXmXmXaXaXaX@XiXdXvXLXIXf.u w.y.B.[.D.d.s.t D.yX9X;X#.7.3X:X:XC.:XFX>XS.S.1X4XqX3X9X:X>XrX0X9X9X9XqX3X:X>XD.D.LXkXpX",
"BXBXBXfXmXmXmXzXmXBXMXMXaXxXpXpXLXkXg.< y.4XV.u.t.g.d.i.D.7XA.;X<X%.;X:X;X:X:XeXA.C.Z.C.:X3X>XqX>X>XrX0X9X9X9X9XrXqX>XS.L.IXLXLX",
"BXBXmXmXmXmXBXBXzXmXMXCXCXCXdXpXLXLXu.< H.F.d.f.f.g.d.u.M.A.].2X<X7.Z.;X;XC.:XeXZ.<X<X%.;X3X3XqX>XqX0XqXrX9X9X9XrX0X>XD.L.GXLXGX",
"mXmXmXmXBXBXhXBXBXMXMXCXkXCXdXpXLXJXV.Q V.u.g.f.d.d.M.L.! Z.<X3.6.,X&.C.C.C.qX>X%.2X6.6.#.;X3X>X>X>XrX>XqX9XqX0XqX>XyXS.D.GXLXFX",
"mXmXmXmXmXmXBXBXmXMXVXMXCXSXkXpXGXsXM.r.u.f.d.d.S.'.<X| %.<X`.3.2.7.&.Z.C.C.:X;X1.3.0.9.7.7.1X>X>X>XwXqXqXqXrXqX0XFX7XL.M.GXLXGX",
"mXmXmXmXmXmXBX-XmXmXzXVXVXAXdXpXGXGXF.D g.U.e.V.`.*.X.} ,X`.3.+.[ 7.%.Z.;X;X&.%.2X8.8.8.0.%.;X3X:XqXrXqX9XrX9XqXqX>X>XL.M.LXGXGX",
"zXmXmXmXmXmXmXBXNXNXMXCXVXZXaXpXGXGXD.w S g.y.@.@.#.#.1.6.1.*./ ~ %.%.&.;X;X&.7.7.<.5.0.,X7.%.1X:X>XrXqXqXqX9X9X0X>XwXM.D.GXLXdX",
"mXmXmXmXBXmXBXmXmXmXBXMXVXZXaXpXJXJXf.t i.w.N.`.6.6.#.6.6.1...K G ( `.I | | %.2X6.+.#.6.7.<X%.;X;X3X9XqX0XrXrX9XrXrX>XL.D.GXIXLX",
"mXzXmXBXmXBXmXmXmXNXzXMXVXAXxXpXGXLXd.- D y.`.,X6.#.<.<.1.;.I G W J X.@.X.] 1.1.} ` / %.9.,X7...&.1XrXrX6XrX0X0XrXqX7XM.M.LXLXIX",
"mXmXNXBXmXmXmXBXmXmXMXVXzXnXaXpXIXsXL.T ! Z.`.3.>.$.3.6.,X` G I J U ( O.@.+.1...P H ` +.`.2X6.#.X.%.1X:X6XrX0XrXrX0XqXM.M.LXLXLX",
"BXNXmXmXBXBXmXmXmXMXMXMXVXgXdXcXcXB.B.<X:.1.9.8.*.*.9.6.;.J U L K L H ] +.:.%.P H K J ` 2.<.0.>.>.,. .@.Z.6XrXqXwX0X7XM.M.LXLXLX",
"c.@XSXMXzXmXmXBXBXmXMXMXZXAXsX[.N.`.,XO.5.0.<.<.o.<.6.1.` s W U _ H f K ( ;.( J K K J J +.3.8.5.$.2X2X<XZ.3XeXeXwXwX7XL.D.JXLXLX",
"r.l.[.}.nXnXmXmXNXmXSXzXbXsXN.@.@.`.`.;.5.5.8.=.4.1.3.;.P s G L L f R s ] +.U U J ` f K ) 3.9.5.-.>.2X,.`.<XKXFXFXFXyXL.S.JXLXGX",
"B.[.[.V.F.XXzXBXmXBXMXPX8XB.'.@.:.9.-.5.6.0.9.#.*.1.3.} I J s R L R d d ] ` U U W J ( s K ;.5.9.*.<.3.1.2X%.rXKXFXJXFXM.D.LXLXLX",
"[.V.V.c.i.c p.!.lXNXzX}.].`.O.4.9.5.*.5.5.0.7.X.<.`.2.L J W = Y Y R h d d L U R R I J L H | 9.9.<.2.9.=.>.`.N.wXFXFXGXD.D.JXLXLX",
"j.r.w.i.g.U.U.p.m v.h.j.@.] ) 4.0.-.-.8.<.8.,.[ 5.3.:.d , Y , , < j < : : ; j ! Y ! U L s ( 2X3.2.*.9.=.o.6. .C.qX>X7XM.H.GXdXdX",
"p.p.P.P.U.p.f.S p i.j ' :.@.( 2.3.*.0.5.8.9.X.[ 5.1.' 1 - w y N p.Z p.p.m S e.t T , R L L P <.9.>.O.9.<.O.1.:.X.A.1X5XM.H.LXdXpX",
"F Y.P.p.g.i.i.y g.u.j.`.,...+.3.-.*.5.8.<.<.../ 9.<XY t u p P.Y.P.P.P.Y.U.P.P.p.S x < Y W U X.2X2...5.9.#.2.1.#.%.Z.6XM.F.LXLXIX",
"S p.g.t.l.H.u.d.e.y. .+.^ / ,.1.4.;.8.q.<.2.( ..6.%., > w e.i.c i.i.g.p.p.U.P.P.U.p.u w j * | `.<.{ -.9.4.*.9.;.%.Z.9XM.H.HXLXdX",
"w t m.A.`.B.w.u.y.m.%.<.....6.<.O.2.<.5.9.#.H ` ,X@.* : e.e.c.w.e.t.i.S D p.p.p.p.U.U.y - ; _ `.<.{ -.9.*.*.`.:.7.%.4XC.H.PXJXJX",
"h E W ` N.j.e.u.B.<X6.#./ *.0.-.O.3.q.5.1.} s ] `._ j t.XX~.~.|.XXXX^.Q.Q.Q.c.u.a.c g.y u > E :.1.{ -.0.-.4.9.1.#.%.A.C.H.JXsXA.",
"k _ ` _ Q , w.r.`.1.>.{ o.<.5.*.*.9.8.5.,.P s ] '._ h.|.+X+X+X+X+X+XoX+X+X+XXXXXF.c.a.u u - h ].`./ *.9.-.o.1.2X>.,.C.M.L.M.'.'.",
"l.k R W T : 1 ! `.3.4.{ { 3.8.$.-.5.=.9.:.L = R _ l c.-X+X^.OXOX X(.&X&X%X+XOX+X@X+X~.t.t ; d ].`.~ o.0.<.o.1.1.>.%.N.Q E k.B.'.",
"zX@Xl.E : 1 h _ 2.4.( { { 2.=.*.5.8.5.1.` = * k Q : c v.%X#X X$X#X&X).).#XoXoX^.OX+X+XXXd.j * @.`.G ..6.<.o.9.1.9.#.Z.Y < u.j.B.",
"zXzXnX@Xc.> ' ] / ) { ) *.3.-.{ 5.q.5.%.L k r.k.k.c.|.s.s..X*X.X X%X%XOX XOX#X#X X+XOX=X/.c.l j.`.G } 2X1.4.<.3.<.,.N.y.i.S g.g.",
"SXmXxXzXSX}._ @.s H 4.) -.=.-.*.=.q.5.`.E v r.h.c.c.uX^.z.a.R.*X#XoX*XOXOX X*X%X%X*X.X^.).a.v j.Z.= ` ,.>.-.9.<.<.1.`.j.p.F p.U.",
"MXmXzXzXxX].` K P ( { ~ >.5.*.*.8.3.<.:.k t.v h.u.~.e.e % B z.!.#X*X%X%X*X%X%X%X%X#X%X%X(.v.v r.m.d _ 1.1.#.3.8.5.1.`.V.g.Y.p S ",
"NXmXmXzXiXN.) ~ %.@.~ K >.9.$.-.<.3.2.@.k t.t.u.T X o o o $ v.T.!.&X&X#X*X%X%X&X%X#X(.%X=XT.a.h.l.E I ,.>.o.5.5.9.1.`.B.i.U.y S ",
"MXzXfXzX}._ ` 9...| G I 7.5.{ =.3.{ *.@.l h.< g ; T r.> $ X s./.!.#X=X#X%X*X#X#X#X#X#XOX=Xv.t t j E _ 2.2.{ 5.q.6.5.:.B.u.g.i.i.",
"zXzXmXSX}.] `.2.( ( s ~ >.5.4.=.=.~ o. .j >   1 y.sXUXD.o o y /./.^.=X=XoX%X#X*X%X%X%XT.i.x b x g : R `.#.[ 5.5.5.5.#.].u.e.L.e.",
"VXaXNXzX[.].3.O./ ( G ~ -.=.{ =.3.H o. .X   y.u.y.GXHXr.o & x ~.#X#X%XoXOX%X%X*X=XT.a.c b e.t.e.b.j d N.@.[ 5.0.q.q.$.:.j.j y.< ",
"zXVXfXzX].].2./ / K G ~ -.=.{ <.-.H { | 3 y.sX>Xw.bXH.@ X 1 D.T.=X#XoX=X%XoXOX=X Xf.v.c c > @ v Q.h.* @.` [ 5.0.q.q.{ >. .h T ; ",
"VXVXgXxXB.`.O./ ) K s ) -.=.[ 2.#.P ` W : >XGXsX& g # # # g pX^.OX%X).=XoXoX%X X=X^.i.d.e.D.: w.+Xt.h N.^ [ 5.5.#.#.o.@.:.h * , ",
"aXvXVXdXB.%...) ) L H K { -./ <.X.H ( R ; sXJXsXv & # # o v ZXuX^.=X).=X%X%X#XoX*Xv.K.UXu.; D., Q.t.k @.P [ 5.6.o.o.O.o.:.N.{.iX",
"zXVXVXxX'.] +.~ f k f U *.-.~ 2...H K W ; pXUXiXv C # # & n.SXuX=X%X%X=X%X*X XOXoXQ.G.IXy.X L.X v.t.k ` H [ 5.5.o.[ *.+.`.1XHXAX",
"MXaXmXSXB.] ] U k ].j.R | <.K 4./ H H R w.XXAXpXx._.z z x.XXkX+X^.&X=X^.oX*X#X#XoX|.c.~.X $ L.j > h.h U P [ <.8.X.[ O.[ `.<XnXdX",
"zXzXVXzX[._ ' h r.}.r.k / 2.) 4./ H H f x v.K.MX_._.C _._.aXjXOX%X#X%XoX%XoX%X%X.X@Xb @ @ @ yXD.$ t.Y U I ..5.8.o./ o.( :.'.JXnX",
"zXzXmXnX}.Q E k x x : h ` 2.~ O.~ ~ s k v Q.v.n.x.C _.C R.BX-XoX%X%X%X%X%XoX=XoX*X|.z # # @ iX{.@ ; T ` I X.q.8.{ / ..~ 1.].sXbX",
"VXaXzXMXxXk.j v % b x l _ 4.~ ..} I s l x |..XR.R.C x.W.v.!.oX=XoX%X X*X%X&X=X/.*X|.b & # l vXpXo X Q Z.U } q.q.{ ^ } K ,.Z.sXbX",
"vXdXVXmXAXc.x e 8 B b l I ;.( } ^ L h l v .X#X*X$X.X.X$X%X%XOXoXoX=X X%X%X).uXT.s._.x.v v h.SXJ.x j m.S.I ..q.q.[ ( ` J @.`.cXbX",
"dXkXVXdXCXuXt.B B B b > f X.( ` ` W h g v |.OX#X X X#X#X%X&XoX=X%X=XoXoX%X#X%X=Xe 8 n._._.b.fXG.{.j S.Z.J o.=.=.~ ( | J  .Z.sXbX",
"LXkXdXdXVXK.s.T.m m V b d ] W I ` U j x g Q.%X#X#X%X).%X%X%XoX=X%XoXoX X%X%X&X=Xm 8 B n.z._.a.Q.c.j 7XS.I #.=.3.P ^  .L | @.sXbX",
"kXLXGX8Xc.y s.).N a V b h ' U W ` f r.B > v.%X=X%X%X%X#X%X%XoXoX%X%X%XoX%X%X#X#Xn C .XB B b.Q.*Xt.u.wX:XJ X.8.<.H ^  .W ` N.sXbX",
"uXD.V.V.u.y u !.W.a b B : R h d _ f h.h.< a.+X).#X#X#X%X#X X%X%X*XoX*X%XoX%X#XE.Z $X.X.X.X$X*X|.c.F.0X:XI X.6.*.P W m.W W N.cXbX",
"e.w.B.B.< w 4 p.).I.r B g k h d _ k r.b.c b oX%X#X X#X#X*XoXoXoX#X X=X%XoX%X*X$X$X$XoXoX#X X#XT.Q.G.wXA.I #.5.#.^ W m.Q W N.sXZX",
"i.e.' Y $ 7 4 e Q.+Xs.m g : > h R R k |.a.8 T.=X X#X#X#X%X%X#X#X#X#X%X%X%X%X*X#X$X*X%X&X%X=X%X!.^.D.7X1XI >.7.#.| R S.Q I C.cXbX",
"q % Y Y w 4 % > x b. XR.a.> g l L R T |.z.V a.*X#X#X%X%X%X%X#X%X#X%X#X#X%X#X X#X.X*X%X).&X(.%XoX~.G.eXA.I >.>.%. .R A.m.Y N.nXnX",
"4 % T , O 4 % j l l x |.aXn.1 j Y R k |.R.z.m !.%X%X(.).%X%X%X X%X%X%X%X*X*X X%X*X*X&X&X=X).).oX^.G.sXZ.^ ,X#.,XZ.Y :Xy.R '.bXnX",
"5 4 g , 4 q O < k k & : t.D.& * h k T b..XW.M W.=X%X(.#X=X%X!.!.E./.T.E.!./.%X#X%X%X&X).).%X%XoX~.J.sXS.` 9.@.3XN.! 5Xy.Y [.GXnX",
"5 5 $ e 4 4 2 1 k k k V.r.: = * = k h V.OXR.E.T.#X#X#X%X%X).%X(.!.#X!..X!.E.!.#X#X%X).&X&X&X!.OX~.yXHXm.X.2.Z.tXj.N.5XL.Y {.HXnX",
"5 5 4 7 6 5 q O g F.xXPXxXl.; # @ h k h.OX.XE.#X^.#X%X#X%X%X%X#X&X&X$X&X*X&X$X#X%X.X#X X#X#X-X^.XXHXKXm.:.:.4XKXy.7XyXL.T 8XPXbX",
"6 4 5 6 6 + 5 c @XSXnX8X}.}.k @ l g l v OX$X!..X#X%X X#X).%X(.#XE.E.$XE.E.!.&X%X#X.X.X X.XOX|.|.vXUXsX' `.@.8XbXM.JXLXyXw.dXHXbX",
"6 6 5 4 4 y ^.hXCXzXF.v k.h.j & > x l g Q.&X&X%X#X$X$X!.$X%X%X%XW.V V V N E.%X#X#X.X.X.XOX|.l.l.8XiX[.' `.].KXsX>XUXIXdXy.PXLXLX",
"6 6 6 m ^.lXmXmXCXh.h.xXxXSXaXc.e t.g > B !.#X#X X.X.X$X#X#X(.%X$XE.Z I.E.&X%X#X#X%X.XOXQ.r.V.Q k.{.Q N.N.@.8XJ.yXGXLXpXM.PXIXIX",
"7 B .XhXDXhXfXSXb.b.SXMXmX}.v c % B x e 8 m /.&X$X.X$X$X#X X%X%X.X$X-X$X&X#X$X&X&X^.OXG.j k y.r.c.LXj.N.j.[.}.F.F.J.yXD.M.dXGXLX",
"Q.DXCXhXjXfXCXXXG.CXgXfXaXv }.gXa.m B > 8 r a T.$X$X(.(. X%X).%X$X*X#X*X).).&X!.(.-Xb.j k ! , D e.D.Q N.[.HXAXbXdXpXiXk.D.J.J.yX",
"CXgXgXCXmXMXaXb.aXCXgXCXG.n.vXCXT.m a.b 8 m m i Z E.$X$X.X#X&X%X X.X=X).).%X%X%X+Xc.l k E , 2 u w.l ' N.sXZXZXZXLXPXAX{.aXkXdXpX",
"jXCXgXgXVXVXXX@XCXMXgXCXh.XXSXNXW.m V m e r Z n n n E.$X*X#X^.(.*XoX%X%X(.%X X XB x l l : $ q 2 < E  .6XPXPXLXSXbXZXSXCXSXSXPXPX",
"gXMXCXmXMXVX@XzXCXMXgXCXc.mXVXBXz.N N V r 8 Z Z M n 0 M E.$X(.&X%X=X X X*X*X|.!.c + % O O 2 O - , R E j.}.V.l.yXPXnXSXIXSXAXPXPX",
"gXgXVXMXMXzXSXVXMXCXMXgX|.MXCXNXz.V M M m 4 a Z M n n 0 i I.(.).).%X!.*X.XR.|.CXfXb 4 4 4 4 - x = Q 1 > E m.y.cXbXbXAXAXZXAXAXbX",
"vXVXMXaXMXzXSXxXCXVXCXgXaXhXgX/.p n M N M 9 9 Z n Z M M V 0 n I.!.&X&X!.b.+XmXNXkXlX7 + + 2 w 1 l T O D w.A.N.'.HXAXAXAXZXAXIXAX",
"MXMXMXVXVXMXaXzXVXaXgXCXCXXXv.r 0 N M n M A 9 n Z n M M M M n 0 n Z T./.-XCXMXMXhXDX/.4 O + $ @ w.$ 6 u r.V.'.S.7XUXnXAXIXZXAXAX",
"MXaXMXCXgXCXgXCXMXCXhXgXXXc e 7 i M n n A Z 0 n M M M M A Z Z Z n i T.oXlXuXgXfXkXhXDXQ.1 $ X 1 $ o 5 7 ; '  . .j.dXPXPXIXLXkXIX",
"CXMXCXjXgXhXCXjXhXVXCXhXT.r b e i Z M M A A n n M M M M A A M A n V W.v.K.K.Q.~.~.+XuXkXM.$ ; $ o O 5 O , Y G | V.{.PXLXLXIXIXZX"
};
