/* XPM */
static char *_10792c56d26498b939bec39b8929a75StpiPVcls8uOKJpB[] = {
/* columns rows colors chars-per-pixel */
"64 64 249 2 ",
"   c #362D2C",
".  c #261919",
"X  c #471D17",
"o  c #4E2819",
"O  c #693518",
"+  c #75310F",
"@  c #4D352E",
"#  c #693A23",
"$  c #6C2D30",
"%  c #4E413C",
"&  c #674939",
"*  c #734B32",
"=  c #3E3E40",
"-  c #4D3E42",
";  c #4A4545",
":  c #534D4C",
">  c #584B47",
",  c #5A5454",
"<  c #5C5858",
"1  c #56514D",
"2  c #6A5848",
"3  c #765947",
"4  c #635C5C",
"5  c #675A56",
"6  c #795C54",
"7  c #654D44",
"8  c #68635C",
"9  c #776557",
"0  c #75634A",
"q  c #665E61",
"w  c #666262",
"e  c #6B6563",
"r  c #6E6967",
"t  c #726C6B",
"y  c #746966",
"u  c #7C7369",
"i  c #6B777B",
"p  c #7C7473",
"a  c #777878",
"s  c #726E74",
"d  c #5C5E6D",
"f  c #84340B",
"g  c #993C0C",
"h  c #8B3B14",
"j  c #A63D09",
"k  c #984B1A",
"l  c #934819",
"z  c #A6440C",
"x  c #AA450C",
"c  c #AD490E",
"v  c #B14A0E",
"b  c #A94711",
"n  c #A6541B",
"m  c #B55B1B",
"M  c #985527",
"N  c #8E5530",
"B  c #B55E22",
"V  c #A85A24",
"C  c #B56427",
"Z  c #BD621E",
"A  c #C4641E",
"S  c #CB6A1E",
"D  c #C8681F",
"F  c #C66621",
"G  c #C86721",
"H  c #CB6A22",
"J  c #C56822",
"K  c #D26E22",
"L  c #D17022",
"P  c #C25D1B",
"I  c #865C47",
"U  c #815F51",
"Y  c #8C6449",
"T  c #96654C",
"R  c #86685A",
"E  c #986C54",
"W  c #86755C",
"Q  c #997258",
"!  c #A87659",
"~  c #B67B59",
"^  c #A26E4E",
"/  c #876C65",
"(  c #877768",
")  c #9A7668",
"_  c #847B7B",
"`  c #877977",
"'  c #92706C",
"]  c #A77B67",
"[  c #AE706A",
"{  c #AC454E",
"}  c #D05C64",
"|  c #CF6368",
" . c #E3626B",
".. c #788479",
"X. c #BD825D",
"o. c #9E8C6B",
"O. c #988568",
"+. c #88867A",
"@. c #998777",
"#. c #918D75",
"$. c #A28E6E",
"%. c #A9856A",
"&. c #B88566",
"*. c #A3916D",
"=. c #AB956E",
"-. c #A88874",
";. c #B68B72",
":. c #A49272",
">. c #A99572",
",. c #AB9879",
"<. c #B39A76",
"1. c #B5966C",
"2. c #B8A57A",
"3. c #C5865E",
"4. c #C28562",
"5. c #C58963",
"6. c #CC8C64",
"7. c #CB8C69",
"8. c #CC926A",
"9. c #D4936B",
"0. c #D9966C",
"q. c #DD9B73",
"w. c #DD9975",
"e. c #CA936F",
"r. c #E39C6D",
"t. c #E39D72",
"y. c #E99E75",
"u. c #E5A175",
"i. c #EEA476",
"p. c #EEA479",
"a. c #EDA87B",
"s. c #F1A677",
"d. c #F1A67A",
"f. c #F4A97C",
"g. c #F9AD7D",
"h. c #F4A877",
"j. c #F5AC79",
"k. c #CEA37E",
"l. c #6C7A83",
"z. c #6C7986",
"x. c #777C84",
"c. c #6F7C93",
"v. c #537BAD",
"b. c #596D90",
"n. c #887E81",
"m. c #738385",
"M. c #72839C",
"N. c #5985BA",
"B. c #7988A0",
"V. c #5F95D7",
"C. c #5786C3",
"Z. c #6496D5",
"A. c #69A1E0",
"S. c #8C8483",
"D. c #898587",
"F. c #918484",
"G. c #948B8B",
"H. c #998E8E",
"J. c #928986",
"K. c #9B918E",
"L. c #999886",
"P. c #9A8F91",
"I. c #958D90",
"U. c #9C9193",
"Y. c #9A9496",
"T. c #80919D",
"R. c #A89889",
"E. c #A19596",
"W. c #A19699",
"Q. c #A3999A",
"!. c #A69A97",
"~. c #B79C89",
"^. c #9EA084",
"/. c #B9AA84",
"(. c #A9A199",
"). c #B2A996",
"_. c #B1AD8B",
"`. c #949CAC",
"'. c #94A4B8",
"]. c #B2B0AC",
"[. c #A09FA1",
"{. c #C8B486",
"}. c #CEB890",
"|. c #F7AF83",
" X c #CABBA9",
".X c #DBC795",
"XX c #CBC296",
"oX c #E3CC99",
"OX c #ECD49D",
"+X c #EBD69C",
"@X c #F0D79E",
"#X c #F2D99F",
"$X c #C8C6A4",
"%X c #D5D0AE",
"&X c #EED7A1",
"*X c #ECD9A2",
"=X c #F2DAA1",
"-X c #F3DAA4",
";X c #E4D7B5",
":X c #F9E3A8",
">X c #FEFEBC",
",X c #FCFAB5",
"<X c #E8E7BA",
"1X c #91ABD5",
"2X c #A7B6CC",
"3X c #95AEE9",
"4X c #96B1EA",
"5X c #9BB4EC",
"6X c #9BB1E7",
"7X c #9BB6F1",
"8X c #A3BAEC",
"9X c #A6BCEC",
"0X c #A3BBF4",
"qX c #8698CD",
"wX c #ADC4EC",
"eX c #A8C0E7",
"rX c #B4CAF1",
"tX c #D4D4D2",
"yX c #FEFECD",
"uX c #FBFBC4",
"iX c #FEFED5",
"pX c #FEFEDB",
"aX c #F3F2D6",
"sX c #E7E5CF",
"dX c #C6D8EC",
"fX c #D5DDEB",
"gX c #C8DDF2",
"hX c #D5DFF1",
"jX c #DCE4EE",
"kX c #D8E2EC",
"lX c #D5E2F2",
"zX c #DBE4F2",
"xX c #DBE9F4",
"cX c #CDE2F0",
"vX c #E4EAED",
"bX c #ECEDEB",
"nX c #E5E5E7",
"mX c #F1EDED",
"MX c #FEFEE3",
"NX c #FEFEEC",
"BX c #F4F4EB",
"VX c #E3EBF6",
"CX c #E8F1F5",
"ZX c #F5F4F2",
"AX c #FDFDF4",
"SX c #FDFDFB",
"DX c #F8F7F3",
"FX c #EDF0EE",
"GX c #E3DDD1",
/* pixels */
"BXNXBXBXBXBXBXFXFXZXCXbXvXbXvXvXvXzXVXfX` E.- d p q e e w e q 4 < w r r 8 1 r w y n.U.x.5X7X0X0X8X8X5X5X5X3X5X7X8X0X1X..a z.9XwX",
"BXBXBXmXFXbXvXvXvXvXvXvXjXxXjXzXvXVXVXtX_ S.4 e y , w w w , a Q.J.4 < 8 w ; w w s n.E.n.3X5X5X5X5X5X5X5X5X5X7X4X3X0X1X..i z.eXrX",
"bXvXbXvXvXvXvXnXkXjXjXjXlXzXzXjXzXzXVXjX_ p [.4 _ ; q r < ,  XtXtX].> 8 r : < w s n.s n.3X3X5X5X0X3X4X5X6X3X3X5X4X0X2Xa z.c.wXwX",
"vXnXvXvXjXjXkXjXkXjXjXjXkXkXjXxXVXhXVXVXa `.tXs H.; w 4 : d tX$X].(.8 , r 1 , r q n.- z.4X3X4X7X4X4X3X4X3X3X3X3X4X0X'.a l.m.wXwX",
"vXjXhXjXjXzXzXhXhXzXzXzXlXlXzXzXVXhXhXCXx.].fXt H.; q 1 : w  X].].+.; 4 r : < r 4 G.d b.3X3X3X3X4X3X3X3X3X3X5X3X5X7X'.a l.c.rXwX",
"vXjXvXjXjXzXkXhXfXhXhXhXkXlXlXzXhXVXxXVX`.2XVX_ H.5 < 5   < ].].).H.4 : w : e r / n.c.b.qX7X4X3X4X3X6X6X7X4X3X5X4X0X'...l.M.rXeX",
"VXjXzXzXzXhXkXhXhXzXhXlXhXlXzXzXhXhXVXhXfXdXxX2Xp p : 5 2 R ;.;.;.] T U 2 > 5 < n.n.qX3X3X7X4X6X0X5X6X8X0X5X5X8X5X8X'.i z.M.rXwX",
"VXjXvXVXzXzXzXzXhXzXhXhXzXhXhXhXVXhXhXhXVXhXdX[.6 ~ 7.y.|.f.h.h.h.f.g.g.y.w.5.! / < 1X0X0X8X8X5X8X8X0X9X6X6X5X5X5XeX'...l.B.rXwX",
"vXxXVXvXCXjXxXzXlXzXxXkXlXlXlXhXlXlXfXxXrX[.;.6.d.f.d.d.p.p.s.i.i.i.y.p.i.s.h.h.y.7.' `.9XrX9X9X9X0X9XwXwXrX9X9XeXwX`...m.M.rXrX",
"CXxXxXcXcXlXlXlXhXhXcXcXcXgXgXgXgXgXgX`.Q 0.s.s.i.i.i.i.i.p.i.i.i.s.s.i.i.i.i.i.s.f.a.7.` Z.1XqX1X1X1X1X1X1X6X1X1X3XM...m.b.eXeX",
"CXCXCXCXCXxXVXzXlXxXcXcXcXdXgXdXgXrXD.~ f.j.i.i.i.i.s.i.s.s.s.s.i.s.i.s.i.s.s.i.p.p.y.|.y.' v.V.V.V.V.V.Z.V.V.V.V.Z.M.i ..b.A.V.",
"BXBXZXZXFXBXbXbXvXbXvXnXnXnXkXtXtX+.&.g.s.s.i.i.i.s.i.s.i.i.s.i.i.i.i.i.i.s.i.i.i.d.p.y.d.h.Q b.N.v.v.v.v.v.v.v.N.C.M...m.b.V.C.",
"DXDXZXBXZXmXmXmXmXmXnXnXnXnXtXGX( ~ |.i.i.d.i.i.i.i.i.i.s.s.s.s.f.f.d.d.s.i.i.s.s.i.p.s.y.p.g.^ 6 ' / / / / / y ` / t m.m.w _ p ",
"SXSXSXAXDXZXDXZXmXmXmXmXbXGXnX(.E g.s.d.p.p.d.i.i.s.s.i.s.y.r.t.w.0.0.p.i.s.s.i.i.s.p.p.p.p.p.d.I ' ) [ ) [ ) [ ' ] ( i l.w ) ' ",
"SXDXDXDXZXZXSXZXDXZXZXZXmXmXnX6 r.s.i.s.s.i.i.i.i.i.i.s.h.y.9.7.6.9.q.f.d.s.i.d.i.i.d.p.p.d.p.f.9.I ] ] [ ;.] [ ] R.( i z./ R.[ ",
"SXDXSXSXSXDXZXSXZXZXmXmXbXDX).T g.y.d.y.i.i.i.i.s.s.s.y.0.y.i.s.i.i.t.9.t.f.d.p.p.s.d.s.s.y.s.y.|.I U R R R ' ' ' ' / m.z.5 ' / ",
"SXSXSXSXSXSXSXSXSXSXAXAXNXAX#.3.s.i.f.f.f.f.g.y.t.q.u.u.0.9.9.5.3.6.0.0.u.u.0.s.d.|.t.r.f.i.i.i.d.! ) <.>.,.,.,.R.).+.....a ,.#.",
"SXSXSXSXSXSXSXSXSXAXAXAXNXBXR u.u.u.7.&.&.&.7.~ Y 9.0.9.0.6.6.9.0.9.9.7.5.5.! &.;.Q 3 4.r.i.d.p.|.~ XXyX>X>X>X>X>XyX_.m.l.$XiXyX",
"SXSXAXSXSXSXSXSXAXAXNXNXNXsXY f.i.i.0.! y D.n.` p @.t.f.t.9.6.6.0.6.w.y.d.] _ _ _ _ n.F.` ) 0.g.h.~ =.>X,X,X,X,X,XuX_...i $XyXuX",
"SXSXAXAXAXAXAXAXAXNXNXMXNXGXE a.s.r.%.@.` ) %.&.) ( / e.|.d.f.f.h.f.d.p.T W ;.7.9.e.] ( K.G./ X.|.3.o.>X,X,X,X>XuXyX_.i i $XyXuX",
"NXAXAXNXNXNXAXNXNXBXNXNXpXGXQ g.7.' J./ 9.d.|.y.3.~ ! ^ 9.f.p.i.i.i.d.8.~ 3.3.r.d.f.d.7.U J.P.> ~ 3.O.>X,X,XuX>XyXpX^...l.$XyXuX",
"AXAXNXAXNXNXNXNXMXNXsX2.k.>.E w.u I.' 0.|.y.y.i.y.9.6.9.u.p.d.i.i.s.d.r.3.5.t.d.p.y.u.|.t.U D.Y.R ! Q <.e.<.%XyXiXpX#.i i $XyXuX",
"NXNXNXNXNXMXMXMXMXMX-.~ I E T ) I.W 0.h.9.r.d.g.f.9.5.q.9.t.f.f.s.s.s.y.0.6.t.d.g.y.6.t.|.y.R D.G.6 I &.E 5.! %XpXiX,.i ..%XiXyX",
"NXNXMXNXMXNXMXMXMXsX] w.N & 5 Y.( 7.|.9.4.7.;.E 7 ,.e.q.u.5.d.d.d.f.6.y.4.-.~.2 3 <.&.4.t.f.r./ P.I.5 N Y 5.3.$XpXiX^.i i  X;X%X",
"NXMXMXMXMXMXMXMXMXaX%.E ^ 6 n.I.Q d.7.! R.tXnXtX!.nX X0.f.&.y.f.f.d.7.p.w. XZX[.].SXGX].;.w.~ 4.y W.D.R 3 ~ ~ $XpXpXL.i i +.` 6 ",
"MXMXMXMXMXMXpXpXpXaX%.Y R D.Y./ &.7.t.y.|.}. X X}.w.5.5.t.~ p.d.d.d.y.p.p.e.{.;X;X X}.|.y.p.0.t.T a Y.P.5 I &.$XMXiX^.l.i p a y ",
"MXMXMXMXpXpXpXMXpXpXO./ s D.n.&.a.i.|.r.9.r.r.0.3.4.9.f.4.5.g.p.d.|.~ 5.h.6.| 3.0.r.r.6.7.d.f.t.X.& _ U.K.( E  XpXiX#.l.s a @.%.",
"MXMXpXpXMXpXMXpXpXiX` u 7 S.7 t.f.s.p.y.8.5.y.p.0.d.f.p.! a.d.p.p.f.0.T p.h.u.0.4.w.~ 7.d.d.d.w.3.I 7 H.e J.5 $XpXuXL.i i D.@.O.",
"MXMXpXMXpXpXpXpXMX X5 E ` 9 N a.p.p.d.d.d.d.d.d.|.s.f.4.4.g.p.p.s.s.d.T 4.p.d.f.|.y.d.|.f.p.d.9.X.I Y R u : W.R.iXuX#.i s D.H.@.",
"pXpXMXpXpXpXiXpXuX8 W ) ` 3 % E g.p.d.d.|.a.d.p.p.d.g.~ w.s.p.p.i.i.f.~ ! u.d.p.p.p.p.p.d.d.i.9.! & ^ & J.9 y +.%XyX+.i s G.R.-.",
"MXMXpXpXpXpXiXMX#.).O.p 6 ~ R 6 &.|.d.d.p.|.g.g.d.y.e.E u.f.p.p.s.i.|.5.* 3.g.f.d.p.p.f.f.f.i.~ 7 @ Y X.' p O.p _.yX+.i i Y.!.R.",
"pXpXpXpXiXiXMX<X+.yXy p ~ &.U p W E t.g.d.0.7.&.] ' F._ ] a.|.p.y.d.u.9 < 5 ] 7.0.i.g.7.7.0.T % 1 3 Q u.W S._._.u uX+.l.a Q.(.R.",
"pXiXpXpXpXiXMX_.%XsXa ) ~ ) 3 w n.q 3 [ ' ' n.n.P.W.!.W.I.] y.|.g.9.3 q _ n.I.n.` ) [ U u 5 , e : &.] t.&.t R.yX( %X+.m.m.].].!.",
"iXpXiXiXiXpXiX%XiX}.p &.p.p.T e !.U.p e W.W.Q.E.W.U.U.U.W.P.) ;.! 9 s I.U.W.W.Q.Q.E.G._ q r w e > q.g.g.X.5 ).iX;X%X+.m.m.].].(.",
"iXpXpXiXpXiXiXiXiX_.5 7.y.T 0./ Y.` ` W.W.P.E.E.E.W.W.W.Y.P.5 $ > n.Q.Q.W.E.W.E.U.E.E.!._ , t < 7 a.E u.*.8 ^.yXiXsX..m.M.].).!.",
"pXiXpXiXpXiXyXiXiX).q Q |.|.i.& t ; q P.W.W.E.E.W.` n., , & X $ $ X ; Y.n.P.W.W.Q.U.U.P.q - : : @ a.u.^ oX@.L.iXiX<X....D.].(.~.",
"iXiXiXiXyXiXiXiXpX_.L.>.N 5.X.@ n.q G.Q.n.W.q n.5 - - $ }  . .} | } { [ y q I.I.J.Q.Y.E.a 1 < < X M M h 3 8 +.<XyX<X..m.D.].(.R.",
"iXiXiXpXiXiXyX<X;X#.5 C Z B n * ` y !.e y q > n.q n.n.' [ [ } } } } | [ q 5 ` q q _ P.W.8 : w , + z z v f   8 W #.#.8 d l.Y.!.R.",
"pXiXsX;XXXXX2./.}.9 # G J H H C > s ` > n.n.n.E.W.W.W.W.I.D.n._ x.n.D.I.U.n.P.` , _ r x.t @ :   O v x z v O 8 :.o.o.O.W 9 9 ) ( ",
"$X{.2.2.XXoX:X:X:X( 3 C H J H m @ n.U.n.E.E.E.E.P.P.P.P.P.E.W.Y.U.W.U.P.P.E.P.W.J.P.G.< : , e @ + x x z v l 5 :.*.*.>.>.,.o./.+X",
".X+X-X:X-X-X=X&X=X0 ,.C J J S C   p E.Y.P.E.P.P.U.U.U.U.E.` t J.p _ I.P.K.P.P.P.Y.K.J.r 8 < w # x z x z v + 2 ,.*.:.$.$.$.*.o.{.",
"-X*X=X&X-X=X=XOX#X0 XX^ A J H J $ / U.Y.Y.P.P.E.U.U.U.U.F.1 5 < q < q P.U.U.P.Y.K.K.G.r e y = O c z x x v + u :.$.$.$.:.#.*.$.$.",
"=X-X-X=X=X#X=X#X:XW oXe.m L D J m 6 r Y.U.U.U.U.U.U.U.G.q : t ; q : , t Y.K.K.Y.K.K.G.y 8 e   + c x z x z & :.*.*.*.$.$.*.*.o.:.",
"=X=X=X=X=X=X#X#X:X.X*X}.M H J J D * @ I.U.U.U.U.U.P.P.` : e e ; s q e e S.P.P.P.K.G.J.e 8 1 + x x x z v + 0 :.$.$.$.$.$.*.o.>..X",
"=X=X=X=X=X=X=X=X&X=X=X-XY Z H J H h @ G.E.U.U.U.P.E.P.` q t r , t r t S.J.U.U.P.K.+.S.r 1 % z z z z c z & :.$.$.*.:.*.*.o.2.oX=X",
"@X=X=X=X=X=X=X=X=X&X&X-X<.n K G J B # n.U.P.P.U.E.P.U.n.t r r t t e a P.P.U.Y.P.P.u p 8   O c z x z x O ( :.o.*.$.:.o.*.{.+X=X#X",
"=X=X=X@X=X=X=X=X=X=X=X=X&XN D G J H V ; ` E.P.U.E.P.P.H.n.t _ e r e n.U.H.Y.U.U.P.y r 5 X f c z z c f & :.$.*.:.$.o.=.oX:X#X#X#X",
"=X=X=X=X=X=X=X&X=X@X=X&X:X>.m H F L k X / !.U.U.P.E.P.E.D.u K.y p p D.P.P.P.K.P.G.y 4 % z z x z z z # o.:.$.$.*.o.2.+X#X+X#X#X#X",
"-X-X-X-X#X#X#X=X#X#X#X@X#X.XN S F K k h 6 S.H.U.U.U.U.U.I.J.U._ S.G.I.U.P.U.H.K.+.u   X v z x z c + 0 =.$.*.o.:..X#X#X#X-X#X#X:X",
"=X=X-X-X=X#X#X#X=X=X=XOXOX:XQ Z H D B A * ; +.U.E.P.U.U.U.U.U.I.H.K.U.H.J.P.+.+.` 8   + c b z x x * *.=.*.o.2.OX-X#X#X#X#X#X#X#X",
"=X=X=X#X=X#X=X#X#X=X#X#XOX:X{.n H F F K M & y Y.H.P.P.P.U.P.P.H.K.K.U.J.` Y...t r 1 h b z z z c l 9 =.*.o.{.=X#X#X#X#X#X#X#X#X#X",
"=X=X=X=X#X=X#X=X=X#X=X#X#X#X#XI A H F H B O I S.F.H.P.E.U.P.K.K.K.H.P.F.y J.a 4 = # x x b x x g & *.o.*..X:X#X#X#X#X#X#X#X#X#X#X",
"=X=X*X=X#X#X=X=X#X=X#X=X#X@X:X<.V K F G H V M 5 5 J.U.I.U.U.K.P.K.K.U._ w _ t % . l z z x z c + 0 *.=.oX-X*X=X=X#X#X#X=X#X=X#X#X",
"=X=X+X=X#X#X-X-X=X#X=X=X#X=X*XOXN G H J G H J & @ t U.G.I.U.U.U.H.H.K.u w r < o + z z z x c g & :.*..X:X*X=X=X=X=X#X#X#X=X#X-X#X",
"=X-X}.=.:X+X@X#X=X-X=X=X=X@XOX:X=.n K F H F H n o > p G.p U.P.U.G.F.G.8 8 ; @ z x z z x x x o O.=..X:X#X:X#X#X#X#X=X#X#X#X=X-X#X",
"=X=XoX& {.:X@X#X=X=X=X=X=X=X=X=X&XN G F F F F F M * ; p y S.U.U.J.p _ w , . g x z x x z c f 9 <.oX#X*X*X#X*X=X=X=X=X=X=X=X#X=X@X",
"#X#X+X0 O.@X=X#X=X=X=X#X=X#X@X@X:X<.n H D S F F G V o & w p S.Y.S.y t 8 @ + x z z z z c g & 2.+X-X&X-X=X-X-X-X#X=X=X-X=X=X=X=X{.",
"#X#X+X9 0 2.*X+X=X@X@X=X#X=X=X=X=X*XY P G S D D J D l * ; > a G._ 8 : : h x z z z z x x O /.=X=X=X=X=X=X-X-X#X#X=X=X=X=XOX=XoX0 ",
"=X=X+XO.5 *.{.:X@X#X=X=X=X#X=X=X&X-X{.l L F G G H D D C # @ 8 _ a 8   o b z z z b z v + /.:X#X=X=X#X#X=X#X#X#X=X=X=X=X&X#X:Xo.2 ",
"#X#X+Xo.2 ,.*..X=X=X=X-X=X@X=X=X=X*X:X1.n K G D S S D D V l ; r e 1 X g x j z z b Z k <.:X=X*X#X=X=X=X-X-X-X=X=X=X=X@X=X#X2.2 O.",
"o.:XoX*.1 *.*.=.#X-X-X#X=X@X=X#X#X#X*X:X%.n L D S H H D S L O ; ; @ g b b v P F L n O.:XOX=X@X&XOX@X=X=X#X=X=X:X#X#X+X#X{.o.2 2.",
"+ /.+X=.2 O.*.o.2.-X#X-X#X=X#X=X=X=X#X#X=X%.n L J H H H D L k     O F A G H F L n Y *X#X=X@X=X=X=X@X@X#X#X#X=X=X:X#X#XXX=.9 0 2.",
"x * .X<.0 W =.*.%.XX-X-X-X-X-X=X=X-X=X#X#X:X%.l H H H H H C V # O C G G G G H n 3 *X#X=X=X=X=X=X&X=X=X=X#X:X#X#X#X=X.X*.:.2 O.2.",
"v + O.*.& W =.*.o.2.-X-X-X-X-X=X-X=X=X*X#X@X:Xo.N L G H F k Z n m S D G G H m 3 *X#X=X=X@X=X=X&X=X=X=X=X=X=X=X:X#XoX>.*.:.2 O.*."
};
