/* XPM */
static char *_645995170586[] = {
/* columns rows colors chars-per-pixel */
"64 64 254 2 ",
"   c #281728",
".  c #2C1B2C",
"X  c #301E30",
"o  c #2C2C2B",
"O  c #352333",
"+  c #382736",
"@  c #392B35",
"#  c #3C2B3B",
"$  c #383936",
"%  c #402E3D",
"&  c #493339",
"*  c #6C3A2F",
"=  c #375037",
"-  c #386839",
";  c #34733E",
":  c #41653F",
">  c #453343",
",  c #493646",
"<  c #473A44",
"1  c #4B3A46",
"2  c #4D3B49",
"3  c #4E3A4B",
"4  c #513C47",
"5  c #523E4C",
"6  c #663B40",
"7  c #3A7341",
"8  c #004768",
"9  c #004B6C",
"0  c #00546D",
"q  c #055C6C",
"w  c #004F71",
"e  c #005473",
"r  c #005B75",
"t  c #005579",
"y  c #005D7B",
"u  c #0D6466",
"i  c #1A786A",
"p  c #086676",
"a  c #00627D",
"s  c #147576",
"d  c #2C7770",
"f  c #55414D",
"g  c #57434D",
"h  c #4C514A",
"j  c #5B4554",
"k  c #5C4657",
"l  c #5E4956",
"z  c #604A57",
"x  c #634C5A",
"c  c #6C5152",
"v  c #66515E",
"b  c #68535D",
"n  c #477747",
"m  c #586755",
"M  c #4C7450",
"N  c #577A54",
"B  c #686658",
"V  c #6A5562",
"C  c #6C5A65",
"Z  c #6D5A67",
"A  c #715D65",
"S  c #5D7C7A",
"D  c #6C6666",
"F  c #75646A",
"G  c #73766D",
"H  c #757170",
"J  c #AD6023",
"K  c #996C58",
"L  c #8A7670",
"P  c #887876",
"I  c #69BC3E",
"U  c #2F854F",
"Y  c #2AA45C",
"T  c #178972",
"R  c #3A8A6C",
"E  c #2F9171",
"W  c #12B575",
"Q  c #36A66F",
"!  c #25B578",
"~  c #4B8B57",
"^  c #598459",
"/  c #61895C",
"(  c #54B35A",
")  c #6FBD4A",
"_  c #4D9573",
"`  c #688A66",
"'  c #6D8F71",
"]  c #7A8974",
"[  c #7B9977",
"{  c #4BA576",
"}  c #77A476",
"|  c #19CB6E",
" . c #31CE72",
".. c #21E064",
"X. c #72C04C",
"o. c #55E47C",
"O. c #E7861C",
"+. c #8D8977",
"@. c #839B7B",
"#. c #AE9778",
"$. c #82A17B",
"%. c #8BA67F",
"&. c #98A97D",
"*. c #DA985E",
"=. c #CD9974",
"-. c #D4A47A",
";. c #E8A37C",
":. c #F4A77D",
">. c #E6B877",
",. c #005E80",
"<. c #006483",
"1. c #006984",
"2. c #006B8A",
"3. c #047688",
"4. c #07738C",
"5. c #007495",
"6. c #007898",
"7. c #007B9B",
"8. c #927F80",
"9. c #139084",
"0. c #078C95",
"q. c #00829E",
"w. c #2E9387",
"e. c #11AB89",
"r. c #0BB787",
"t. c #04BE84",
"y. c #0BBD85",
"u. c #16BB86",
"i. c #35AA89",
"p. c #26BC8A",
"a. c #36BA8D",
"s. c #30B394",
"d. c #0083A0",
"f. c #13B5A5",
"g. c #4D988F",
"h. c #6A9691",
"j. c #4DB391",
"k. c #6DB495",
"l. c #4AB8A4",
"z. c #73B1A8",
"x. c #04C085",
"c. c #0AC387",
"v. c #0CC38A",
"b. c #12C38B",
"n. c #16C48A",
"m. c #16C992",
"M. c #1DD192",
"N. c #26C28A",
"B. c #28C995",
"V. c #36C696",
"C. c #2FD090",
"Z. c #2EEB99",
"A. c #3AD2A7",
"S. c #2DF1A8",
"D. c #51D58E",
"F. c #46C899",
"G. c #55C595",
"H. c #67D392",
"J. c #49EF93",
"K. c #71E695",
"L. c #50D1A9",
"P. c #6ED3AD",
"I. c #53ECAB",
"U. c #71EBB1",
"Y. c #31B6E4",
"T. c #66BDE8",
"R. c #5FDDCE",
"E. c #5AECCE",
"W. c #78ECD1",
"Q. c #55D9E8",
"!. c #78D2EA",
"~. c #66EAE7",
"^. c #8E9582",
"/. c #AB998B",
"(. c #88A685",
"). c #91B196",
"_. c #B9A68B",
"`. c #B9A996",
"'. c #B5B194",
"]. c #8DAEAD",
"[. c #9AB7A7",
"{. c #A5BAAA",
"}. c #B6B2A9",
"|. c #D4B78C",
" X c #C7B998",
".X c #F5A981",
"XX c #E9B287",
"oX c #C4B5A6",
"OX c #88C699",
"+X c #ADC39C",
"@X c #8BF49B",
"#X c #97C4A8",
"$X c #8FCEB0",
"%X c #85D7B7",
"&X c #ACCFB0",
"*X c #8DEEAF",
"=X c #99EABA",
"-X c #B6EEB9",
";X c #A7F9BA",
":X c #D3C59D",
">X c #E6C998",
",X c #F2CD9A",
"<X c #D7CAA4",
"1X c #D1D2B3",
"2X c #E8D7A8",
"3X c #EBD6AD",
"4X c #F3DBA6",
"5X c #E7DAB4",
"6X c #D4E4B2",
"7X c #F5E2AC",
"8X c #FAE5AD",
"9X c #F7E8AF",
"0X c #FCE8AF",
"qX c #EDE1B6",
"wX c #F5E6B6",
"eX c #F7EBB5",
"rX c #FDEAB3",
"tX c #FDECBB",
"yX c #84B6D4",
"uX c #92D4CA",
"iX c #B1D5CA",
"pX c #8CEDCE",
"aX c #97E5C5",
"sX c #A7EBC5",
"dX c #ABEDCC",
"fX c #B5F7C7",
"gX c #B5E8D4",
"hX c #A7F6D7",
"jX c #B8F7D9",
"kX c #86D6EA",
"lX c #8ED0E9",
"zX c #AFDAEB",
"xX c #88E9EA",
"cX c #97EEED",
"vX c #98E8E8",
"bX c #B3EAEC",
"nX c #B8F7EA",
"mX c #D2D5CC",
"MX c #E4DCD5",
"NX c #CAF1D6",
"BX c #F5EBC1",
"VX c #FDEEC1",
"CX c #F7EECC",
"ZX c #E9E7D8",
"AX c #C7E8EB",
"SX c #C7F7E6",
"DX c #D7F7E8",
"FX c #D2EDF0",
"GX c #D7F7F4",
"HX c #E9ECE6",
"JX c #E6F5EB",
"KX c #F9F7E9",
"LX c #E9F7F6",
"PX c #F5F9F8",
/* pixels */
"e e r r r r a a p r a <.<.<.<.,.<.2.2.<.2.2.2.2.T Q W r.y.c.y.c.y.t.t.y.y.W ! Q { Q _ { { Q E E ) ) X.5.2.9.4.5.7.6.5.5.7.6.6.6.",
"e r r r r r r a a a a a a <.<.<.<.2.2.2.2.5.9.W u.v.v.v.b.n.n.m.m.m.v.c.c.t.x.v.r.W 9.7.R ( ) ) X.X.) ) X.X.) 5.7.6.7.7.7.6.6.6.",
"r r r r a a a a a a <.<.<.<.<.2.2.2.2.2.4.y.v.v.m.B.B.C.C.G.G.k.k.g.g.j.i.s.u.c.y.t.t.W ! Q 5.E ) ) ) ) I 2.5.5.7.7.7.7.7.6.7.7.",
"e a r y a a a a a a 1.<.<.2.<.<.2.5.3.b.v.b.m.C.A.S.S.J.H.(.} @.G D F D C H S _ i.u.y.t.W t.! ( 4.4.I ) ) 2.5.5.7.7.7.7.q.6.7.7.",
"r r r a a a a a a <.1.1.2.<.2.2.5.y.m.m.B.S.J.J.Z.S.Z.G.@.} [ H Z C V V V V x k D _ j.V.b.t.t.r.9.2.2.3.I 2.5.7.6.7.7.7.q.6.7.7.",
"r r a r a a a a 1.1.1.1.<.2.,.0.m.m.B.G.U.I.J.I.S.Z.G.$.@.@.G C Z V V V V z v k V ` ` &XpXL.u.t.x.9.2.5.4.E 5.5.q.7.7.q.q.6.7.7.",
"r r a a a a a a 1.1.2.2.2.2.b.m.B.F.H.).P.U.U.U.I.j.} } [ G A A C V V x V l k x m ` ` %XhXbXaXV.y.x.y.5.5.5.5.5.6.q.q.7.q.7.7.7.",
"r a a a a a 1.1.1.1.2.2.2.b.m.V.k.).@.(.%XhXNXhXH.(.$.$.G V A b C V V V l V l k m ` ` uXdXNX+Xh.Q b.t.t.4.5.5.7.0.6.7.q.q.7.7.7.",
"a a a a a a a 1.1.2.2.2.m.M.L.P.).^.^.(.).hXSX&X(.$.(.H A Z V V V V v v x z z z B ` [ iX&X[ N M m { u.t.c.3.6.6.6.7.q.q.q.q.q.6.",
"r a a a a a 3.1.2.2.5.m.m.L.gX).(.P ^.^.k.gX&X(.@.[ ] Z Z A V V v v v x z z z k m / ` @.` N m < h ^ _ p.t.x.6.6.7.q.7.q.q.q.q.6.",
"r a a a 3.a 1.1.2.3.m.m.P.SXmX(.(.P P (.(.#X(.[ [ ] A Z Z V V V v v x x z z z 5 B / / / N h < 1 N ^ [ gXV.x.y.7.q.q.q.q.d.d.q.7.",
"r a a a a 3.2.2.3.b.m.L.xXGX&X(.(.H P ^.^.(.[ (.[ H Z Z Z V v v v x x x z z z z N / ^ B h 1 1 h N / mXFXz.p.x.r.q.q.q.q.d.7.d.7.",
"r y a a 1.1.2.1.e.m.A.xXkXvX{.(.^.F P ^.(.$.[ [ H Z C C V V v x v x x z k k k 5 N ` m f < < & N ^ ).$X' N { u.t.r.q.q.d.d.d.d.7.",
"a a a a a 1.3.3.m.B.pXcXvXbX{.(.^.F F h.$.$.[ ] C C C V V v v c x z x k z 5 5 5 B h 1 2 1 , h n ^ ' ~ M M M Q r.x.0.q.q.d.d.d.7.",
"a a a 1.1.1.2.v.m.U.hXnXGXJX).(.^.F A ] $.[ ] F C V V b V v x z z z k x k k 5 5 f 2 2 2 2 > m N ^ ~ M M h = f E c.x.d.d.d.d.d.7.",
"a a a a 1.1.r.v.F.@XfXAXPXZX).^.P F A G @.[ D C C V V v v v z z z z k 5 5 5 5 5 2 2 1 1 , h M ^ ^ M h % @ # O M u.t.e.d.d.d.7.7.",
"a a 1.a 1.2.c.B.k.OX6XSXDXNX(.@.H F F Z h.H V V V V v x x x z z k k k f 2 f 2 f 2 2 < < < h N M = % @ @ % O @ n { W t.d.d.d.d.7.",
"a a a a 1.c.y.J.OX(.$XhXjX&X@.(.H F Z Z A A V Z v v c x x x z z k k f 2 5 f 2 2 2 , , > < m h > & % % # @ @ = n ~ p.v.r.d.7.7.7.",
"a a a 1.1.x.B.I.P.$.(.$XnX&X^.[ F F Z Z V V V V v v x z z z j j j 5 f f 2 2 2 2 < , , < < < > % % % # # + @ : n _ L.e.t.d.d.7.7.",
"y a a a y.x.L.E.I.k.%.k.jX&X[ ] C Z Z Z V v v v v x z z z k j j j 5 2 f f 2 , , 2 > > > > % % > % # # + @ = n ~ s.L.B.t.e.7.7.7.",
"a a 1.1.x.n.U.E.W.#X$.+.[.[.[ ] Z V V V v v v x x x z z z j j g 5 f 5 5 3 3 , 3 , , , > > > % % # # + + @ n ~ k.U.L.A.x.r.7.7.7.",
"y a a T x.V.pXpXhXiX%.G @.@.[ ] V V V v v v x x z z k j 5 g 5 5 5 5 2 2 3 2 < , > > > > % > # # # # O O = n _ =XdXU.D.n.v.0.7.7.",
"a y a c.W I.sXhXSXSX(.G D ] } ` v V v v x x x x z k z j 5 5 5 5 3 2 3 3 , , > , > > > % % % # # # + + O : N &XfXfXsX*XL.r.u.7.7.",
"y a s c.n.pXhXjXSXDX&X] C D ' G v v x x x V z k k k 5 g A z g C 5 3 , , , , , > > > > % % # # # + O O = - { aXfXjXfXaXP.t.r.7.6.",
"r a T x.B.hXbXbXGXGXgXh.C v D D v x x x j P `.P x 5 A `./.L oX_.5 5 b D 4 & > > > % % % # # # + + O O 7 U H.U.NXjX*XU.U.u.t.7.5.",
"r p W x.L.cXcXvXcXSXAX(.D v v m x z z x 8.L  XBX<X`.5XVX<XBXBX`./.1X<XL & % % % > > % # # + + O O X $ 7 { C.C.U.H.{ K.I.m.y.9.5.",
"a u y.x.P.cXcXvXcXcXlX].D v x k k z 5 5 P 5X5XBXVXVXVXVXVXtXtXVXVXVX XL L +.+.g # # # # + + + O O O - N j.N.W U 7 Y J.K.N.t.u.5.",
"r i y.v.kXzX!.!.zXFXlXz.` k z k z A P /./.5XVXVXVXVXVXtXVXtXVXVXVXtXtXVXtXBX_.& @ # # + + O O O X $ N [.Q U - - Y  .C.K.L.t.u.9.",
"p i y.v.aXGXlXkXFXGXbXlXh.l k f 5 P 5XCXVXVXVXVXVXVXVXtXVXtXVXtXtXVXVXtXVXqX+.B c f @ + O O O X o - ^ ' ; - - ^ @XD. .;XP.t.y.E ",
"u T y.b.zXLXzXbXGXGXGXbX[.m 5 z L L  XVXVXVXVXVXVXVXVXVXVXVXtXtXtXtXVXeXeXtXtXrX5XB O O + O X X $ 7 - = o - ; o.@X*XK.NXP.c.t.E ",
"u U x.u.gXLXlXkXnXSXGXnXuXG f v oXBXBXVXVXVXVXVXVXVXVXtXVXtXtXtXtXtX2X/.#.:XrXtX5Xf O O O O o . $ = .   $ - ( @X@X@XH.NXU.x.y.E ",
"u T t.b.gXFXT.Y.cXnXnXcXgX' h C  XwXBX3XqXVXtXVXVXVXtXtXtXtXtXtXtX X_.3XqX'._.wX}.# O O O X . .       o - 7  .@X@XD.H.sXuXW n.Y ",
"u T r.y.zXzXT.Y.Q.xX~.xXvXz.h A 5XBX<X/._. X5XVXtXtXtXtXtXtXeX9X X:XVXVXtXeX<X_.:X& X O X . . .       = 7 W | o.o.D.P.P.R.y.r.Q ",
"u T v.b.uXzXyXlXxXxX~.~.xXuXB D wXwX'.wXqX<X X3XtXtXtXtXtXeXeX:X<XqX<X X2XtXtX<X:X#.o O . . .   .   o - Y W W Q H.G.z.P.L.u.W Y ",
"u i t.y.uXFXlXzXGXGXbXW.pXAX' L VX3X5XVXVXwX3XoX2XeXtXtXeXtX<X<X1X'.oX}.`.'.eXeXwX:X& o .   . .   . - ( J.|  .*X=XL.L.P.P.t.u._ ",
"u i r.t.uXPXzXAXPXNXjXE.pXGX)./.VX<XVX5X`.`.oXMX5XwXtXtXtXeXqXeX XZXZX/.8.'.:XeXrX:X@   % &       = N iXfXH.*XNXNX=XP.bXL.y.W Y ",
"u u ! | P.LXFXJXPXfX*XU.cXGXiX'.BXqXtX`.1XMX`.^.eXeXtXtXtXtXrXqXmXPXPXmXz /.oXqX0X:Xo 4 :X<Xc   o - ).NXNX*X-X-XfXsXpXnXB.t.u.R ",
"u 8 e.t.V.FXAXAXGXhXhXE.cXFXFXmXtXtX5XoXHXKXmXK <XtXtXtXrXtXrXtXZXmXMX}.* P mX3X8X:X& |.eXeX-.o - ~ NXDX=XC.K.@X;XH.s.%Xu.c.! E ",
"0 r s t.m.vXlX!.xXnX~.~.xXFXAXlX1XBX3X1XPXHXmXZ _.tXtXrXrXtXtXtXKX`.c 6 * K mX>XrX:X+.0X2X>X>XN - { =XjXG.W | o.o...r.A.b.c.T R ",
"e e e t.x.R.!.Q.Q.xX!.xXlXlXzXlXiXwX3XmXHX/.K * #.tXtXtXtXtXtXtXPXoXJ & * K MX<X0X2X4X>X-.;.>X+.U F.j.k.! W | ....| M.M.c.r.3.i ",
"e e e 9.x.A.Q.Q.~.xX~.!.lXzXzXzX1X3X2XmXHXK * * #.rXrXrXtXtXrXrXKX<XJ J J *.BX5XrXrX4XXX;.:.,X&.i ! H.P.Y W | o.C.M.M.M.v.u.1.s ",
"e 0 e y v.m.~.E.hXSXvXlXAXPXLXmX3X3X2XmXKX=.J J *.eXtXtXtXrXtXrXCXMXO.O.O.-.CXrXrX0X>X-.:..X8X{.T G.fX-X .W  .@XOXC.M.c.v.i.1.1.",
"0 e e e t.c.L.cXjXDXFXzXFXPXPXMX3X>XqX5XPX3XO.O.>.rXrXeXrXtXrXtXrXVX>X*.*.5XtX0XrXrX4XXX.X,X2XmXk.=XfX;XK.Q K.&X{.P.B.v.u.2.2.<.",
"e 0 e e p x.B.nXDXDXDXbXLXPXPXMX5X>X2XtXCXKX5X>XqXrX9XqXrXrXrXrXrXrXrX4XrXrXrXrX0XeXXX;.>X2X1XDX=X=X-X@XK. .K.[.#XD.n.v.3.2.2.<.",
"0 e e e y t.r.uXJXDXnXvXAXPXPXFX5X3X|.tXrXtXVXtXeXrX X2XrXrXrXrXrXrX0XrXrX0X0X0X0X7X>X;.:X1XJXgXg.P.=X@XD.9.k.#X%XC.v.b.1.2.3.<.",
"9 9 e e y 9.x.V.SXSXpXxXvXGXJXzXmX5X XwXtXwXrXwXrX0X=.2XrXrXrXrXrXrXrXrXrX0XrXrX4X|.<X(.g.aXGXz.E F.P.%X9.w.].].D.v.m.2.2.s <.<.",
"9 w e e e y c.c.P.hXW.W.W.bXzXvXvXiX<X5XtXrXrXwXrXrX4X4XrXrXrXrXrXrXrXrX0X0XrX4XXX[.g.s w.uXiXk.w.a.D.j.9.h.).P.C.v.r.2.1.1.1.<.",
"9 9 9 e e y 3.x.u.pX%XW.xXSXzXkXlXzXoX3XrXrXrX8XrXrXrXrXrXrX8X8X8X4X4X0X8X0X0X,X/.iX].w.w.$XAXz.d l.P.P.g.].z.A.v.M.<.2.s 1.<.<.",
"9 9 9 e w t y r.t.F.aXpXdXLXLXvXuXFXHXoXtXrXrXrX0X7X4X4X4X4X4X4X>X4X4X0X0X8X,X_.#XJXHXg.4.NXPXiXd g.;XgX{.z.l.m.m.1.<.p 2.1.a a ",
"9 0 9 e e t t ,.x.x.P.dXSXLXPXAXzXPXPX1X<XrX0X0XrX8X7X7X8X4X0X8X0X0X0X8X0X,X|.#XSXNXNXiX[.LXPXPXiXiX&X[.{.l.s.m.e.1.1.<.1.1.1.a ",
"9 9 9 0 w e t ,.1.x.n.P.DXJXPXAXzXLXPXFXP.OX7X8X8X0X8X0X0X0X0X8X0XrX8X8X,X=.#XU.sX;X;X*X$XJXJXPX$X{.}.&X*Xa.b.b.<.<.<.<.1.a a a ",
"9 9 9 9 w t t y y 9.x.c.%XJXJXz.w.mXPXMXl.f.K.1XqXrX0X0X8X0X0XrX0X0X4X-.;.|.P.A.I.fX;X%X%XNXJXzXh.).#X$XD.v.m.<.<.<.<.<.a a a a ",
"9 9 9 0 9 e t t ,.y e.x.n.%XaXw.w.].AX].z.A.L.P.j.'.2X7X8X8XrXrX7X>X-.:.:.#.L.f.F.aXfXsXgXiXgXiX].z.z.L.c.m.<.<.a a a a a a p a ",
"8 8 9 9 w e t t y y y r.W v.F.j.g.z.yXd h.uXl.g.k.[. X|.>X7X4X>X-.;.:.:.:.XXk.s.P.pX=XU.P.k.{.].z.l.p.v.v.3.<.a a a a a a a p a ",
"9 9 8 9 9 e e t y y ,.,.e.t.t.V.P.iXMXh.d {.iXZXZX5X7X:X=.-.-.-.:..X.X:.:.>XqX).P.dX=XD.P.[.}.iXl.n.v.v.W y ,.a a a y a r p r r ",
"8 8 9 9 9 e e t t t y y ,.e.t.t.V.uXmXoX}.HXKXKX5X4X0X>X*.:.;.:.:..X:..XXX2XrX4X:X1XdX*X$XiXgXP.b.b.b.T ,.y a y a r a a r a r r ",
"8 8 8 w w 8 w ,.t t y y ,.,.9.r.x.b.j.&XZXKXKXCX2X7XrX4X;.:.:.:.:.:.:.,X4X4X8X8X4XZXZXmXaXsXL.N.B.N.p a a a a r r r r a r r r r ",
"8 8 8 8 8 w w w t t t t t ,.y ,.r.t.c.N.P.fXHX1X>X7X8X4X;.:.:.:..XXX4X8X4X4X7X7X3XZXNXiXL.a.a.V.a.a y r r r r r r r r r r p q r ",
"8 8 8 8 8 w ,.w e t e t t t t ,.,.w.y.y.t.u.L.$X:X<XeX4X;.:.:.>X4X0X9X4X4X4X7X6X&X%XG.a.p.a.a.p y r p r r r r r r r r r r q r 0 ",
"8 8 8 8 w w w w w t t t ,.t t t ,.y <.i.u.u.u.b.N.D.OXOX&X:X6X6XqX6X6X-X&X$XH.G.p.p.N.N.p.w.<.y r p r a r r r r r r r 0 r r 0 r ",
"8 8 8 8 8 w w w w w t w t t t t t y ,.<.<.w.a.N.p.n.p.p.c.b.N.N.N.N.N.n.n.u.u.u.n.u.p.4.a y y p r r e r r e r r r 0 0 r 0 r 0 0 ",
"8 8 8 8 8 w w w w ,.w t t t t t t y y y a <.<.1.i.j.a.u.x.x.t.t.x.x.W t.c.c.u.p.w.y y ,.y p r r e r e r r e r 0 e r e e 0 e 0 0 ",
"8 8 8 8 8 w w w w w w t w t t w t t t y p ,.<.y y s d 9.w.w.i.s.a.i.i.9.w.s s s p y y y y y y e r e e e r 0 0 r 0 e 0 0 0 0 0 0 ",
"8 8 8 8 w 8 w w w w w w w w t t e t t y y y y y y y p i i d R R R R R R d d i d p y y t y e r e e 0 r e e e e e 0 e 0 0 0 0 0 0 "
};
