/* XPM */
static char *_645994037058[] = {
/* columns rows colors chars-per-pixel */
"64 64 201 2 ",
"   c #2C5602",
".  c #2E5B04",
"X  c #2E5A09",
"o  c #2E5708",
"O  c #315E06",
"+  c #325E09",
"@  c #2F6007",
"#  c #346305",
"$  c #386707",
"%  c #356A04",
"&  c #3A6C06",
"*  c #356309",
"=  c #39660A",
"-  c #366909",
";  c #3B6C0A",
":  c #347100",
">  c #3B7304",
",  c #357900",
"<  c #3C7B02",
"1  c #3D720A",
"2  c #3F7A0A",
"3  c #3F6E11",
"4  c #417507",
"5  c #427E04",
"6  c #41750B",
"7  c #437C0B",
"8  c #497F0D",
"9  c #436B1D",
"0  c #467613",
"q  c #47711E",
"w  c #4A761C",
"e  c #4C7B1E",
"r  c #487B14",
"t  c #416620",
"y  c #487520",
"u  c #51772A",
"i  c #587F30",
"p  c #547931",
"a  c #3E8402",
"s  c #3F8A03",
"d  c #438403",
"f  c #448B03",
"g  c #488F01",
"h  c #46820B",
"j  c #49850C",
"k  c #468B0B",
"l  c #4B8C0C",
"z  c #508F0C",
"x  c #479301",
"c  c #4A9203",
"v  c #4C9B02",
"b  c #47940A",
"n  c #4D920C",
"m  c #4F9B0B",
"M  c #509B05",
"N  c #51950D",
"B  c #539B0D",
"V  c #589D0D",
"C  c #498414",
"Z  c #4C8C10",
"A  c #4E801D",
"S  c #518D14",
"D  c #568F1E",
"F  c #4F9411",
"G  c #4F9910",
"H  c #529510",
"J  c #549A11",
"K  c #589F11",
"L  c #57921E",
"P  c #579C1F",
"I  c #5A9D1C",
"U  c #59921F",
"Y  c #4CA402",
"T  c #4EAC02",
"R  c #53A403",
"E  c #54AC03",
"W  c #5AAE05",
"Q  c #56A30D",
"!  c #59A40E",
"~  c #56AC0C",
"^  c #5BAB0D",
"/  c #55B403",
"(  c #5BB406",
")  c #5EBA05",
"_  c #57B20C",
"`  c #5CB30E",
"'  c #5DBA0D",
"]  c #57A110",
"[  c #5AA411",
"{  c #5DAC11",
"}  c #57B111",
"|  c #5EB311",
" . c #5EBA11",
".. c #61AD0E",
"X. c #61B30E",
"o. c #63BB0E",
"O. c #65BE0A",
"+. c #61AE12",
"@. c #64AB1C",
"#. c #61A713",
"$. c #62B411",
"%. c #64BC12",
"&. c #68BD12",
"*. c #6BB81F",
"=. c #558226",
"-. c #538B22",
";. c #58862D",
":. c #5B9425",
">. c #5B9C21",
",. c #5B8333",
"<. c #5E8C33",
"1. c #598335",
"2. c #649A2C",
"3. c #61893D",
"4. c #669B33",
"5. c #66933B",
"6. c #69963C",
"7. c #6C9D3D",
"8. c #5FA421",
"9. c #62A323",
"0. c #6AA52F",
"q. c #67A727",
"w. c #65B221",
"e. c #69B422",
"r. c #6BBA22",
"t. c #71BE26",
"y. c #73BA2E",
"u. c #6CA434",
"i. c #6EAA36",
"p. c #6EA33D",
"a. c #6FA83D",
"s. c #70A43D",
"d. c #73AB3D",
"f. c #75B335",
"g. c #76BB35",
"h. c #76B53C",
"j. c #79B53F",
"k. c #7BBC3D",
"l. c #78BA37",
"z. c #5FC00F",
"x. c #66C30D",
"c. c #66C50B",
"v. c #65C111",
"b. c #6AC412",
"n. c #6DC912",
"m. c #70CD14",
"M. c #71D014",
"N. c #6EC425",
"B. c #74C234",
"V. c #7CC436",
"C. c #7DC43D",
"Z. c #79C63E",
"A. c #698D43",
"S. c #6C9544",
"D. c #6A9744",
"F. c #769A51",
"G. c #789758",
"H. c #6EA441",
"J. c #72A341",
"K. c #7AAF4B",
"L. c #79A44E",
"P. c #79B343",
"I. c #7EBB42",
"U. c #7FB749",
"Y. c #7CA354",
"T. c #7EC242",
"R. c #80CA3D",
"E. c #83CA3B",
"W. c #86D03C",
"Q. c #81BC47",
"!. c #82A85B",
"~. c #87B855",
"^. c #8EAC70",
"/. c #92AE74",
"(. c #96B578",
"). c #82C442",
"_. c #84CB42",
"`. c #88C64C",
"'. c #8AD142",
"]. c #87D041",
"[. c #9BC96D",
"{. c #9ED16B",
"}. c #98C172",
"|. c #ABC68F",
" X c #B3CC88",
".X c #ABD782",
"XX c #B9D78C",
"oX c #ACC291",
"OX c #B7D399",
"+X c #B8C7A7",
"@X c #C4DEAF",
"#X c #C8D8B5",
"$X c #CDE4B8",
"%X c #D2E6BC",
"&X c #DAE8C7",
"*X c #E4ECD1",
"=X c #EFF4EC",
"-X c #F1F5EC",
";X c #F3FAED",
":X c #FFFFFE",
">X c #F6F7F2",
/* pixels */
":X:X:X:X:X:X:X:X:X:X:X:X:X:X:X:X:X:X:X:X:X:X:X:X:X:X:X:X:X:X:X:X:X:X:X:X:X:X:X:X:X:X:X:X:X:X:X:X:X:X:X:X:X:X:X:X:X:X:X:X:X:X:X:X",
"-X`.R._.Z.l.k.).I.5.5.5.5.7.p.a.J.7.).].C.C.k.T.).k.6.5.5.6.6.l.k.a.a.P.]._.Z.k.k.R.C.7.5.d.a.a.d.a.k.].R.Z.k.C.).I.7.s.J.u.~.:X",
";X*.) / E E W ( x : < < f R x f x Y O.) / E T W ( a % : , < > R R v a v O.) T E W ( v & : R R f f c W ) / E E ( o.g > , > : ;.:X",
"-Xr.o. .^ $.$.$.V N B H N +.^ N l [ v.%.} | { $.{ h n n j 6 6 Z { ^ ! G %.| ` | $.$.l Z l ^ +.Q F F { %.{ { $.$.n 6 2 2 2 5 4.:X",
";Xe.o.X.o.o.| ! ! B N n l ! ! ^ b N v.| ^ X.$.%.B M N l 6 1 & 6 N ! ^ ! | o.$.$.$.B B N l B ^ { ~ F N %.X.$.| B j l l n n g 4.:X",
";Xe.R Q N H ] ! ^ n J B l B ! [ Q l | %.$.$.$.[ N N l & - * - * & h h h 7 H [ ^ Q k B M N l l j h 7 7 B Q ^ Q n B M n l N 2 ;.:X",
";X-.$ $ = n ! ! m Z ] N n N l 6 & = 7 j B ! ! B l ] N 2 o * + * 1 * $ & = z ! ! B b ] m l 6 = = * & ; n ! Q B n ! N n n 7 # ,.:X",
"=Xe & 1 1 Q ! ^ n b V B n h 1 = ; 1 = 6 N ! ~ b n ] H m 1 = ; 7 6 1 1 $ 1 ! ! ^ n n ] B 6 6 1 1 1 * 6 ! ! ^ b n ! N n n V O u :X",
"-Xw # X * ! ^ ~ k n V ^ Q 4 1 & - * . 7 ! ! ~ k F Q b k l n j & $ O + + 4 ..! Q f m J N & ; * X * + h ^ Q Q k n V N b k n f 1.:X",
"=X9 O * * ! +.B F N n Z l * * * + * ; l ..~ Q l N B ^ B b b j + + * = = h ..{ B l H ! N * + * * = ; N ..{ m b m Q ^ ~ B N g i.:X",
"-Xy * - 1 N ^ n n m 7 2 j 6 + + = 1 & z ..^ n n V [ ^ ^ ~ J n 7 = 1 & 1 h ..^ l n B l Q N ; ; 1 1 1 h +.^ n F B ] ! ^ ^ ^ v i.:X",
"=XL a h 8 7 V m n N h 7 h Z l h j h h h ..! l n F N J ! [ { [ V l h h l 2 N ! N n h 7 l ~ [ N n n l l { ! k F l C N V B ! R f.:X",
";X9.d j l l ^ Q n N l 2 7 l ` ^ m n n B V J n n 7 8 n Q B B Q J - 1 1 7 V ! N N l 2 7 j ~ |  .N l N ! B N H l 2 7 l ~ Q K B f.:X",
";X9.  4 & j [ Q l l n h 7 l Q ' [ N B ^ N M N l 2 7 h { _ ` | [ + * 1 * J ~ l z n k 1 h m ` ' %.^ ! ^ l H M n 7 7 h Q '  .) E.:X",
";XU o * ; = M ! l j l l 2 7 m  .v.v.{ Q l H F N h 2 j B ` ' b.%.6 + - & 4 B l l l l 5 d H ` `  .b.[ ! n B z n l 1 h N ^ ` ) E.:X",
";X@.& + * ; 7 ! M l l n F V |  .` %.! ^ b N l n l 1 h m ` ^ ` %.{ ; + - 6 l n n l N h B %.%.o.$.v.[ Q n N j l n 7 7 M ` ` / V.:X",
";Xe.5 ; * = > [ l > j z ..%.%.b.o.v.! ! N l 8 l n 7 7 H o..... .v.o.7 * 4 N B j h n l +.` %.b.v.v.{ Q N l 1 l n j 2 z ] ! ( E.:X",
";X-.# 1 = 1 6 6 * - 7 Z X.^ ` %.b.%.{ Q Q 2 ; l H j l $.$.$.` %. .v.b.~ ^ [ J + 1 l N ^ ` ~  .b.b.+.! Q = - j l 7 & 7 - 6 > f.:X",
"=Xe . ; = B B + X & = 6 $...~ $.b.b.X.! l X $ h l V %.$...^ `  .o.$.n.z. .B ; + = 6 l $.X.^ ` %.b.X.B 1 o - 6 ; = 1 * O # @ ,.:X",
"-Xw @ > = j B = * ; ; 1 $.o.%.$.%.m.$.n * + - ; h $.$.` ^ _ %.x.$.$.b.%.| B # X & & & $.%.^ ` $.b.v.c = * = 1 ; # ; & 1 h a ,.:X",
"=Xw . ; * 7 Q = O = & 6  .%.$.| %.n.%.M = O ; ; K $.X.^ ^ ' %.b.$.` b.v.^  .V l = & 8 ` %.` %.$.&.n.Q = + $ 1 ; # 1 = B b.c.l.:X",
"=Xq o > $ h %.{ ^ 7 * l o.%.$.` %.b.%.^ l 7 * 7 ! N N ` %.b.b.o.` %.b.b.&.$.%.n.n * m ` ` %.$.` o.n.$.n 7 ; 1 * + ; $ 6 S M V.:X",
"-Xq . & = N %. .n.&.= ! %.$.| ` o.b.o.$.&.m.! 8 l l l l { n.$.^ ^ o.v.b.$...o.b.$.; 7 m %.$.X. .' b.v.$.M.[ $ * @ * # * + O ,.:X",
"-X9 O ; 7 { $.| b.X.1 7 ..` ^ ` o.n.&.$.` b.v.7 h 7 n l j ! o.` ~ ' b.&.` | | v.J ; & = [ o.~ ` %.n.&.| v.n.7 + * * * O O . p :X",
"-X9   6 [ %.^  .` 1 = - 7 ` ^ ` v.b.%.$.^ %.h = j h 7 n l l X.~ _ %.b.%.{ ` ' %.6 # & = N $.^ _ %.b.$.`  .b.l + * 1 > > ; % ;.:X",
"-X9 h $.o.&.^ %.B * # 1 = ! `  .%.$.%.%.o.R * * 6 l 7 < l N ! ` o.v.&. .^ ^ o.Q = + ; = h $.~ ' b.b.X.X.o.l ; 1 $ j 6 - = # ,.:X",
"=X9.X.$.$.n.` ' j * * 1 = N o.%. .^ o.n. .j = * & 7 j 2 d N ^ o.%.&.%.$.%.} x.N * * ; & 6 | ` o.%.$.o.^ ~ = $ ; & ^ ! k n g 6.:X",
"-Xr.W ` ' v.` ` 6 + # 1 = n %...^  . .b.` 1 * * 1 = 8 h 7 7 B ! $.%.$.%.b. .v.F * + & = 6 ^ o.$.+.%.n.` l = + 1 = V o.v.%.5 i :X",
";Xe.~ ` v.b.' o.l * O 1 h V o.^ ^ ' b.&.^ h * X 1 7 l l 2 + + j  .` | %.n.| V ] 6 + ; 7 l ` $.` | %.b.` 7 * # 1 = j ! ` 7   p :X",
";Xe._ v.v.m l V [ l * j l ! $.~ ` v.b.&.! [ j . 6 Z N j 7 + 1 $.| ^  .%.X.V ~ N N + 7 l V $.` ~ ' b.b.^ 7 O + & 7 j z 8 * . ,.:X",
";Xr.O.{ 7 + * 7 B G h l l N '  .%.b.%.o.! B B & h l N 2 h l ! o.^ ` Q 6 * 6 ! n K h l l V $.^ ` v.b.&.! ! 7 o 5 j N l 6 + % ,.:X",
";XN.~ & + - = h Q l l n l j $.%.%.o.v.^ Q N m l l n j 7 z ! X...' n * * & 1 B n N j n l N o.` %.b.%.%.! J B * 7 z N 7 h h d u.:X",
"-Xe.2 + * ; & V N l l n h 2 k [ ` ' v.$.Q B N N l n 2 7 Z ^ ` o.Q = + & & 7 ^ l l l N 7 l ' %.&.%.v.` Q B n h l n l 1 k { ( V.:X",
";X@.% X 1 ; j $.n n N k 1 h l ~ _ %.$.! ^ N H N N k 1 h n _ ` v.N o = 1 ; [ Q n n N l 2 h l ^ ` ` v.X.! m B N Z N 2 7 l [ W g.:X",
"-XP < 8 7 h n N J H n h 2 h B '  .Q l j ^ B l B N 7 7 h N ~ J ! N * 1 & j ^ ^ n N N h 2 8 N ` ~ o.&.+.! m F N N k 1 h l { E V.:X",
"-XP Q k h h 7 j ` b l F 7 j Q ^ M N n n j z ^ n n h 8 l V J Q ^ ! N l l N N Q Q m n l 7 h ! `  .^ z l ^ B n N N 7 7 h Q ` / V.:X",
"-X9.5 * = 1 C [ $.B n N n V H & = ; 1 1 6 ] X.n n H N ! ^ [ ^ B M N 7 6 6 1 l o.Q k F n Q _ { ! M N n n B ! n n j 6 l ^ } Y f.:X",
"-XA . # * ; 6 #.^ Q n N B V ; X + + = 6 h { ^ B Z M Q ^ ~ B n l C $ o + = = N X.Q { ^ ] ] V 7 ; 1 7 2 6 ! X.n F m I | ! N M f.:X",
"-Xe % * # o = ! ! ^ b k N Q 7 = * * + + 1 { ^ Q k n V m l b l $ ; ; - # O + h N %.n.%.$.Q 6 o * * = & C ....B l n ] ^ V [ R l.:X",
";XD > 1 1 & * n Q ~ m l V ! h 6 1 1 ; - 1 Q Q ^ F l ] n n n * + + 6 6 ; ; = 6 = V b.$.$.{ ; - * + + * 7 ^ ! o...Q B ^ ! ^ v i.:X",
"-X>.5 ; = = 1 B ^ ! ! n B B l h = = = = ; F ! ! B n Q B N 7 * * * - 1 = = & 1 * 6 ' ` $.$.8 ; 1 1 & * ; J b.b.$.%.[ ! B n s u.:X",
";X:.z M j 6 l %...$.X.N N V M l n l j d 7 N ! ^ ! l B V ^ ^ z ; & 1 4 7 ; 1 ; + 1 ] %.%.o.^ 7 - = ; ; 1 ; ^ b.` $.$.N l l f i.:X",
"-X>.B ! ^ Q $. .~ o.$.&.Q N n B ^ ^ { m m %.X.X.$.B l b.%.$.%.N ; 7 S l 1 & = * 1 m %.b.$.$.$.j 7 1 & ; = 8  .` $.$.! N z d 4.:X",
"-X@.~ ! m n %.%. .~ ! N N l h ! +.! k k { o.` X.$.$.B b.b...| %.] j l z j 1 * + * B &.b.' ~ $.$.^ 7 = & + 1  .` +.&.^ N n x 4.:X",
"-Xe.` ! k N $.b. .~ j l j l 7 { %.X.] B ~ H H Q ` | %.b.%. .{  .! h 5 l l 8 + ; n ! %.b.o.` ` %.! = ; $ + & ^ ~ b.%. .| l d 0.:X",
";Xt.( %.| Q N $.b.z l l 8 j | $.+.o.m.^ j j l l ^ ` $.b.b. .^ ( K j 2 N l h - N ! ! %.b.v._ ^ $.! 7 1 * + ; | ` b.&.^ %.[ % <.:X",
";Xr.` b.{ ! n { [ h n l 2 Z { $.` %.n.| j 7 z l n X.+.&.n.%._ ` ^ j 7 j N j j N B [ %.o.b. .{ $.! l h O ; N o.' b.%.` ^ %.R 2.:X",
">Xr.( v.[ ! n ] S l n 7 7 N ^ ` ' %.n.! l 7 l l j ` `  .%.o.| ' $.h 6 h n l B n R ] %.%.%.b. .` l N j 1 H Q B B o.n.| { | ) V.:X",
"-Xr.) n...! n N N l k 2 h n ^ _ %.b.v.] l 7 h n j ! o.! V V Q %.%.j 7 2 N N B b Q ! o. .|  .{ B h n j l B b 4 + 6 $. ._ X.W V.:X",
";X*.` ] V ^ c N B N 2 7 h Q ' %.v.n.' R Z 6 h n l ! %.B ^ ! ] J n.F 7 2 l B ] n ^ %.m.%.` ` n 8 7 l z l n m ; ; + 6 %.%.| W l.:X",
";X*.n l n ! J N N l 7 7 Z ~ ~ Q ] ! ^ _ j 7 7 l n q.[ j l N V ! b.b.F n N l ! V N z | v.' _ m h 1 k n z n Q 6 & * + j b.%.E l.:X",
"=XL l l k j ^ ! l F l j B V N Q ^ [ ] Q l 8 7 7 7 r 6 h l l l B Q { ] N l m X.! l l n ] Q ` Q j 7 7 n N n X.l = > + ; &.v./ g.:X",
"-Xq % & 1 l +.^ n n N [ ! ! { ^ V J ] n V 6 = * $ # * = 1 n n N [ B J n l Q ` V h j n B V V V j h l F N Q N N 6 & * 6 ] ~ W y.:X",
"-X9 @ = ; N ..^ Q k V J ~ ~ B n l J n 1 N 1 = $ # + + * + 1 2 l N V B k m ^ ^ ! 7 > 6 1 h ! ] N F n l B { h h Z S C S #.J M i.:X",
"=Xw . * O j ^ ! Q s N Q m b k b Z ; ; & 1 1 1 ; 1 1 & & & - * ; n ! n n Q ^ ] Z 1 ; = *   & R B m n x Q ` J & (.&X#X*X$X{ R f.:X",
"=Xw & 1 = & B ! ~ F n Q n n N V * + * + # = 3 ; = $ ; 4 ; * + + l ] k B { V ! h + * X * u 9 :.@.u.:.8.e.y.2.3 oXXX X*X&XP Y l.:X",
"-Xe % - 7 N ! { [ G l Q N N ] j $ $ = # - # ; ; l l N 7 # $ ; = h J n ^ ! N ^ V $ ; ; 1 S.S.K.j.a.K.Q.Q.P.D.9 G.#X+X+XoXN f f.:X",
"-X@.s j ^ o.X.$.%.Q n Q N N l h 6 6 ; 1 ; 6 & & ! { Q 1 ; ; 6 6 1 { +.` X.+.` N = = = ; % d v v f v Y @.~.1.A.,.9 0 A.6.K f 4.:X",
"-X>.l ! %.$.~ ` ` $.! N N N l l l 7 ; $ = = 1 V ! V j = ; 1 6 ; n %.$.$.^ o.| Z 7 7 6 7 2.0.P.2.>.f.f.[ /.F.(.u ^.Y.F.G.d c u.:X",
"-X>.n { %.v._ ^ ` $.{ j l n n n N N l h j Q o.X.` ! l B Q V h l v.$.^ ^ ` %.$.Q B n N x ~.%XOX@XXX&X%X/ U.<./.7 ^.F.=.u.d f u.:X",
"=X8.l N b.%. .| ^ $.$.h 7 2 7 h l l l Z ] %.$.| $.o.F m { [ ! $.$.^ ` |  .b.%.] J Z 8 < -.L.}.{..X{.[. .C.0.[.~.d.7.u.0.N x u.:X",
"=XC : % R c.) / E W X.R > > : > : > 5 f ~ E W / / O.v a x R ( ( E E / / ) c.Y R R g : > : a / E T T T ' ) x x R v x , < 5 , :.:X",
">XL.7.H.7._.'._.T.T.).).J.J.s.s.s.J.J.I.R.Q.I.Z.R.`.Q.J.H.k._.).).T._._.'.).J.P.I.k.J.7.7.)._.I.T.T.T._._.P.a.j.Q.P.6.D.5.<.!.:X",
":X:X:X:X:X:X:X:X:X:X:X:X:X:X:X:X:X:X:X:X:X:X:X:X:X:X:X:X:X:X:X:X:X:X:X:X:X:X:X:X:X:X:X:X:X:X:X:X:X:X:X:X:X:X:X:X:X:X:X:X:X:X:X:X"
};
