/* XPM */
static char *_645994078070[] = {
/* columns rows colors chars-per-pixel */
"64 64 82 1 ",
"  c #64584A",
". c #6C5F4F",
"X c #695D51",
"o c #69604F",
"O c #6E6553",
"+ c #6F6856",
"@ c #716556",
"# c #726856",
"$ c #736759",
"% c #756C5B",
"& c #7A6E5E",
"* c #7B705E",
"= c #796D61",
"- c #7D7262",
"; c #827665",
": c #847867",
"> c #827668",
", c #867B6A",
"< c #897D6C",
"1 c #8C816F",
"2 c #8E8271",
"3 c #928675",
"4 c #938877",
"5 c #968A7A",
"6 c #9A8E7D",
"7 c #9C917F",
"8 c #998D80",
"9 c #9E9281",
"0 c #A29584",
"q c #A39986",
"w c #A99A87",
"e c #A59A89",
"r c #AA9D8C",
"t c #AEA18E",
"y c #B1A38E",
"u c #AEA291",
"i c #B3A594",
"p c #B5A996",
"a c #B9AA96",
"s c #B1A599",
"d c #B6AA99",
"f c #BBAD9C",
"g c #BDB19E",
"h c #BEB3A2",
"j c #C1B39E",
"k c #C2B6A4",
"l c #C4B8A6",
"z c #C8BAA5",
"x c #C3B7A9",
"c c #C6BAA9",
"v c #CABDAB",
"b c #CEC1AE",
"n c #D1C2AE",
"m c #CEC2B1",
"M c #D2C4B2",
"N c #D8C7B5",
"B c #D5C9B6",
"V c #DACAB6",
"C c #D6CBBA",
"Z c #DACDBB",
"A c #D2C5BC",
"S c #DCD0BE",
"D c #E1D2BF",
"F c #D8CFC0",
"G c #DDD2C1",
"H c #E2D6C4",
"J c #E4D9C7",
"K c #E5DACA",
"L c #E9DECD",
"P c #E5DDD0",
"I c #E8DFD0",
"U c #ECE0CF",
"Y c #E7E0D0",
"T c #ECE2D3",
"R c #EDE7D9",
"E c #F1E5D4",
"W c #F3E8D6",
"Q c #F3E7D9",
"! c #F4EBDB",
"~ c #F9EDDD",
"^ c #FEF7E7",
"/ c #FFF9E9",
/* pixels */
"-r6uEJUGJJHZZGHKJJGCCCGJYTTWEEIUKHHFVZZZMBBCJY!^YYRRQIIPFAJHEh99",
"5r6FSbbBBbcvMMvvMbbbbbmMCCZZFZZCMMMvvvvvbbbbMZGK^^!PIQRIQ~LU!v4e",
"59xLbbbnlirjAVMvbbbbbbbbbbbbbvbmMMvvvMvAnnzvbbbmmCAbvvvMvGBBEPd5",
"q9LMbBbnvkknMvvVbbnbbbbbmbbbmmmmvMMMMMvvnnnnbbbbhbbbxaavMvMkMHLu",
"GmUbMgytjjvzawavbbbbbbbbmmmmmmMMbnbbvvvvzbbnnnnbmmcccgjvnxVMvcTC",
"C!GMl7t70yajyyajBBnnnnbbbbbbbbbbnnnnVBMBnnbzbbnnmmbcbVNzpzzMMmGH",
"6LCbtqggjjjjzjjjnbbbbbbbbbbbbbbbbbbbnnMnNMnnbbbbbbmbgvbavbijvNHv",
"9CSbtyyaajvNzyjNnbznnnbbbbbmmbbMbnbbbbnnnnNMnnnbbcMbagMMntrkBlHf",
"5LMbwtjjavvvDZvNbbbbnbbbbbbbbbbbbbbbbbbbbbbbbbMMnVktkNMvyazbnnNf",
"eHZfwjjaNvirzNvvbmbbbbbbbmbbmbbbbbbbbmbMbbbbbbbmBkwanvkzjjnnnnMa",
"tCZgyjznvNjjzMvvbbbbbbmbbbbbbmbbbbbbbbbbbbbbbbbblaikvayvNnBnNvMa",
"eGnvaaVVvvVVMnMnbbbbbbbbbbbbbbbbbbbnbbbbbbbbbbbMlgjvNvzNVnnnvvvi",
"tUvlaMnibbMMnMMvbbbbbbbbbbbbbbbbbbbbbbbbbbbbMbbnjzzvvDNvNvNvVvZa",
"pGbbzDatMbvvvnMvbbbnbbmbbbmbbmbbbbbbbbbbcbbbMbmbkvMvzzvNnvNNNvvi",
"pCvBZnynbbnMMbnMbmbbbnbbbbbbbbbmbbbbnbbnbbbMbbbbHMvnVNvznvvvNvvs",
"uJvmDjjZMnvvnMvvbbbbbbbbbbbbbbbmbbnnnBBBbbMMMnMbnvbbvvNnNNNvNvNa",
"pBBvzCBnbbbbbbbbbbbbbbbbmmmmmmmmBBBbbbbbcbbbBBMBnbjjffgjttpkvvMs",
"uBMdivbbbbbbbbbbbbbbbbbbvvmvbmmmlllcbbmCBBbvvbMBnbblfppphuupcvBd",
"qBmtynnnbbbbbbbbbmmmmmmmCCCCCCCSFBFBBbcclvbBBbbbBnMVBVBnBbbbMvMd",
"9MmpgVnBBMbbbbbmbmmCCGGGFCFFSCFFGGFGFFFFBBbbcbbCbbbbnbbbvbBBBvMf",
"7bbgnMbbbbnnnMBBGSCBmchhhhhhhhhhlcbbmFFFFFFBmbccbnmMMMnbbbzbMvBf",
"tbbjBnbbbbbBBBbbhhgghhxxllxxxxlchhhhhhhhlbCGFFCmbbcbbMBBBMnnMvMf",
"7gBbBbbBBBnnbhdflljbllllhkhhhxhhcclllhllhhhlmCFFBBmmmMnnlznnbznj",
"7gBbbzbbbbblhbbbgblgblllllllllllhhhhllhhlhhhhlcmCBmmmnnnVnbbnbBg",
"9cbbvAvvhxlhhhhhhhlhkkkkkkhkhlhlcllhlhllhhllhlhlhcCFBbbcbMbbbzBa",
"6hmmvvvzckkkhbbhhlhlkkkkkkkklhlhlllhlllhlhhllhhlchglmFCbbnbbbbBp",
"7xmbcxkfhhkxhghchllhkkkklhkkhlhlhlllllhlhlhlhlhhhhhhlbBBbMbbBnBy",
"7lvlzxczchfhhbhclhllkkkhhlhklhlhhhhllllllllhlhllhlchhhkbbnbbnBG7",
"9hxfkfkghkllhghhhlkkkkkklhhllhhllhlhhkllllhhlhlhhchlkkhhcbMbbzM7",
"3fkkllxjkxllhlhclhkkkkkkhlkkhllhklhhkkllllllhlhlchhhlckhllbbbbG7",
":uxzvvvzkdq0pbvhhlkkkkkklkhkllhlhlhkhlhllllllllhhhhhhhlchglbbnB7",
"<akdr654142*#2uhlhkkkkkkkklkhhlhlhlkllhhlllllhhlhhllklhhlglllzl*",
"1pdpeqqulcclpsdlhllhlhlhhhlhhlllhhhcchhhkkxxczhhchchkklkhcdhlp%o",
"-pclvcvmhlhhhlllllhhllhhcllhlhhhclhhhgklhkhkxccchhchkhhkhlhkcg,+",
":fckllkhlhhhlclhlhllhlllhhlclclchhllllhggkcccllhhcchkkkkllhkll7+",
"1fkgxhhhhllllhhhkkhlhllhhchhhhhhhhhhlllhcckkghcbhhhhkkkklhhhhcu+",
"1fhlvllchhllhhllkkkkhlhlllllllhlllxxkgpuhkxccxkxbhhhlhxklkkhglg+",
"2fhbckhlllhhlllxkklklhlhhhhllhlhhklhp7,-8wskccxxbhhhlhhhlkklhlh%",
":ihhccccccllllhhkkkkhllhllhhpuueq751+ o=>>;><8wughbbmbcmghlhhch-",
":dchhhchcccccccccllllccllhlhhhhhdpss98sCvxfuq6<>*1366579dglhchc-",
"1uchklkhhhlhlhllkklkkkkkhlhlhlhlvcvmBBbllllcxxkkiw8<0djkclhhchc,",
"-ulkklkkhlhlhlllkkhlkkkklhlhlhlhlkklcccxhhhhkkjkxkkzvvvxbccbbcv2",
"%ellklkkhhhllhllkhlhkkkklllhhlhlkkhkxkllhcclzxxxkjkjxkjjhhhhhgh<",
"+eclklkklhlhhllhkkhlkkhkhlhllhlhllkkllccbhcbzvzzzzkkkjkkchbhkxc2",
"+ellhkkxllhlhlhllhlhkhlhlhlhhlhkkklkkkkkhhxkzlxlxxxzvvzxczzzllv3",
"+elkklkkhllhlhlhhlhlhlhlhlhllhlkhgkkkhkklhkhkkkkjjjjjkjjxjxkkgk,",
"+qlhklkklhlhhlhlllxhlhlhhhhlhlkkkkkklkkhlhlkkkkjzkkkkkxxxkxxkkk,",
"oqlkklkhhlhhlhlhlhhlhlhllhlhlhkklkkgklkkllxkkkkkjkxxxkjkkjkkkkj;",
"oqckclhlhhhlvchkkkkkkkhhllhlkkkkkkkkkkkkchhhchhlxkjkhhhbhhhhhch:",
"+5xhhllllchhgdhmkkkkkklhlhlhkkkkkkklkkkkhhcchhlhxkxxbhhhmhgvcxp=",
"+4xllhlhhllkclkhkkkkkhllhlhllhlhkklhkkkklhchchhlkkkkhchhhhlhkvf:",
"+4cvlccchlhgkxhhklhkhllhlhlhhlhlkkhkkkkkhlhhchlhkckghhhbcvvhfvd&",
"%8ccxcmhhbmckghlkkkkhlhlhllhlhhlkkkkkkkklbghhlhlkxkhklhhjifxvvu=",
"%4xhhxs9sfhbbmlllkkhhhlklhhhlllhkhkkkkkkhhlhkklhhxlkllhp6qjkhva>",
"+4hxluq9hu69gblcllkkhlhkhlhlhlhlkkhllklhlhhlkkxhhkhkllfu0jvw6ks&",
"+4xcluummgtihlhllllhhhkklhlhlhlhkkkkhlhlhlhlkkhxxkghlvhivxd<<xf=",
"&<kvjkvf9rmmuclkgjbbgghhkkkkkkxchhhhhkkkkhhhhhhhxhhkhfxcvu<0sjs;",
".6ci>6<,19vf5iflllhlgbkkkkkjxzvvmmmmmmmbvzvcvbvvbmvvvvxj9uurscx<",
",qxs5w8eaud69jvklggggbkbzzxzxvvvmmBCSSGGSSZZFZZFBCVZABvcuw0ujxj<",
"e7vcgsruruhufclgkgkkbhglcxxzxxxkllkkllcmvvvzcczczkxxf0wjxdjvvxfr",
"%+hmchfsrdvxvjxcxxxxxkkjcxxxcckklkkkhllhzxxkkkxlckjjr58svvvvvk8;",
"-%9CvMvvVvxjckfjkkghkxxxkjjjxckkgghxhhhhhggkkkkhkkxfddfkjkxjxx< ",
"%+%uvHGFAMMZZvvvcccckkxxvvxxvvvvvvvvcchccclxllclxcxxcvvvvxvvj8;;",
"o-+%sjd4499sdvAvVAFvcjjsrw0889066679epgchhhhhgfggsiise0ew<8rr<.;"
};
